<?xml version="1.0" encoding="utf-8" standalone="no"?>
<!DOCTYPE svg PUBLIC "-//W3C//DTD SVG 1.1//EN"
  "http://www.w3.org/Graphics/SVG/1.1/DTD/svg11.dtd">
<svg xmlns:xlink="http://www.w3.org/1999/xlink" width="1160.39952pt" height="440.39952pt" viewBox="0 0 1160.39952 440.39952" xmlns="http://www.w3.org/2000/svg" version="1.1">
 <metadata>
  <rdf:RDF xmlns:dc="http://purl.org/dc/elements/1.1/" xmlns:cc="http://creativecommons.org/ns#" xmlns:rdf="http://www.w3.org/1999/02/22-rdf-syntax-ns#">
   <cc:Work>
    <dc:type rdf:resource="http://purl.org/dc/dcmitype/StillImage"/>
    <dc:date>2026-04-13T21:21:27.314121</dc:date>
    <dc:format>image/svg+xml</dc:format>
    <dc:creator>
     <cc:Agent>
      <dc:title>Matplotlib v3.10.8, https://matplotlib.org/</dc:title>
     </cc:Agent>
    </dc:creator>
   </cc:Work>
  </rdf:RDF>
 </metadata>
 <defs>
  <style type="text/css">*{stroke-linejoin: round; stroke-linecap: butt}</style>
 </defs>
 <g id="figure_1">
  <g id="patch_1">
   <path d="M 0 440.39952 
L 1160.39952 440.39952 
L 1160.39952 0 
L 0 0 
z
" style="fill: #ffffff"/>
  </g>
  <g id="axes_1">
   <g id="patch_2">
    <path d="M 72.615 383.309989 
L 536.488354 383.309989 
L 536.488354 26.877187 
L 72.615 26.877187 
z
" style="fill: #ffffff"/>
   </g>
   <g id="matplotlib.axis_1">
    <g id="xtick_1">
     <g id="line2d_1">
      <path d="M 153.943445 383.309989 
L 153.943445 26.877187 
" clip-path="url(#p87eabfa587)" style="fill: none; stroke: #cccccc; stroke-width: 1.5; stroke-linecap: round"/>
     </g>
     <g id="text_1">
      <!-- Baseline -->
      <g style="fill: #262626" transform="translate(118.964734 408.347411) scale(0.165 -0.165)">
       <defs>
        <path id="DejaVuSans-42" d="M 1259 2228 
L 1259 519 
L 2272 519 
Q 2781 519 3026 730 
Q 3272 941 3272 1375 
Q 3272 1813 3026 2020 
Q 2781 2228 2272 2228 
L 1259 2228 
z
M 1259 4147 
L 1259 2741 
L 2194 2741 
Q 2656 2741 2882 2914 
Q 3109 3088 3109 3444 
Q 3109 3797 2882 3972 
Q 2656 4147 2194 4147 
L 1259 4147 
z
M 628 4666 
L 2241 4666 
Q 2963 4666 3353 4366 
Q 3744 4066 3744 3513 
Q 3744 3084 3544 2831 
Q 3344 2578 2956 2516 
Q 3422 2416 3680 2098 
Q 3938 1781 3938 1306 
Q 3938 681 3513 340 
Q 3088 0 2303 0 
L 628 0 
L 628 4666 
z
" transform="scale(0.015625)"/>
        <path id="DejaVuSans-61" d="M 2194 1759 
Q 1497 1759 1228 1600 
Q 959 1441 959 1056 
Q 959 750 1161 570 
Q 1363 391 1709 391 
Q 2188 391 2477 730 
Q 2766 1069 2766 1631 
L 2766 1759 
L 2194 1759 
z
M 3341 1997 
L 3341 0 
L 2766 0 
L 2766 531 
Q 2569 213 2275 61 
Q 1981 -91 1556 -91 
Q 1019 -91 701 211 
Q 384 513 384 1019 
Q 384 1609 779 1909 
Q 1175 2209 1959 2209 
L 2766 2209 
L 2766 2266 
Q 2766 2663 2505 2880 
Q 2244 3097 1772 3097 
Q 1472 3097 1187 3025 
Q 903 2953 641 2809 
L 641 3341 
Q 956 3463 1253 3523 
Q 1550 3584 1831 3584 
Q 2591 3584 2966 3190 
Q 3341 2797 3341 1997 
z
" transform="scale(0.015625)"/>
        <path id="DejaVuSans-73" d="M 2834 3397 
L 2834 2853 
Q 2591 2978 2328 3040 
Q 2066 3103 1784 3103 
Q 1356 3103 1142 2972 
Q 928 2841 928 2578 
Q 928 2378 1081 2264 
Q 1234 2150 1697 2047 
L 1894 2003 
Q 2506 1872 2764 1633 
Q 3022 1394 3022 966 
Q 3022 478 2636 193 
Q 2250 -91 1575 -91 
Q 1294 -91 989 -36 
Q 684 19 347 128 
L 347 722 
Q 666 556 975 473 
Q 1284 391 1588 391 
Q 1994 391 2212 530 
Q 2431 669 2431 922 
Q 2431 1156 2273 1281 
Q 2116 1406 1581 1522 
L 1381 1569 
Q 847 1681 609 1914 
Q 372 2147 372 2553 
Q 372 3047 722 3315 
Q 1072 3584 1716 3584 
Q 2034 3584 2315 3537 
Q 2597 3491 2834 3397 
z
" transform="scale(0.015625)"/>
        <path id="DejaVuSans-65" d="M 3597 1894 
L 3597 1613 
L 953 1613 
Q 991 1019 1311 708 
Q 1631 397 2203 397 
Q 2534 397 2845 478 
Q 3156 559 3463 722 
L 3463 178 
Q 3153 47 2828 -22 
Q 2503 -91 2169 -91 
Q 1331 -91 842 396 
Q 353 884 353 1716 
Q 353 2575 817 3079 
Q 1281 3584 2069 3584 
Q 2775 3584 3186 3129 
Q 3597 2675 3597 1894 
z
M 3022 2063 
Q 3016 2534 2758 2815 
Q 2500 3097 2075 3097 
Q 1594 3097 1305 2825 
Q 1016 2553 972 2059 
L 3022 2063 
z
" transform="scale(0.015625)"/>
        <path id="DejaVuSans-6c" d="M 603 4863 
L 1178 4863 
L 1178 0 
L 603 0 
L 603 4863 
z
" transform="scale(0.015625)"/>
        <path id="DejaVuSans-69" d="M 603 3500 
L 1178 3500 
L 1178 0 
L 603 0 
L 603 3500 
z
M 603 4863 
L 1178 4863 
L 1178 4134 
L 603 4134 
L 603 4863 
z
" transform="scale(0.015625)"/>
        <path id="DejaVuSans-6e" d="M 3513 2113 
L 3513 0 
L 2938 0 
L 2938 2094 
Q 2938 2591 2744 2837 
Q 2550 3084 2163 3084 
Q 1697 3084 1428 2787 
Q 1159 2491 1159 1978 
L 1159 0 
L 581 0 
L 581 3500 
L 1159 3500 
L 1159 2956 
Q 1366 3272 1645 3428 
Q 1925 3584 2291 3584 
Q 2894 3584 3203 3211 
Q 3513 2838 3513 2113 
z
" transform="scale(0.015625)"/>
       </defs>
       <use xlink:href="#DejaVuSans-42"/>
       <use xlink:href="#DejaVuSans-61" transform="translate(68.603516 0)"/>
       <use xlink:href="#DejaVuSans-73" transform="translate(129.882812 0)"/>
       <use xlink:href="#DejaVuSans-65" transform="translate(181.982422 0)"/>
       <use xlink:href="#DejaVuSans-6c" transform="translate(243.505859 0)"/>
       <use xlink:href="#DejaVuSans-69" transform="translate(271.289062 0)"/>
       <use xlink:href="#DejaVuSans-6e" transform="translate(299.072266 0)"/>
       <use xlink:href="#DejaVuSans-65" transform="translate(362.451172 0)"/>
      </g>
     </g>
    </g>
    <g id="xtick_2">
     <g id="line2d_2">
      <path d="M 304.551677 383.309989 
L 304.551677 26.877187 
" clip-path="url(#p87eabfa587)" style="fill: none; stroke: #cccccc; stroke-width: 1.5; stroke-linecap: round"/>
     </g>
     <g id="text_2">
      <!-- ViTTA -->
      <g style="fill: #262626" transform="translate(281.864177 408.347411) scale(0.165 -0.165)">
       <defs>
        <path id="DejaVuSans-56" d="M 1831 0 
L 50 4666 
L 709 4666 
L 2188 738 
L 3669 4666 
L 4325 4666 
L 2547 0 
L 1831 0 
z
" transform="scale(0.015625)"/>
        <path id="DejaVuSans-54" d="M -19 4666 
L 3928 4666 
L 3928 4134 
L 2272 4134 
L 2272 0 
L 1638 0 
L 1638 4134 
L -19 4134 
L -19 4666 
z
" transform="scale(0.015625)"/>
        <path id="DejaVuSans-41" d="M 2188 4044 
L 1331 1722 
L 3047 1722 
L 2188 4044 
z
M 1831 4666 
L 2547 4666 
L 4325 0 
L 3669 0 
L 3244 1197 
L 1141 1197 
L 716 0 
L 50 0 
L 1831 4666 
z
" transform="scale(0.015625)"/>
       </defs>
       <use xlink:href="#DejaVuSans-56"/>
       <use xlink:href="#DejaVuSans-69" transform="translate(66.158203 0)"/>
       <use xlink:href="#DejaVuSans-54" transform="translate(93.941406 0)"/>
       <use xlink:href="#DejaVuSans-54" transform="translate(153.275391 0)"/>
       <use xlink:href="#DejaVuSans-41" transform="translate(206.609375 0)"/>
      </g>
     </g>
    </g>
    <g id="xtick_3">
     <g id="line2d_3">
      <path d="M 455.159909 383.309989 
L 455.159909 26.877187 
" clip-path="url(#p87eabfa587)" style="fill: none; stroke: #cccccc; stroke-width: 1.5; stroke-linecap: round"/>
     </g>
     <g id="text_3">
      <!-- RMGA -->
      <g style="fill: #262626" transform="translate(430.273268 408.347411) scale(0.165 -0.165)">
       <defs>
        <path id="DejaVuSans-52" d="M 2841 2188 
Q 3044 2119 3236 1894 
Q 3428 1669 3622 1275 
L 4263 0 
L 3584 0 
L 2988 1197 
Q 2756 1666 2539 1819 
Q 2322 1972 1947 1972 
L 1259 1972 
L 1259 0 
L 628 0 
L 628 4666 
L 2053 4666 
Q 2853 4666 3247 4331 
Q 3641 3997 3641 3322 
Q 3641 2881 3436 2590 
Q 3231 2300 2841 2188 
z
M 1259 4147 
L 1259 2491 
L 2053 2491 
Q 2509 2491 2742 2702 
Q 2975 2913 2975 3322 
Q 2975 3731 2742 3939 
Q 2509 4147 2053 4147 
L 1259 4147 
z
" transform="scale(0.015625)"/>
        <path id="DejaVuSans-4d" d="M 628 4666 
L 1569 4666 
L 2759 1491 
L 3956 4666 
L 4897 4666 
L 4897 0 
L 4281 0 
L 4281 4097 
L 3078 897 
L 2444 897 
L 1241 4097 
L 1241 0 
L 628 0 
L 628 4666 
z
" transform="scale(0.015625)"/>
        <path id="DejaVuSans-47" d="M 3809 666 
L 3809 1919 
L 2778 1919 
L 2778 2438 
L 4434 2438 
L 4434 434 
Q 4069 175 3628 42 
Q 3188 -91 2688 -91 
Q 1594 -91 976 548 
Q 359 1188 359 2328 
Q 359 3472 976 4111 
Q 1594 4750 2688 4750 
Q 3144 4750 3555 4637 
Q 3966 4525 4313 4306 
L 4313 3634 
Q 3963 3931 3569 4081 
Q 3175 4231 2741 4231 
Q 1884 4231 1454 3753 
Q 1025 3275 1025 2328 
Q 1025 1384 1454 906 
Q 1884 428 2741 428 
Q 3075 428 3337 486 
Q 3600 544 3809 666 
z
" transform="scale(0.015625)"/>
       </defs>
       <use xlink:href="#DejaVuSans-52"/>
       <use xlink:href="#DejaVuSans-4d" transform="translate(69.482422 0)"/>
       <use xlink:href="#DejaVuSans-47" transform="translate(155.761719 0)"/>
       <use xlink:href="#DejaVuSans-41" transform="translate(233.251953 0)"/>
      </g>
     </g>
    </g>
    <g id="text_4">
     <!-- Method -->
     <g style="fill: #262626" transform="translate(270.796052 429.456082) scale(0.18 -0.18)">
      <defs>
       <path id="DejaVuSans-74" d="M 1172 4494 
L 1172 3500 
L 2356 3500 
L 2356 3053 
L 1172 3053 
L 1172 1153 
Q 1172 725 1289 603 
Q 1406 481 1766 481 
L 2356 481 
L 2356 0 
L 1766 0 
Q 1100 0 847 248 
Q 594 497 594 1153 
L 594 3053 
L 172 3053 
L 172 3500 
L 594 3500 
L 594 4494 
L 1172 4494 
z
" transform="scale(0.015625)"/>
       <path id="DejaVuSans-68" d="M 3513 2113 
L 3513 0 
L 2938 0 
L 2938 2094 
Q 2938 2591 2744 2837 
Q 2550 3084 2163 3084 
Q 1697 3084 1428 2787 
Q 1159 2491 1159 1978 
L 1159 0 
L 581 0 
L 581 4863 
L 1159 4863 
L 1159 2956 
Q 1366 3272 1645 3428 
Q 1925 3584 2291 3584 
Q 2894 3584 3203 3211 
Q 3513 2838 3513 2113 
z
" transform="scale(0.015625)"/>
       <path id="DejaVuSans-6f" d="M 1959 3097 
Q 1497 3097 1228 2736 
Q 959 2375 959 1747 
Q 959 1119 1226 758 
Q 1494 397 1959 397 
Q 2419 397 2687 759 
Q 2956 1122 2956 1747 
Q 2956 2369 2687 2733 
Q 2419 3097 1959 3097 
z
M 1959 3584 
Q 2709 3584 3137 3096 
Q 3566 2609 3566 1747 
Q 3566 888 3137 398 
Q 2709 -91 1959 -91 
Q 1206 -91 779 398 
Q 353 888 353 1747 
Q 353 2609 779 3096 
Q 1206 3584 1959 3584 
z
" transform="scale(0.015625)"/>
       <path id="DejaVuSans-64" d="M 2906 2969 
L 2906 4863 
L 3481 4863 
L 3481 0 
L 2906 0 
L 2906 525 
Q 2725 213 2448 61 
Q 2172 -91 1784 -91 
Q 1150 -91 751 415 
Q 353 922 353 1747 
Q 353 2572 751 3078 
Q 1150 3584 1784 3584 
Q 2172 3584 2448 3432 
Q 2725 3281 2906 2969 
z
M 947 1747 
Q 947 1113 1208 752 
Q 1469 391 1925 391 
Q 2381 391 2643 752 
Q 2906 1113 2906 1747 
Q 2906 2381 2643 2742 
Q 2381 3103 1925 3103 
Q 1469 3103 1208 2742 
Q 947 2381 947 1747 
z
" transform="scale(0.015625)"/>
      </defs>
      <use xlink:href="#DejaVuSans-4d"/>
      <use xlink:href="#DejaVuSans-65" transform="translate(86.279297 0)"/>
      <use xlink:href="#DejaVuSans-74" transform="translate(147.802734 0)"/>
      <use xlink:href="#DejaVuSans-68" transform="translate(187.011719 0)"/>
      <use xlink:href="#DejaVuSans-6f" transform="translate(250.390625 0)"/>
      <use xlink:href="#DejaVuSans-64" transform="translate(311.572266 0)"/>
     </g>
    </g>
   </g>
   <g id="matplotlib.axis_2">
    <g id="ytick_1">
     <g id="line2d_4">
      <path d="M 72.615 383.309989 
L 536.488354 383.309989 
" clip-path="url(#p87eabfa587)" style="fill: none; stroke: #cccccc; stroke-opacity: 0.3; stroke-width: 1.5; stroke-linecap: round"/>
     </g>
     <g id="text_5">
      <!-- 0 -->
      <g style="fill: #262626" transform="translate(49.616875 389.5787) scale(0.165 -0.165)">
       <defs>
        <path id="DejaVuSans-30" d="M 2034 4250 
Q 1547 4250 1301 3770 
Q 1056 3291 1056 2328 
Q 1056 1369 1301 889 
Q 1547 409 2034 409 
Q 2525 409 2770 889 
Q 3016 1369 3016 2328 
Q 3016 3291 2770 3770 
Q 2525 4250 2034 4250 
z
M 2034 4750 
Q 2819 4750 3233 4129 
Q 3647 3509 3647 2328 
Q 3647 1150 3233 529 
Q 2819 -91 2034 -91 
Q 1250 -91 836 529 
Q 422 1150 422 2328 
Q 422 3509 836 4129 
Q 1250 4750 2034 4750 
z
" transform="scale(0.015625)"/>
       </defs>
       <use xlink:href="#DejaVuSans-30"/>
      </g>
     </g>
    </g>
    <g id="ytick_2">
     <g id="line2d_5">
      <path d="M 72.615 312.023428 
L 536.488354 312.023428 
" clip-path="url(#p87eabfa587)" style="fill: none; stroke: #cccccc; stroke-opacity: 0.3; stroke-width: 1.5; stroke-linecap: round"/>
     </g>
     <g id="text_6">
      <!-- 20 -->
      <g style="fill: #262626" transform="translate(39.11875 318.292139) scale(0.165 -0.165)">
       <defs>
        <path id="DejaVuSans-32" d="M 1228 531 
L 3431 531 
L 3431 0 
L 469 0 
L 469 531 
Q 828 903 1448 1529 
Q 2069 2156 2228 2338 
Q 2531 2678 2651 2914 
Q 2772 3150 2772 3378 
Q 2772 3750 2511 3984 
Q 2250 4219 1831 4219 
Q 1534 4219 1204 4116 
Q 875 4013 500 3803 
L 500 4441 
Q 881 4594 1212 4672 
Q 1544 4750 1819 4750 
Q 2544 4750 2975 4387 
Q 3406 4025 3406 3419 
Q 3406 3131 3298 2873 
Q 3191 2616 2906 2266 
Q 2828 2175 2409 1742 
Q 1991 1309 1228 531 
z
" transform="scale(0.015625)"/>
       </defs>
       <use xlink:href="#DejaVuSans-32"/>
       <use xlink:href="#DejaVuSans-30" transform="translate(63.623047 0)"/>
      </g>
     </g>
    </g>
    <g id="ytick_3">
     <g id="line2d_6">
      <path d="M 72.615 240.736868 
L 536.488354 240.736868 
" clip-path="url(#p87eabfa587)" style="fill: none; stroke: #cccccc; stroke-opacity: 0.3; stroke-width: 1.5; stroke-linecap: round"/>
     </g>
     <g id="text_7">
      <!-- 40 -->
      <g style="fill: #262626" transform="translate(39.11875 247.005579) scale(0.165 -0.165)">
       <defs>
        <path id="DejaVuSans-34" d="M 2419 4116 
L 825 1625 
L 2419 1625 
L 2419 4116 
z
M 2253 4666 
L 3047 4666 
L 3047 1625 
L 3713 1625 
L 3713 1100 
L 3047 1100 
L 3047 0 
L 2419 0 
L 2419 1100 
L 313 1100 
L 313 1709 
L 2253 4666 
z
" transform="scale(0.015625)"/>
       </defs>
       <use xlink:href="#DejaVuSans-34"/>
       <use xlink:href="#DejaVuSans-30" transform="translate(63.623047 0)"/>
      </g>
     </g>
    </g>
    <g id="ytick_4">
     <g id="line2d_7">
      <path d="M 72.615 169.450308 
L 536.488354 169.450308 
" clip-path="url(#p87eabfa587)" style="fill: none; stroke: #cccccc; stroke-opacity: 0.3; stroke-width: 1.5; stroke-linecap: round"/>
     </g>
     <g id="text_8">
      <!-- 60 -->
      <g style="fill: #262626" transform="translate(39.11875 175.719019) scale(0.165 -0.165)">
       <defs>
        <path id="DejaVuSans-36" d="M 2113 2584 
Q 1688 2584 1439 2293 
Q 1191 2003 1191 1497 
Q 1191 994 1439 701 
Q 1688 409 2113 409 
Q 2538 409 2786 701 
Q 3034 994 3034 1497 
Q 3034 2003 2786 2293 
Q 2538 2584 2113 2584 
z
M 3366 4563 
L 3366 3988 
Q 3128 4100 2886 4159 
Q 2644 4219 2406 4219 
Q 1781 4219 1451 3797 
Q 1122 3375 1075 2522 
Q 1259 2794 1537 2939 
Q 1816 3084 2150 3084 
Q 2853 3084 3261 2657 
Q 3669 2231 3669 1497 
Q 3669 778 3244 343 
Q 2819 -91 2113 -91 
Q 1303 -91 875 529 
Q 447 1150 447 2328 
Q 447 3434 972 4092 
Q 1497 4750 2381 4750 
Q 2619 4750 2861 4703 
Q 3103 4656 3366 4563 
z
" transform="scale(0.015625)"/>
       </defs>
       <use xlink:href="#DejaVuSans-36"/>
       <use xlink:href="#DejaVuSans-30" transform="translate(63.623047 0)"/>
      </g>
     </g>
    </g>
    <g id="ytick_5">
     <g id="line2d_8">
      <path d="M 72.615 98.163748 
L 536.488354 98.163748 
" clip-path="url(#p87eabfa587)" style="fill: none; stroke: #cccccc; stroke-opacity: 0.3; stroke-width: 1.5; stroke-linecap: round"/>
     </g>
     <g id="text_9">
      <!-- 80 -->
      <g style="fill: #262626" transform="translate(39.11875 104.432459) scale(0.165 -0.165)">
       <defs>
        <path id="DejaVuSans-38" d="M 2034 2216 
Q 1584 2216 1326 1975 
Q 1069 1734 1069 1313 
Q 1069 891 1326 650 
Q 1584 409 2034 409 
Q 2484 409 2743 651 
Q 3003 894 3003 1313 
Q 3003 1734 2745 1975 
Q 2488 2216 2034 2216 
z
M 1403 2484 
Q 997 2584 770 2862 
Q 544 3141 544 3541 
Q 544 4100 942 4425 
Q 1341 4750 2034 4750 
Q 2731 4750 3128 4425 
Q 3525 4100 3525 3541 
Q 3525 3141 3298 2862 
Q 3072 2584 2669 2484 
Q 3125 2378 3379 2068 
Q 3634 1759 3634 1313 
Q 3634 634 3220 271 
Q 2806 -91 2034 -91 
Q 1263 -91 848 271 
Q 434 634 434 1313 
Q 434 1759 690 2068 
Q 947 2378 1403 2484 
z
M 1172 3481 
Q 1172 3119 1398 2916 
Q 1625 2713 2034 2713 
Q 2441 2713 2670 2916 
Q 2900 3119 2900 3481 
Q 2900 3844 2670 4047 
Q 2441 4250 2034 4250 
Q 1625 4250 1398 4047 
Q 1172 3844 1172 3481 
z
" transform="scale(0.015625)"/>
       </defs>
       <use xlink:href="#DejaVuSans-38"/>
       <use xlink:href="#DejaVuSans-30" transform="translate(63.623047 0)"/>
      </g>
     </g>
    </g>
    <g id="ytick_6">
     <g id="line2d_9">
      <path d="M 72.615 26.877187 
L 536.488354 26.877187 
" clip-path="url(#p87eabfa587)" style="fill: none; stroke: #cccccc; stroke-opacity: 0.3; stroke-width: 1.5; stroke-linecap: round"/>
     </g>
     <g id="text_10">
      <!-- 100 -->
      <g style="fill: #262626" transform="translate(28.620625 33.145898) scale(0.165 -0.165)">
       <defs>
        <path id="DejaVuSans-31" d="M 794 531 
L 1825 531 
L 1825 4091 
L 703 3866 
L 703 4441 
L 1819 4666 
L 2450 4666 
L 2450 531 
L 3481 531 
L 3481 0 
L 794 0 
L 794 531 
z
" transform="scale(0.015625)"/>
       </defs>
       <use xlink:href="#DejaVuSans-31"/>
       <use xlink:href="#DejaVuSans-30" transform="translate(63.623047 0)"/>
       <use xlink:href="#DejaVuSans-30" transform="translate(127.246094 0)"/>
      </g>
     </g>
    </g>
    <g id="text_11">
     <!-- Accuracy (%) -->
     <g style="fill: #262626" transform="translate(20.877188 264.618744) rotate(-90) scale(0.18 -0.18)">
      <defs>
       <path id="DejaVuSans-63" d="M 3122 3366 
L 3122 2828 
Q 2878 2963 2633 3030 
Q 2388 3097 2138 3097 
Q 1578 3097 1268 2742 
Q 959 2388 959 1747 
Q 959 1106 1268 751 
Q 1578 397 2138 397 
Q 2388 397 2633 464 
Q 2878 531 3122 666 
L 3122 134 
Q 2881 22 2623 -34 
Q 2366 -91 2075 -91 
Q 1284 -91 818 406 
Q 353 903 353 1747 
Q 353 2603 823 3093 
Q 1294 3584 2113 3584 
Q 2378 3584 2631 3529 
Q 2884 3475 3122 3366 
z
" transform="scale(0.015625)"/>
       <path id="DejaVuSans-75" d="M 544 1381 
L 544 3500 
L 1119 3500 
L 1119 1403 
Q 1119 906 1312 657 
Q 1506 409 1894 409 
Q 2359 409 2629 706 
Q 2900 1003 2900 1516 
L 2900 3500 
L 3475 3500 
L 3475 0 
L 2900 0 
L 2900 538 
Q 2691 219 2414 64 
Q 2138 -91 1772 -91 
Q 1169 -91 856 284 
Q 544 659 544 1381 
z
M 1991 3584 
L 1991 3584 
z
" transform="scale(0.015625)"/>
       <path id="DejaVuSans-72" d="M 2631 2963 
Q 2534 3019 2420 3045 
Q 2306 3072 2169 3072 
Q 1681 3072 1420 2755 
Q 1159 2438 1159 1844 
L 1159 0 
L 581 0 
L 581 3500 
L 1159 3500 
L 1159 2956 
Q 1341 3275 1631 3429 
Q 1922 3584 2338 3584 
Q 2397 3584 2469 3576 
Q 2541 3569 2628 3553 
L 2631 2963 
z
" transform="scale(0.015625)"/>
       <path id="DejaVuSans-79" d="M 2059 -325 
Q 1816 -950 1584 -1140 
Q 1353 -1331 966 -1331 
L 506 -1331 
L 506 -850 
L 844 -850 
Q 1081 -850 1212 -737 
Q 1344 -625 1503 -206 
L 1606 56 
L 191 3500 
L 800 3500 
L 1894 763 
L 2988 3500 
L 3597 3500 
L 2059 -325 
z
" transform="scale(0.015625)"/>
       <path id="DejaVuSans-20" transform="scale(0.015625)"/>
       <path id="DejaVuSans-28" d="M 1984 4856 
Q 1566 4138 1362 3434 
Q 1159 2731 1159 2009 
Q 1159 1288 1364 580 
Q 1569 -128 1984 -844 
L 1484 -844 
Q 1016 -109 783 600 
Q 550 1309 550 2009 
Q 550 2706 781 3412 
Q 1013 4119 1484 4856 
L 1984 4856 
z
" transform="scale(0.015625)"/>
       <path id="DejaVuSans-25" d="M 4653 2053 
Q 4381 2053 4226 1822 
Q 4072 1591 4072 1178 
Q 4072 772 4226 539 
Q 4381 306 4653 306 
Q 4919 306 5073 539 
Q 5228 772 5228 1178 
Q 5228 1588 5073 1820 
Q 4919 2053 4653 2053 
z
M 4653 2450 
Q 5147 2450 5437 2106 
Q 5728 1763 5728 1178 
Q 5728 594 5436 251 
Q 5144 -91 4653 -91 
Q 4153 -91 3862 251 
Q 3572 594 3572 1178 
Q 3572 1766 3864 2108 
Q 4156 2450 4653 2450 
z
M 1428 4353 
Q 1159 4353 1004 4120 
Q 850 3888 850 3481 
Q 850 3069 1003 2837 
Q 1156 2606 1428 2606 
Q 1700 2606 1854 2837 
Q 2009 3069 2009 3481 
Q 2009 3884 1853 4118 
Q 1697 4353 1428 4353 
z
M 4250 4750 
L 4750 4750 
L 1831 -91 
L 1331 -91 
L 4250 4750 
z
M 1428 4750 
Q 1922 4750 2215 4408 
Q 2509 4066 2509 3481 
Q 2509 2891 2217 2550 
Q 1925 2209 1428 2209 
Q 931 2209 642 2551 
Q 353 2894 353 3481 
Q 353 4063 643 4406 
Q 934 4750 1428 4750 
z
" transform="scale(0.015625)"/>
       <path id="DejaVuSans-29" d="M 513 4856 
L 1013 4856 
Q 1481 4119 1714 3412 
Q 1947 2706 1947 2009 
Q 1947 1309 1714 600 
Q 1481 -109 1013 -844 
L 513 -844 
Q 928 -128 1133 580 
Q 1338 1288 1338 2009 
Q 1338 2731 1133 3434 
Q 928 4138 513 4856 
z
" transform="scale(0.015625)"/>
      </defs>
      <use xlink:href="#DejaVuSans-41"/>
      <use xlink:href="#DejaVuSans-63" transform="translate(66.658203 0)"/>
      <use xlink:href="#DejaVuSans-63" transform="translate(121.638672 0)"/>
      <use xlink:href="#DejaVuSans-75" transform="translate(176.619141 0)"/>
      <use xlink:href="#DejaVuSans-72" transform="translate(239.998047 0)"/>
      <use xlink:href="#DejaVuSans-61" transform="translate(281.111328 0)"/>
      <use xlink:href="#DejaVuSans-63" transform="translate(342.390625 0)"/>
      <use xlink:href="#DejaVuSans-79" transform="translate(397.371094 0)"/>
      <use xlink:href="#DejaVuSans-20" transform="translate(456.550781 0)"/>
      <use xlink:href="#DejaVuSans-28" transform="translate(488.337891 0)"/>
      <use xlink:href="#DejaVuSans-25" transform="translate(527.351562 0)"/>
      <use xlink:href="#DejaVuSans-29" transform="translate(622.371094 0)"/>
     </g>
    </g>
   </g>
   <g id="patch_3">
    <path d="M 93.700152 383.309989 
L 214.186738 383.309989 
L 214.186738 193.561007 
L 93.700152 193.561007 
z
" clip-path="url(#p87eabfa587)" style="fill: #4c78a8; stroke: #ffffff; stroke-width: 1.5; stroke-linejoin: miter"/>
   </g>
   <g id="patch_4">
    <path d="M 244.308384 383.309989 
L 364.79497 383.309989 
L 364.79497 150.884119 
L 244.308384 150.884119 
z
" clip-path="url(#p87eabfa587)" style="fill: #59a14f; stroke: #ffffff; stroke-width: 1.5; stroke-linejoin: miter"/>
   </g>
   <g id="patch_5">
    <path d="M 394.916616 383.309989 
L 515.403201 383.309989 
L 515.403201 162.202841 
L 394.916616 162.202841 
z
" clip-path="url(#p87eabfa587)" style="fill: #e15759; stroke: #ffffff; stroke-width: 1.5; stroke-linejoin: miter"/>
   </g>
   <g id="LineCollection_1">
    <path d="M 153.943445 215.819089 
L 153.943445 171.302925 
" clip-path="url(#p87eabfa587)" style="fill: none; stroke: #1a1a1a; stroke-width: 2.25"/>
    <path d="M 304.551677 180.534435 
L 304.551677 121.233804 
" clip-path="url(#p87eabfa587)" style="fill: none; stroke: #1a1a1a; stroke-width: 2.25"/>
    <path d="M 455.159909 188.582795 
L 455.159909 135.822887 
" clip-path="url(#p87eabfa587)" style="fill: none; stroke: #1a1a1a; stroke-width: 2.25"/>
   </g>
   <g id="line2d_10">
    <defs>
     <path id="m0d32ab7ff0" d="M 5 0 
L -5 -0 
" style="stroke: #1a1a1a"/>
    </defs>
    <g clip-path="url(#p87eabfa587)">
     <use xlink:href="#m0d32ab7ff0" x="153.943445" y="215.819089" style="fill: #0173b2; stroke: #1a1a1a"/>
     <use xlink:href="#m0d32ab7ff0" x="304.551677" y="180.534435" style="fill: #0173b2; stroke: #1a1a1a"/>
     <use xlink:href="#m0d32ab7ff0" x="455.159909" y="188.582795" style="fill: #0173b2; stroke: #1a1a1a"/>
    </g>
   </g>
   <g id="line2d_11">
    <g clip-path="url(#p87eabfa587)">
     <use xlink:href="#m0d32ab7ff0" x="153.943445" y="171.302925" style="fill: #0173b2; stroke: #1a1a1a"/>
     <use xlink:href="#m0d32ab7ff0" x="304.551677" y="121.233804" style="fill: #0173b2; stroke: #1a1a1a"/>
     <use xlink:href="#m0d32ab7ff0" x="455.159909" y="135.822887" style="fill: #0173b2; stroke: #1a1a1a"/>
    </g>
   </g>
   <g id="patch_6">
    <path d="M 72.615 383.309989 
L 72.615 26.877187 
" style="fill: none; stroke: #cccccc; stroke-width: 1.875; stroke-linejoin: miter; stroke-linecap: square"/>
   </g>
   <g id="patch_7">
    <path d="M 536.488354 383.309989 
L 536.488354 26.877187 
" style="fill: none; stroke: #cccccc; stroke-width: 1.875; stroke-linejoin: miter; stroke-linecap: square"/>
   </g>
   <g id="patch_8">
    <path d="M 72.615 383.309989 
L 536.488354 383.309989 
" style="fill: none; stroke: #cccccc; stroke-width: 1.875; stroke-linejoin: miter; stroke-linecap: square"/>
   </g>
   <g id="patch_9">
    <path d="M 72.615 26.877187 
L 536.488354 26.877187 
" style="fill: none; stroke: #cccccc; stroke-width: 1.875; stroke-linejoin: miter; stroke-linecap: square"/>
   </g>
   <g id="text_12">
    <g id="patch_10">
     <path d="M 81.892467 372.724395 
L 372.079186 372.724395 
Q 373.879186 372.724395 373.879186 370.924395 
L 373.879186 362.214083 
Q 373.879186 360.414083 372.079186 360.414083 
L 81.892467 360.414083 
Q 80.092467 360.414083 80.092467 362.214083 
L 80.092467 370.924395 
Q 80.092467 372.724395 81.892467 372.724395 
z
" style="fill: #ffffff; opacity: 0.65; stroke: #ffffff; stroke-width: 1.5; stroke-linejoin: miter"/>
    </g>
    <!-- Anchor run: Baseline 37.46% -&gt; ViTTA 45.79% -&gt; RMGA 45.34% -->
    <g style="fill: #262626" transform="translate(81.892467 369.052677) scale(0.09 -0.09)">
     <defs>
      <path id="DejaVuSans-3a" d="M 750 794 
L 1409 794 
L 1409 0 
L 750 0 
L 750 794 
z
M 750 3309 
L 1409 3309 
L 1409 2516 
L 750 2516 
L 750 3309 
z
" transform="scale(0.015625)"/>
      <path id="DejaVuSans-33" d="M 2597 2516 
Q 3050 2419 3304 2112 
Q 3559 1806 3559 1356 
Q 3559 666 3084 287 
Q 2609 -91 1734 -91 
Q 1441 -91 1130 -33 
Q 819 25 488 141 
L 488 750 
Q 750 597 1062 519 
Q 1375 441 1716 441 
Q 2309 441 2620 675 
Q 2931 909 2931 1356 
Q 2931 1769 2642 2001 
Q 2353 2234 1838 2234 
L 1294 2234 
L 1294 2753 
L 1863 2753 
Q 2328 2753 2575 2939 
Q 2822 3125 2822 3475 
Q 2822 3834 2567 4026 
Q 2313 4219 1838 4219 
Q 1578 4219 1281 4162 
Q 984 4106 628 3988 
L 628 4550 
Q 988 4650 1302 4700 
Q 1616 4750 1894 4750 
Q 2613 4750 3031 4423 
Q 3450 4097 3450 3541 
Q 3450 3153 3228 2886 
Q 3006 2619 2597 2516 
z
" transform="scale(0.015625)"/>
      <path id="DejaVuSans-37" d="M 525 4666 
L 3525 4666 
L 3525 4397 
L 1831 0 
L 1172 0 
L 2766 4134 
L 525 4134 
L 525 4666 
z
" transform="scale(0.015625)"/>
      <path id="DejaVuSans-2e" d="M 684 794 
L 1344 794 
L 1344 0 
L 684 0 
L 684 794 
z
" transform="scale(0.015625)"/>
      <path id="DejaVuSans-2d" d="M 313 2009 
L 1997 2009 
L 1997 1497 
L 313 1497 
L 313 2009 
z
" transform="scale(0.015625)"/>
      <path id="DejaVuSans-3e" d="M 678 3150 
L 678 3719 
L 4684 2266 
L 4684 1747 
L 678 294 
L 678 863 
L 3897 2003 
L 678 3150 
z
" transform="scale(0.015625)"/>
      <path id="DejaVuSans-35" d="M 691 4666 
L 3169 4666 
L 3169 4134 
L 1269 4134 
L 1269 2991 
Q 1406 3038 1543 3061 
Q 1681 3084 1819 3084 
Q 2600 3084 3056 2656 
Q 3513 2228 3513 1497 
Q 3513 744 3044 326 
Q 2575 -91 1722 -91 
Q 1428 -91 1123 -41 
Q 819 9 494 109 
L 494 744 
Q 775 591 1075 516 
Q 1375 441 1709 441 
Q 2250 441 2565 725 
Q 2881 1009 2881 1497 
Q 2881 1984 2565 2268 
Q 2250 2553 1709 2553 
Q 1456 2553 1204 2497 
Q 953 2441 691 2322 
L 691 4666 
z
" transform="scale(0.015625)"/>
      <path id="DejaVuSans-39" d="M 703 97 
L 703 672 
Q 941 559 1184 500 
Q 1428 441 1663 441 
Q 2288 441 2617 861 
Q 2947 1281 2994 2138 
Q 2813 1869 2534 1725 
Q 2256 1581 1919 1581 
Q 1219 1581 811 2004 
Q 403 2428 403 3163 
Q 403 3881 828 4315 
Q 1253 4750 1959 4750 
Q 2769 4750 3195 4129 
Q 3622 3509 3622 2328 
Q 3622 1225 3098 567 
Q 2575 -91 1691 -91 
Q 1453 -91 1209 -44 
Q 966 3 703 97 
z
M 1959 2075 
Q 2384 2075 2632 2365 
Q 2881 2656 2881 3163 
Q 2881 3666 2632 3958 
Q 2384 4250 1959 4250 
Q 1534 4250 1286 3958 
Q 1038 3666 1038 3163 
Q 1038 2656 1286 2365 
Q 1534 2075 1959 2075 
z
" transform="scale(0.015625)"/>
     </defs>
     <use xlink:href="#DejaVuSans-41"/>
     <use xlink:href="#DejaVuSans-6e" transform="translate(68.408203 0)"/>
     <use xlink:href="#DejaVuSans-63" transform="translate(131.787109 0)"/>
     <use xlink:href="#DejaVuSans-68" transform="translate(186.767578 0)"/>
     <use xlink:href="#DejaVuSans-6f" transform="translate(250.146484 0)"/>
     <use xlink:href="#DejaVuSans-72" transform="translate(311.328125 0)"/>
     <use xlink:href="#DejaVuSans-20" transform="translate(352.441406 0)"/>
     <use xlink:href="#DejaVuSans-72" transform="translate(384.228516 0)"/>
     <use xlink:href="#DejaVuSans-75" transform="translate(425.341797 0)"/>
     <use xlink:href="#DejaVuSans-6e" transform="translate(488.720703 0)"/>
     <use xlink:href="#DejaVuSans-3a" transform="translate(552.099609 0)"/>
     <use xlink:href="#DejaVuSans-20" transform="translate(585.791016 0)"/>
     <use xlink:href="#DejaVuSans-42" transform="translate(617.578125 0)"/>
     <use xlink:href="#DejaVuSans-61" transform="translate(686.181641 0)"/>
     <use xlink:href="#DejaVuSans-73" transform="translate(747.460938 0)"/>
     <use xlink:href="#DejaVuSans-65" transform="translate(799.560547 0)"/>
     <use xlink:href="#DejaVuSans-6c" transform="translate(861.083984 0)"/>
     <use xlink:href="#DejaVuSans-69" transform="translate(888.867188 0)"/>
     <use xlink:href="#DejaVuSans-6e" transform="translate(916.650391 0)"/>
     <use xlink:href="#DejaVuSans-65" transform="translate(980.029297 0)"/>
     <use xlink:href="#DejaVuSans-20" transform="translate(1041.552734 0)"/>
     <use xlink:href="#DejaVuSans-33" transform="translate(1073.339844 0)"/>
     <use xlink:href="#DejaVuSans-37" transform="translate(1136.962891 0)"/>
     <use xlink:href="#DejaVuSans-2e" transform="translate(1200.585938 0)"/>
     <use xlink:href="#DejaVuSans-34" transform="translate(1232.373047 0)"/>
     <use xlink:href="#DejaVuSans-36" transform="translate(1295.996094 0)"/>
     <use xlink:href="#DejaVuSans-25" transform="translate(1359.619141 0)"/>
     <use xlink:href="#DejaVuSans-20" transform="translate(1454.638672 0)"/>
     <use xlink:href="#DejaVuSans-2d" transform="translate(1486.425781 0)"/>
     <use xlink:href="#DejaVuSans-3e" transform="translate(1522.509766 0)"/>
     <use xlink:href="#DejaVuSans-20" transform="translate(1606.298828 0)"/>
     <use xlink:href="#DejaVuSans-56" transform="translate(1638.085938 0)"/>
     <use xlink:href="#DejaVuSans-69" transform="translate(1704.244141 0)"/>
     <use xlink:href="#DejaVuSans-54" transform="translate(1732.027344 0)"/>
     <use xlink:href="#DejaVuSans-54" transform="translate(1791.361328 0)"/>
     <use xlink:href="#DejaVuSans-41" transform="translate(1844.695312 0)"/>
     <use xlink:href="#DejaVuSans-20" transform="translate(1913.103516 0)"/>
     <use xlink:href="#DejaVuSans-34" transform="translate(1944.890625 0)"/>
     <use xlink:href="#DejaVuSans-35" transform="translate(2008.513672 0)"/>
     <use xlink:href="#DejaVuSans-2e" transform="translate(2072.136719 0)"/>
     <use xlink:href="#DejaVuSans-37" transform="translate(2103.923828 0)"/>
     <use xlink:href="#DejaVuSans-39" transform="translate(2167.546875 0)"/>
     <use xlink:href="#DejaVuSans-25" transform="translate(2231.169922 0)"/>
     <use xlink:href="#DejaVuSans-20" transform="translate(2326.189453 0)"/>
     <use xlink:href="#DejaVuSans-2d" transform="translate(2357.976562 0)"/>
     <use xlink:href="#DejaVuSans-3e" transform="translate(2394.060547 0)"/>
     <use xlink:href="#DejaVuSans-20" transform="translate(2477.849609 0)"/>
     <use xlink:href="#DejaVuSans-52" transform="translate(2509.636719 0)"/>
     <use xlink:href="#DejaVuSans-4d" transform="translate(2579.119141 0)"/>
     <use xlink:href="#DejaVuSans-47" transform="translate(2665.398438 0)"/>
     <use xlink:href="#DejaVuSans-41" transform="translate(2742.888672 0)"/>
     <use xlink:href="#DejaVuSans-20" transform="translate(2811.296875 0)"/>
     <use xlink:href="#DejaVuSans-34" transform="translate(2843.083984 0)"/>
     <use xlink:href="#DejaVuSans-35" transform="translate(2906.707031 0)"/>
     <use xlink:href="#DejaVuSans-2e" transform="translate(2970.330078 0)"/>
     <use xlink:href="#DejaVuSans-33" transform="translate(3002.117188 0)"/>
     <use xlink:href="#DejaVuSans-34" transform="translate(3065.740234 0)"/>
     <use xlink:href="#DejaVuSans-25" transform="translate(3129.363281 0)"/>
    </g>
   </g>
   <g id="text_13">
    <!-- Adaptation Comparison (Mean Accuracy, 95% CI) -->
    <g style="fill: #262626" transform="translate(82.700271 20.877187) scale(0.18 -0.18)">
     <defs>
      <path id="DejaVuSans-70" d="M 1159 525 
L 1159 -1331 
L 581 -1331 
L 581 3500 
L 1159 3500 
L 1159 2969 
Q 1341 3281 1617 3432 
Q 1894 3584 2278 3584 
Q 2916 3584 3314 3078 
Q 3713 2572 3713 1747 
Q 3713 922 3314 415 
Q 2916 -91 2278 -91 
Q 1894 -91 1617 61 
Q 1341 213 1159 525 
z
M 3116 1747 
Q 3116 2381 2855 2742 
Q 2594 3103 2138 3103 
Q 1681 3103 1420 2742 
Q 1159 2381 1159 1747 
Q 1159 1113 1420 752 
Q 1681 391 2138 391 
Q 2594 391 2855 752 
Q 3116 1113 3116 1747 
z
" transform="scale(0.015625)"/>
      <path id="DejaVuSans-43" d="M 4122 4306 
L 4122 3641 
Q 3803 3938 3442 4084 
Q 3081 4231 2675 4231 
Q 1875 4231 1450 3742 
Q 1025 3253 1025 2328 
Q 1025 1406 1450 917 
Q 1875 428 2675 428 
Q 3081 428 3442 575 
Q 3803 722 4122 1019 
L 4122 359 
Q 3791 134 3420 21 
Q 3050 -91 2638 -91 
Q 1578 -91 968 557 
Q 359 1206 359 2328 
Q 359 3453 968 4101 
Q 1578 4750 2638 4750 
Q 3056 4750 3426 4639 
Q 3797 4528 4122 4306 
z
" transform="scale(0.015625)"/>
      <path id="DejaVuSans-6d" d="M 3328 2828 
Q 3544 3216 3844 3400 
Q 4144 3584 4550 3584 
Q 5097 3584 5394 3201 
Q 5691 2819 5691 2113 
L 5691 0 
L 5113 0 
L 5113 2094 
Q 5113 2597 4934 2840 
Q 4756 3084 4391 3084 
Q 3944 3084 3684 2787 
Q 3425 2491 3425 1978 
L 3425 0 
L 2847 0 
L 2847 2094 
Q 2847 2600 2669 2842 
Q 2491 3084 2119 3084 
Q 1678 3084 1418 2786 
Q 1159 2488 1159 1978 
L 1159 0 
L 581 0 
L 581 3500 
L 1159 3500 
L 1159 2956 
Q 1356 3278 1631 3431 
Q 1906 3584 2284 3584 
Q 2666 3584 2933 3390 
Q 3200 3197 3328 2828 
z
" transform="scale(0.015625)"/>
      <path id="DejaVuSans-2c" d="M 750 794 
L 1409 794 
L 1409 256 
L 897 -744 
L 494 -744 
L 750 256 
L 750 794 
z
" transform="scale(0.015625)"/>
      <path id="DejaVuSans-49" d="M 628 4666 
L 1259 4666 
L 1259 0 
L 628 0 
L 628 4666 
z
" transform="scale(0.015625)"/>
     </defs>
     <use xlink:href="#DejaVuSans-41"/>
     <use xlink:href="#DejaVuSans-64" transform="translate(66.658203 0)"/>
     <use xlink:href="#DejaVuSans-61" transform="translate(130.134766 0)"/>
     <use xlink:href="#DejaVuSans-70" transform="translate(191.414062 0)"/>
     <use xlink:href="#DejaVuSans-74" transform="translate(254.890625 0)"/>
     <use xlink:href="#DejaVuSans-61" transform="translate(294.099609 0)"/>
     <use xlink:href="#DejaVuSans-74" transform="translate(355.378906 0)"/>
     <use xlink:href="#DejaVuSans-69" transform="translate(394.587891 0)"/>
     <use xlink:href="#DejaVuSans-6f" transform="translate(422.371094 0)"/>
     <use xlink:href="#DejaVuSans-6e" transform="translate(483.552734 0)"/>
     <use xlink:href="#DejaVuSans-20" transform="translate(546.931641 0)"/>
     <use xlink:href="#DejaVuSans-43" transform="translate(578.71875 0)"/>
     <use xlink:href="#DejaVuSans-6f" transform="translate(648.542969 0)"/>
     <use xlink:href="#DejaVuSans-6d" transform="translate(709.724609 0)"/>
     <use xlink:href="#DejaVuSans-70" transform="translate(807.136719 0)"/>
     <use xlink:href="#DejaVuSans-61" transform="translate(870.613281 0)"/>
     <use xlink:href="#DejaVuSans-72" transform="translate(931.892578 0)"/>
     <use xlink:href="#DejaVuSans-69" transform="translate(973.005859 0)"/>
     <use xlink:href="#DejaVuSans-73" transform="translate(1000.789062 0)"/>
     <use xlink:href="#DejaVuSans-6f" transform="translate(1052.888672 0)"/>
     <use xlink:href="#DejaVuSans-6e" transform="translate(1114.070312 0)"/>
     <use xlink:href="#DejaVuSans-20" transform="translate(1177.449219 0)"/>
     <use xlink:href="#DejaVuSans-28" transform="translate(1209.236328 0)"/>
     <use xlink:href="#DejaVuSans-4d" transform="translate(1248.25 0)"/>
     <use xlink:href="#DejaVuSans-65" transform="translate(1334.529297 0)"/>
     <use xlink:href="#DejaVuSans-61" transform="translate(1396.052734 0)"/>
     <use xlink:href="#DejaVuSans-6e" transform="translate(1457.332031 0)"/>
     <use xlink:href="#DejaVuSans-20" transform="translate(1520.710938 0)"/>
     <use xlink:href="#DejaVuSans-41" transform="translate(1552.498047 0)"/>
     <use xlink:href="#DejaVuSans-63" transform="translate(1619.15625 0)"/>
     <use xlink:href="#DejaVuSans-63" transform="translate(1674.136719 0)"/>
     <use xlink:href="#DejaVuSans-75" transform="translate(1729.117188 0)"/>
     <use xlink:href="#DejaVuSans-72" transform="translate(1792.496094 0)"/>
     <use xlink:href="#DejaVuSans-61" transform="translate(1833.609375 0)"/>
     <use xlink:href="#DejaVuSans-63" transform="translate(1894.888672 0)"/>
     <use xlink:href="#DejaVuSans-79" transform="translate(1949.869141 0)"/>
     <use xlink:href="#DejaVuSans-2c" transform="translate(2009.048828 0)"/>
     <use xlink:href="#DejaVuSans-20" transform="translate(2040.835938 0)"/>
     <use xlink:href="#DejaVuSans-39" transform="translate(2072.623047 0)"/>
     <use xlink:href="#DejaVuSans-35" transform="translate(2136.246094 0)"/>
     <use xlink:href="#DejaVuSans-25" transform="translate(2199.869141 0)"/>
     <use xlink:href="#DejaVuSans-20" transform="translate(2294.888672 0)"/>
     <use xlink:href="#DejaVuSans-43" transform="translate(2326.675781 0)"/>
     <use xlink:href="#DejaVuSans-49" transform="translate(2396.5 0)"/>
     <use xlink:href="#DejaVuSans-29" transform="translate(2425.992188 0)"/>
    </g>
   </g>
  </g>
  <g id="axes_2">
   <g id="patch_11">
    <path d="M 608.169135 383.309989 
L 1072.042489 383.309989 
L 1072.042489 26.877187 
L 608.169135 26.877187 
z
" style="fill: #ffffff"/>
   </g>
   <g id="matplotlib.axis_3">
    <g id="xtick_4">
     <g id="line2d_12">
      <path d="M 722.966076 383.309989 
L 722.966076 26.877187 
" clip-path="url(#pb813ed58b4)" style="fill: none; stroke: #cccccc; stroke-width: 1.5; stroke-linecap: round"/>
     </g>
     <g id="text_14">
      <!-- ViTTA Entropy -->
      <g style="fill: #262626" transform="translate(665.606662 408.347411) scale(0.165 -0.165)">
       <defs>
        <path id="DejaVuSans-45" d="M 628 4666 
L 3578 4666 
L 3578 4134 
L 1259 4134 
L 1259 2753 
L 3481 2753 
L 3481 2222 
L 1259 2222 
L 1259 531 
L 3634 531 
L 3634 0 
L 628 0 
L 628 4666 
z
" transform="scale(0.015625)"/>
       </defs>
       <use xlink:href="#DejaVuSans-56"/>
       <use xlink:href="#DejaVuSans-69" transform="translate(66.158203 0)"/>
       <use xlink:href="#DejaVuSans-54" transform="translate(93.941406 0)"/>
       <use xlink:href="#DejaVuSans-54" transform="translate(153.275391 0)"/>
       <use xlink:href="#DejaVuSans-41" transform="translate(206.609375 0)"/>
       <use xlink:href="#DejaVuSans-20" transform="translate(275.017578 0)"/>
       <use xlink:href="#DejaVuSans-45" transform="translate(306.804688 0)"/>
       <use xlink:href="#DejaVuSans-6e" transform="translate(369.988281 0)"/>
       <use xlink:href="#DejaVuSans-74" transform="translate(433.367188 0)"/>
       <use xlink:href="#DejaVuSans-72" transform="translate(472.576172 0)"/>
       <use xlink:href="#DejaVuSans-6f" transform="translate(511.439453 0)"/>
       <use xlink:href="#DejaVuSans-70" transform="translate(572.621094 0)"/>
       <use xlink:href="#DejaVuSans-79" transform="translate(636.097656 0)"/>
      </g>
     </g>
    </g>
    <g id="xtick_5">
     <g id="line2d_13">
      <path d="M 957.245548 383.309989 
L 957.245548 26.877187 
" clip-path="url(#pb813ed58b4)" style="fill: none; stroke: #cccccc; stroke-width: 1.5; stroke-linecap: round"/>
     </g>
     <g id="text_15">
      <!-- RMGA Entropy -->
      <g style="fill: #262626" transform="translate(897.686993 408.347411) scale(0.165 -0.165)">
       <use xlink:href="#DejaVuSans-52"/>
       <use xlink:href="#DejaVuSans-4d" transform="translate(69.482422 0)"/>
       <use xlink:href="#DejaVuSans-47" transform="translate(155.761719 0)"/>
       <use xlink:href="#DejaVuSans-41" transform="translate(233.251953 0)"/>
       <use xlink:href="#DejaVuSans-20" transform="translate(301.660156 0)"/>
       <use xlink:href="#DejaVuSans-45" transform="translate(333.447266 0)"/>
       <use xlink:href="#DejaVuSans-6e" transform="translate(396.630859 0)"/>
       <use xlink:href="#DejaVuSans-74" transform="translate(460.009766 0)"/>
       <use xlink:href="#DejaVuSans-72" transform="translate(499.21875 0)"/>
       <use xlink:href="#DejaVuSans-6f" transform="translate(538.082031 0)"/>
       <use xlink:href="#DejaVuSans-70" transform="translate(599.263672 0)"/>
       <use xlink:href="#DejaVuSans-79" transform="translate(662.740234 0)"/>
      </g>
     </g>
    </g>
   </g>
   <g id="matplotlib.axis_4">
    <g id="ytick_7">
     <g id="line2d_14">
      <path d="M 608.169135 383.309989 
L 1072.042489 383.309989 
" clip-path="url(#pb813ed58b4)" style="fill: none; stroke: #cccccc; stroke-opacity: 0.3; stroke-width: 1.5; stroke-linecap: round"/>
     </g>
     <g id="line2d_15">
      <defs>
       <path id="m422444dd35" d="M 0 0 
L -9 0 
" style="stroke: #262626; stroke-width: 1.875"/>
      </defs>
      <g>
       <use xlink:href="#m422444dd35" x="608.169135" y="383.309989" style="fill: #262626; stroke: #262626; stroke-width: 1.875"/>
      </g>
     </g>
     <g id="text_16">
      <!-- 0.0 -->
      <g style="fill: #262626" transform="translate(569.428979 389.5787) scale(0.165 -0.165)">
       <use xlink:href="#DejaVuSans-30"/>
       <use xlink:href="#DejaVuSans-2e" transform="translate(63.623047 0)"/>
       <use xlink:href="#DejaVuSans-30" transform="translate(95.410156 0)"/>
      </g>
     </g>
    </g>
    <g id="ytick_8">
     <g id="line2d_16">
      <path d="M 608.169135 333.995386 
L 1072.042489 333.995386 
" clip-path="url(#pb813ed58b4)" style="fill: none; stroke: #cccccc; stroke-opacity: 0.3; stroke-width: 1.5; stroke-linecap: round"/>
     </g>
     <g id="line2d_17">
      <g>
       <use xlink:href="#m422444dd35" x="608.169135" y="333.995386" style="fill: #262626; stroke: #262626; stroke-width: 1.875"/>
      </g>
     </g>
     <g id="text_17">
      <!-- 0.5 -->
      <g style="fill: #262626" transform="translate(569.428979 340.264097) scale(0.165 -0.165)">
       <use xlink:href="#DejaVuSans-30"/>
       <use xlink:href="#DejaVuSans-2e" transform="translate(63.623047 0)"/>
       <use xlink:href="#DejaVuSans-35" transform="translate(95.410156 0)"/>
      </g>
     </g>
    </g>
    <g id="ytick_9">
     <g id="line2d_18">
      <path d="M 608.169135 284.680782 
L 1072.042489 284.680782 
" clip-path="url(#pb813ed58b4)" style="fill: none; stroke: #cccccc; stroke-opacity: 0.3; stroke-width: 1.5; stroke-linecap: round"/>
     </g>
     <g id="line2d_19">
      <g>
       <use xlink:href="#m422444dd35" x="608.169135" y="284.680782" style="fill: #262626; stroke: #262626; stroke-width: 1.875"/>
      </g>
     </g>
     <g id="text_18">
      <!-- 1.0 -->
      <g style="fill: #262626" transform="translate(569.428979 290.949493) scale(0.165 -0.165)">
       <use xlink:href="#DejaVuSans-31"/>
       <use xlink:href="#DejaVuSans-2e" transform="translate(63.623047 0)"/>
       <use xlink:href="#DejaVuSans-30" transform="translate(95.410156 0)"/>
      </g>
     </g>
    </g>
    <g id="ytick_10">
     <g id="line2d_20">
      <path d="M 608.169135 235.366179 
L 1072.042489 235.366179 
" clip-path="url(#pb813ed58b4)" style="fill: none; stroke: #cccccc; stroke-opacity: 0.3; stroke-width: 1.5; stroke-linecap: round"/>
     </g>
     <g id="line2d_21">
      <g>
       <use xlink:href="#m422444dd35" x="608.169135" y="235.366179" style="fill: #262626; stroke: #262626; stroke-width: 1.875"/>
      </g>
     </g>
     <g id="text_19">
      <!-- 1.5 -->
      <g style="fill: #262626" transform="translate(569.428979 241.63489) scale(0.165 -0.165)">
       <use xlink:href="#DejaVuSans-31"/>
       <use xlink:href="#DejaVuSans-2e" transform="translate(63.623047 0)"/>
       <use xlink:href="#DejaVuSans-35" transform="translate(95.410156 0)"/>
      </g>
     </g>
    </g>
    <g id="ytick_11">
     <g id="line2d_22">
      <path d="M 608.169135 186.051576 
L 1072.042489 186.051576 
" clip-path="url(#pb813ed58b4)" style="fill: none; stroke: #cccccc; stroke-opacity: 0.3; stroke-width: 1.5; stroke-linecap: round"/>
     </g>
     <g id="line2d_23">
      <g>
       <use xlink:href="#m422444dd35" x="608.169135" y="186.051576" style="fill: #262626; stroke: #262626; stroke-width: 1.875"/>
      </g>
     </g>
     <g id="text_20">
      <!-- 2.0 -->
      <g style="fill: #262626" transform="translate(569.428979 192.320287) scale(0.165 -0.165)">
       <use xlink:href="#DejaVuSans-32"/>
       <use xlink:href="#DejaVuSans-2e" transform="translate(63.623047 0)"/>
       <use xlink:href="#DejaVuSans-30" transform="translate(95.410156 0)"/>
      </g>
     </g>
    </g>
    <g id="ytick_12">
     <g id="line2d_24">
      <path d="M 608.169135 136.736973 
L 1072.042489 136.736973 
" clip-path="url(#pb813ed58b4)" style="fill: none; stroke: #cccccc; stroke-opacity: 0.3; stroke-width: 1.5; stroke-linecap: round"/>
     </g>
     <g id="line2d_25">
      <g>
       <use xlink:href="#m422444dd35" x="608.169135" y="136.736973" style="fill: #262626; stroke: #262626; stroke-width: 1.875"/>
      </g>
     </g>
     <g id="text_21">
      <!-- 2.5 -->
      <g style="fill: #262626" transform="translate(569.428979 143.005684) scale(0.165 -0.165)">
       <use xlink:href="#DejaVuSans-32"/>
       <use xlink:href="#DejaVuSans-2e" transform="translate(63.623047 0)"/>
       <use xlink:href="#DejaVuSans-35" transform="translate(95.410156 0)"/>
      </g>
     </g>
    </g>
    <g id="ytick_13">
     <g id="line2d_26">
      <path d="M 608.169135 87.42237 
L 1072.042489 87.42237 
" clip-path="url(#pb813ed58b4)" style="fill: none; stroke: #cccccc; stroke-opacity: 0.3; stroke-width: 1.5; stroke-linecap: round"/>
     </g>
     <g id="line2d_27">
      <g>
       <use xlink:href="#m422444dd35" x="608.169135" y="87.42237" style="fill: #262626; stroke: #262626; stroke-width: 1.875"/>
      </g>
     </g>
     <g id="text_22">
      <!-- 3.0 -->
      <g style="fill: #262626" transform="translate(569.428979 93.691081) scale(0.165 -0.165)">
       <use xlink:href="#DejaVuSans-33"/>
       <use xlink:href="#DejaVuSans-2e" transform="translate(63.623047 0)"/>
       <use xlink:href="#DejaVuSans-30" transform="translate(95.410156 0)"/>
      </g>
     </g>
    </g>
    <g id="ytick_14">
     <g id="line2d_28">
      <path d="M 608.169135 38.107766 
L 1072.042489 38.107766 
" clip-path="url(#pb813ed58b4)" style="fill: none; stroke: #cccccc; stroke-opacity: 0.3; stroke-width: 1.5; stroke-linecap: round"/>
     </g>
     <g id="line2d_29">
      <g>
       <use xlink:href="#m422444dd35" x="608.169135" y="38.107766" style="fill: #262626; stroke: #262626; stroke-width: 1.875"/>
      </g>
     </g>
     <g id="text_23">
      <!-- 3.5 -->
      <g style="fill: #262626" transform="translate(569.428979 44.376477) scale(0.165 -0.165)">
       <use xlink:href="#DejaVuSans-33"/>
       <use xlink:href="#DejaVuSans-2e" transform="translate(63.623047 0)"/>
       <use xlink:href="#DejaVuSans-35" transform="translate(95.410156 0)"/>
      </g>
     </g>
    </g>
    <g id="text_24">
     <!-- Mean Entropy -->
     <g style="fill: #262626" transform="translate(561.685541 267.439682) rotate(-90) scale(0.18 -0.18)">
      <use xlink:href="#DejaVuSans-4d"/>
      <use xlink:href="#DejaVuSans-65" transform="translate(86.279297 0)"/>
      <use xlink:href="#DejaVuSans-61" transform="translate(147.802734 0)"/>
      <use xlink:href="#DejaVuSans-6e" transform="translate(209.082031 0)"/>
      <use xlink:href="#DejaVuSans-20" transform="translate(272.460938 0)"/>
      <use xlink:href="#DejaVuSans-45" transform="translate(304.248047 0)"/>
      <use xlink:href="#DejaVuSans-6e" transform="translate(367.431641 0)"/>
      <use xlink:href="#DejaVuSans-74" transform="translate(430.810547 0)"/>
      <use xlink:href="#DejaVuSans-72" transform="translate(470.019531 0)"/>
      <use xlink:href="#DejaVuSans-6f" transform="translate(508.882812 0)"/>
      <use xlink:href="#DejaVuSans-70" transform="translate(570.064453 0)"/>
      <use xlink:href="#DejaVuSans-79" transform="translate(633.541016 0)"/>
     </g>
    </g>
   </g>
   <g id="patch_12">
    <path d="M 629.254287 383.309989 
L 816.677865 383.309989 
L 816.677865 43.850178 
L 629.254287 43.850178 
z
" clip-path="url(#pb813ed58b4)" style="fill: #76b7b2; stroke: #ffffff; stroke-width: 1.5; stroke-linejoin: miter"/>
   </g>
   <g id="patch_13">
    <path d="M 863.533759 383.309989 
L 1050.957336 383.309989 
L 1050.957336 76.026313 
L 863.533759 76.026313 
z
" clip-path="url(#pb813ed58b4)" style="fill: #e15759; stroke: #ffffff; stroke-width: 1.5; stroke-linejoin: miter"/>
   </g>
   <g id="patch_14">
    <path d="M 608.169135 383.309989 
L 608.169135 26.877187 
" style="fill: none; stroke: #cccccc; stroke-width: 1.875; stroke-linejoin: miter; stroke-linecap: square"/>
   </g>
   <g id="patch_15">
    <path d="M 1072.042489 383.309989 
L 1072.042489 26.877187 
" style="fill: none; stroke: #cccccc; stroke-width: 1.875; stroke-linejoin: miter; stroke-linecap: square"/>
   </g>
   <g id="patch_16">
    <path d="M 608.169135 383.309989 
L 1072.042489 383.309989 
" style="fill: none; stroke: #cccccc; stroke-width: 1.875; stroke-linejoin: miter; stroke-linecap: square"/>
   </g>
   <g id="patch_17">
    <path d="M 608.169135 26.877187 
L 1072.042489 26.877187 
" style="fill: none; stroke: #cccccc; stroke-width: 1.875; stroke-linejoin: miter; stroke-linecap: square"/>
   </g>
   <g id="text_25">
    <!-- Adaptation Diagnostics -->
    <g style="fill: #262626" transform="translate(735.797218 20.877187) scale(0.18 -0.18)">
     <defs>
      <path id="DejaVuSans-44" d="M 1259 4147 
L 1259 519 
L 2022 519 
Q 2988 519 3436 956 
Q 3884 1394 3884 2338 
Q 3884 3275 3436 3711 
Q 2988 4147 2022 4147 
L 1259 4147 
z
M 628 4666 
L 1925 4666 
Q 3281 4666 3915 4102 
Q 4550 3538 4550 2338 
Q 4550 1131 3912 565 
Q 3275 0 1925 0 
L 628 0 
L 628 4666 
z
" transform="scale(0.015625)"/>
      <path id="DejaVuSans-67" d="M 2906 1791 
Q 2906 2416 2648 2759 
Q 2391 3103 1925 3103 
Q 1463 3103 1205 2759 
Q 947 2416 947 1791 
Q 947 1169 1205 825 
Q 1463 481 1925 481 
Q 2391 481 2648 825 
Q 2906 1169 2906 1791 
z
M 3481 434 
Q 3481 -459 3084 -895 
Q 2688 -1331 1869 -1331 
Q 1566 -1331 1297 -1286 
Q 1028 -1241 775 -1147 
L 775 -588 
Q 1028 -725 1275 -790 
Q 1522 -856 1778 -856 
Q 2344 -856 2625 -561 
Q 2906 -266 2906 331 
L 2906 616 
Q 2728 306 2450 153 
Q 2172 0 1784 0 
Q 1141 0 747 490 
Q 353 981 353 1791 
Q 353 2603 747 3093 
Q 1141 3584 1784 3584 
Q 2172 3584 2450 3431 
Q 2728 3278 2906 2969 
L 2906 3500 
L 3481 3500 
L 3481 434 
z
" transform="scale(0.015625)"/>
     </defs>
     <use xlink:href="#DejaVuSans-41"/>
     <use xlink:href="#DejaVuSans-64" transform="translate(66.658203 0)"/>
     <use xlink:href="#DejaVuSans-61" transform="translate(130.134766 0)"/>
     <use xlink:href="#DejaVuSans-70" transform="translate(191.414062 0)"/>
     <use xlink:href="#DejaVuSans-74" transform="translate(254.890625 0)"/>
     <use xlink:href="#DejaVuSans-61" transform="translate(294.099609 0)"/>
     <use xlink:href="#DejaVuSans-74" transform="translate(355.378906 0)"/>
     <use xlink:href="#DejaVuSans-69" transform="translate(394.587891 0)"/>
     <use xlink:href="#DejaVuSans-6f" transform="translate(422.371094 0)"/>
     <use xlink:href="#DejaVuSans-6e" transform="translate(483.552734 0)"/>
     <use xlink:href="#DejaVuSans-20" transform="translate(546.931641 0)"/>
     <use xlink:href="#DejaVuSans-44" transform="translate(578.71875 0)"/>
     <use xlink:href="#DejaVuSans-69" transform="translate(655.720703 0)"/>
     <use xlink:href="#DejaVuSans-61" transform="translate(683.503906 0)"/>
     <use xlink:href="#DejaVuSans-67" transform="translate(744.783203 0)"/>
     <use xlink:href="#DejaVuSans-6e" transform="translate(808.259766 0)"/>
     <use xlink:href="#DejaVuSans-6f" transform="translate(871.638672 0)"/>
     <use xlink:href="#DejaVuSans-73" transform="translate(932.820312 0)"/>
     <use xlink:href="#DejaVuSans-74" transform="translate(984.919922 0)"/>
     <use xlink:href="#DejaVuSans-69" transform="translate(1024.128906 0)"/>
     <use xlink:href="#DejaVuSans-63" transform="translate(1051.912109 0)"/>
     <use xlink:href="#DejaVuSans-73" transform="translate(1106.892578 0)"/>
    </g>
   </g>
  </g>
  <g id="axes_3">
   <g id="matplotlib.axis_5">
    <g id="ytick_15">
     <g id="line2d_30">
      <path d="M 608.169135 344.62796 
L 1072.042489 344.62796 
" clip-path="url(#pb813ed58b4)" style="fill: none; stroke: #cccccc; stroke-width: 1.5; stroke-linecap: round"/>
     </g>
     <g id="line2d_31">
      <defs>
       <path id="m4b88e000fe" d="M 0 0 
L 9 0 
" style="stroke: #262626; stroke-width: 1.875"/>
      </defs>
      <g>
       <use xlink:href="#m4b88e000fe" x="1072.042489" y="344.62796" style="fill: #262626; stroke: #262626; stroke-width: 1.875"/>
      </g>
     </g>
     <g id="text_26">
      <!-- 0.260 -->
      <g style="fill: #262626" transform="translate(1084.542489 350.896671) scale(0.165 -0.165)">
       <use xlink:href="#DejaVuSans-30"/>
       <use xlink:href="#DejaVuSans-2e" transform="translate(63.623047 0)"/>
       <use xlink:href="#DejaVuSans-32" transform="translate(95.410156 0)"/>
       <use xlink:href="#DejaVuSans-36" transform="translate(159.033203 0)"/>
       <use xlink:href="#DejaVuSans-30" transform="translate(222.65625 0)"/>
      </g>
     </g>
    </g>
    <g id="ytick_16">
     <g id="line2d_32">
      <path d="M 608.169135 284.997887 
L 1072.042489 284.997887 
" clip-path="url(#pb813ed58b4)" style="fill: none; stroke: #cccccc; stroke-width: 1.5; stroke-linecap: round"/>
     </g>
     <g id="line2d_33">
      <g>
       <use xlink:href="#m4b88e000fe" x="1072.042489" y="284.997887" style="fill: #262626; stroke: #262626; stroke-width: 1.875"/>
      </g>
     </g>
     <g id="text_27">
      <!-- 0.265 -->
      <g style="fill: #262626" transform="translate(1084.542489 291.266598) scale(0.165 -0.165)">
       <use xlink:href="#DejaVuSans-30"/>
       <use xlink:href="#DejaVuSans-2e" transform="translate(63.623047 0)"/>
       <use xlink:href="#DejaVuSans-32" transform="translate(95.410156 0)"/>
       <use xlink:href="#DejaVuSans-36" transform="translate(159.033203 0)"/>
       <use xlink:href="#DejaVuSans-35" transform="translate(222.65625 0)"/>
      </g>
     </g>
    </g>
    <g id="ytick_17">
     <g id="line2d_34">
      <path d="M 608.169135 225.367813 
L 1072.042489 225.367813 
" clip-path="url(#pb813ed58b4)" style="fill: none; stroke: #cccccc; stroke-width: 1.5; stroke-linecap: round"/>
     </g>
     <g id="line2d_35">
      <g>
       <use xlink:href="#m4b88e000fe" x="1072.042489" y="225.367813" style="fill: #262626; stroke: #262626; stroke-width: 1.875"/>
      </g>
     </g>
     <g id="text_28">
      <!-- 0.270 -->
      <g style="fill: #262626" transform="translate(1084.542489 231.636524) scale(0.165 -0.165)">
       <use xlink:href="#DejaVuSans-30"/>
       <use xlink:href="#DejaVuSans-2e" transform="translate(63.623047 0)"/>
       <use xlink:href="#DejaVuSans-32" transform="translate(95.410156 0)"/>
       <use xlink:href="#DejaVuSans-37" transform="translate(159.033203 0)"/>
       <use xlink:href="#DejaVuSans-30" transform="translate(222.65625 0)"/>
      </g>
     </g>
    </g>
    <g id="ytick_18">
     <g id="line2d_36">
      <path d="M 608.169135 165.73774 
L 1072.042489 165.73774 
" clip-path="url(#pb813ed58b4)" style="fill: none; stroke: #cccccc; stroke-width: 1.5; stroke-linecap: round"/>
     </g>
     <g id="line2d_37">
      <g>
       <use xlink:href="#m4b88e000fe" x="1072.042489" y="165.73774" style="fill: #262626; stroke: #262626; stroke-width: 1.875"/>
      </g>
     </g>
     <g id="text_29">
      <!-- 0.275 -->
      <g style="fill: #262626" transform="translate(1084.542489 172.006451) scale(0.165 -0.165)">
       <use xlink:href="#DejaVuSans-30"/>
       <use xlink:href="#DejaVuSans-2e" transform="translate(63.623047 0)"/>
       <use xlink:href="#DejaVuSans-32" transform="translate(95.410156 0)"/>
       <use xlink:href="#DejaVuSans-37" transform="translate(159.033203 0)"/>
       <use xlink:href="#DejaVuSans-35" transform="translate(222.65625 0)"/>
      </g>
     </g>
    </g>
    <g id="ytick_19">
     <g id="line2d_38">
      <path d="M 608.169135 106.107666 
L 1072.042489 106.107666 
" clip-path="url(#pb813ed58b4)" style="fill: none; stroke: #cccccc; stroke-width: 1.5; stroke-linecap: round"/>
     </g>
     <g id="line2d_39">
      <g>
       <use xlink:href="#m4b88e000fe" x="1072.042489" y="106.107666" style="fill: #262626; stroke: #262626; stroke-width: 1.875"/>
      </g>
     </g>
     <g id="text_30">
      <!-- 0.280 -->
      <g style="fill: #262626" transform="translate(1084.542489 112.376377) scale(0.165 -0.165)">
       <use xlink:href="#DejaVuSans-30"/>
       <use xlink:href="#DejaVuSans-2e" transform="translate(63.623047 0)"/>
       <use xlink:href="#DejaVuSans-32" transform="translate(95.410156 0)"/>
       <use xlink:href="#DejaVuSans-38" transform="translate(159.033203 0)"/>
       <use xlink:href="#DejaVuSans-30" transform="translate(222.65625 0)"/>
      </g>
     </g>
    </g>
    <g id="ytick_20">
     <g id="line2d_40">
      <path d="M 608.169135 46.477593 
L 1072.042489 46.477593 
" clip-path="url(#pb813ed58b4)" style="fill: none; stroke: #cccccc; stroke-width: 1.5; stroke-linecap: round"/>
     </g>
     <g id="line2d_41">
      <g>
       <use xlink:href="#m4b88e000fe" x="1072.042489" y="46.477593" style="fill: #262626; stroke: #262626; stroke-width: 1.875"/>
      </g>
     </g>
     <g id="text_31">
      <!-- 0.285 -->
      <g style="fill: #262626" transform="translate(1084.542489 52.746304) scale(0.165 -0.165)">
       <use xlink:href="#DejaVuSans-30"/>
       <use xlink:href="#DejaVuSans-2e" transform="translate(63.623047 0)"/>
       <use xlink:href="#DejaVuSans-32" transform="translate(95.410156 0)"/>
       <use xlink:href="#DejaVuSans-38" transform="translate(159.033203 0)"/>
       <use xlink:href="#DejaVuSans-35" transform="translate(222.65625 0)"/>
      </g>
     </g>
    </g>
    <g id="text_32">
     <!-- Mean Confidence -->
     <g style="fill: #262626" transform="translate(1149.456083 283.081401) rotate(-90) scale(0.18 -0.18)">
      <defs>
       <path id="DejaVuSans-66" d="M 2375 4863 
L 2375 4384 
L 1825 4384 
Q 1516 4384 1395 4259 
Q 1275 4134 1275 3809 
L 1275 3500 
L 2222 3500 
L 2222 3053 
L 1275 3053 
L 1275 0 
L 697 0 
L 697 3053 
L 147 3053 
L 147 3500 
L 697 3500 
L 697 3744 
Q 697 4328 969 4595 
Q 1241 4863 1831 4863 
L 2375 4863 
z
" transform="scale(0.015625)"/>
      </defs>
      <use xlink:href="#DejaVuSans-4d"/>
      <use xlink:href="#DejaVuSans-65" transform="translate(86.279297 0)"/>
      <use xlink:href="#DejaVuSans-61" transform="translate(147.802734 0)"/>
      <use xlink:href="#DejaVuSans-6e" transform="translate(209.082031 0)"/>
      <use xlink:href="#DejaVuSans-20" transform="translate(272.460938 0)"/>
      <use xlink:href="#DejaVuSans-43" transform="translate(304.248047 0)"/>
      <use xlink:href="#DejaVuSans-6f" transform="translate(374.072266 0)"/>
      <use xlink:href="#DejaVuSans-6e" transform="translate(435.253906 0)"/>
      <use xlink:href="#DejaVuSans-66" transform="translate(498.632812 0)"/>
      <use xlink:href="#DejaVuSans-69" transform="translate(533.837891 0)"/>
      <use xlink:href="#DejaVuSans-64" transform="translate(561.621094 0)"/>
      <use xlink:href="#DejaVuSans-65" transform="translate(625.097656 0)"/>
      <use xlink:href="#DejaVuSans-6e" transform="translate(686.621094 0)"/>
      <use xlink:href="#DejaVuSans-63" transform="translate(750 0)"/>
      <use xlink:href="#DejaVuSans-65" transform="translate(804.980469 0)"/>
     </g>
    </g>
   </g>
   <g id="line2d_42">
    <path d="M 957.245548 205.093588 
" clip-path="url(#pb813ed58b4)" style="fill: none; stroke: #f28e2b; stroke-width: 2.2; stroke-linecap: round"/>
    <defs>
     <path id="mc1b839911c" d="M 0 4.5 
C 1.193414 4.5 2.338109 4.025852 3.181981 3.181981 
C 4.025852 2.338109 4.5 1.193414 4.5 0 
C 4.5 -1.193414 4.025852 -2.338109 3.181981 -3.181981 
C 2.338109 -4.025852 1.193414 -4.5 0 -4.5 
C -1.193414 -4.5 -2.338109 -4.025852 -3.181981 -3.181981 
C -4.025852 -2.338109 -4.5 -1.193414 -4.5 0 
C -4.5 1.193414 -4.025852 2.338109 -3.181981 3.181981 
C -2.338109 4.025852 -1.193414 4.5 0 4.5 
z
" style="stroke: #f28e2b"/>
    </defs>
    <g clip-path="url(#pb813ed58b4)">
     <use xlink:href="#mc1b839911c" x="957.245548" y="205.093588" style="fill: #f28e2b; stroke: #f28e2b"/>
    </g>
   </g>
   <g id="patch_18">
    <path d="M 608.169135 383.309989 
L 608.169135 26.877187 
" style="fill: none; stroke: #cccccc; stroke-width: 1.875; stroke-linejoin: miter; stroke-linecap: square"/>
   </g>
   <g id="patch_19">
    <path d="M 1072.042489 383.309989 
L 1072.042489 26.877187 
" style="fill: none; stroke: #cccccc; stroke-width: 1.875; stroke-linejoin: miter; stroke-linecap: square"/>
   </g>
   <g id="patch_20">
    <path d="M 608.169135 383.309989 
L 1072.042489 383.309989 
" style="fill: none; stroke: #cccccc; stroke-width: 1.875; stroke-linejoin: miter; stroke-linecap: square"/>
   </g>
   <g id="patch_21">
    <path d="M 608.169135 26.877187 
L 1072.042489 26.877187 
" style="fill: none; stroke: #cccccc; stroke-width: 1.875; stroke-linejoin: miter; stroke-linecap: square"/>
   </g>
  </g>
 </g>
 <defs>
  <clipPath id="p87eabfa587">
   <rect x="72.615" y="26.877187" width="463.873354" height="356.432801"/>
  </clipPath>
  <clipPath id="pb813ed58b4">
   <rect x="608.169135" y="26.877187" width="463.873354" height="356.432801"/>
  </clipPath>
 </defs>
</svg>
