<?xml version="1.0" encoding="utf-8" standalone="no"?>
<!DOCTYPE svg PUBLIC "-//W3C//DTD SVG 1.1//EN"
  "http://www.w3.org/Graphics/SVG/1.1/DTD/svg11.dtd">
<svg xmlns:xlink="http://www.w3.org/1999/xlink" width="1160.39952pt" height="440.39952pt" viewBox="0 0 1160.39952 440.39952" xmlns="http://www.w3.org/2000/svg" version="1.1">
 <metadata>
  <rdf:RDF xmlns:dc="http://purl.org/dc/elements/1.1/" xmlns:cc="http://creativecommons.org/ns#" xmlns:rdf="http://www.w3.org/1999/02/22-rdf-syntax-ns#">
   <cc:Work>
    <dc:type rdf:resource="http://purl.org/dc/dcmitype/StillImage"/>
    <dc:date>2026-04-13T21:21:19.951545</dc:date>
    <dc:format>image/svg+xml</dc:format>
    <dc:creator>
     <cc:Agent>
      <dc:title>Matplotlib v3.10.8, https://matplotlib.org/</dc:title>
     </cc:Agent>
    </dc:creator>
   </cc:Work>
  </rdf:RDF>
 </metadata>
 <defs>
  <style type="text/css">*{stroke-linejoin: round; stroke-linecap: butt}</style>
 </defs>
 <g id="figure_1">
  <g id="patch_1">
   <path d="M 0 440.39952 
L 1160.39952 440.39952 
L 1160.39952 0 
L 0 0 
z
" style="fill: #ffffff"/>
  </g>
  <g id="axes_1">
   <g id="patch_2">
    <path d="M 37.921875 407.05577 
L 573.048354 407.05577 
L 573.048354 21.89625 
L 37.921875 21.89625 
z
" style="fill: #ffffff"/>
   </g>
   <g id="matplotlib.axis_1">
    <g id="xtick_1">
     <g id="line2d_1">
      <path d="M 49.376001 407.05577 
L 49.376001 21.89625 
" clip-path="url(#p967a88588e)" style="fill: none; stroke: #cccccc; stroke-opacity: 0.3; stroke-width: 0.8; stroke-linecap: round"/>
     </g>
     <g id="line2d_2"/>
     <g id="text_1">
      <!-- 0 -->
      <g style="fill: #262626" transform="translate(46.595532 417.802645) scale(0.1 -0.1)">
       <defs>
        <path id="LiberationSans-30" d="M 3309 2203 
Q 3309 1100 2920 518 
Q 2531 -63 1772 -63 
Q 1013 -63 631 515 
Q 250 1094 250 2203 
Q 250 3338 620 3903 
Q 991 4469 1791 4469 
Q 2569 4469 2939 3897 
Q 3309 3325 3309 2203 
z
M 2738 2203 
Q 2738 3156 2517 3584 
Q 2297 4013 1791 4013 
Q 1272 4013 1045 3591 
Q 819 3169 819 2203 
Q 819 1266 1048 831 
Q 1278 397 1778 397 
Q 2275 397 2506 840 
Q 2738 1284 2738 2203 
z
" transform="scale(0.015625)"/>
       </defs>
       <use xlink:href="#LiberationSans-30"/>
      </g>
     </g>
    </g>
    <g id="xtick_2">
     <g id="line2d_3">
      <path d="M 113.725025 407.05577 
L 113.725025 21.89625 
" clip-path="url(#p967a88588e)" style="fill: none; stroke: #cccccc; stroke-opacity: 0.3; stroke-width: 0.8; stroke-linecap: round"/>
     </g>
     <g id="line2d_4"/>
     <g id="text_2">
      <!-- 50 -->
      <g style="fill: #262626" transform="translate(108.164087 417.802645) scale(0.1 -0.1)">
       <defs>
        <path id="LiberationSans-35" d="M 3291 1434 
Q 3291 738 2877 337 
Q 2463 -63 1728 -63 
Q 1113 -63 734 206 
Q 356 475 256 984 
L 825 1050 
Q 1003 397 1741 397 
Q 2194 397 2450 670 
Q 2706 944 2706 1422 
Q 2706 1838 2448 2094 
Q 2191 2350 1753 2350 
Q 1525 2350 1328 2278 
Q 1131 2206 934 2034 
L 384 2034 
L 531 4403 
L 3034 4403 
L 3034 3925 
L 1044 3925 
L 959 2528 
Q 1325 2809 1869 2809 
Q 2519 2809 2905 2428 
Q 3291 2047 3291 1434 
z
" transform="scale(0.015625)"/>
       </defs>
       <use xlink:href="#LiberationSans-35"/>
       <use xlink:href="#LiberationSans-30" transform="translate(55.615234 0)"/>
      </g>
     </g>
    </g>
    <g id="xtick_3">
     <g id="line2d_5">
      <path d="M 178.074048 407.05577 
L 178.074048 21.89625 
" clip-path="url(#p967a88588e)" style="fill: none; stroke: #cccccc; stroke-opacity: 0.3; stroke-width: 0.8; stroke-linecap: round"/>
     </g>
     <g id="line2d_6"/>
     <g id="text_3">
      <!-- 100 -->
      <g style="fill: #262626" transform="translate(169.732642 417.802645) scale(0.1 -0.1)">
       <defs>
        <path id="LiberationSans-31" d="M 488 0 
L 488 478 
L 1609 478 
L 1609 3866 
L 616 3156 
L 616 3688 
L 1656 4403 
L 2175 4403 
L 2175 478 
L 3247 478 
L 3247 0 
L 488 0 
z
" transform="scale(0.015625)"/>
       </defs>
       <use xlink:href="#LiberationSans-31"/>
       <use xlink:href="#LiberationSans-30" transform="translate(55.615234 0)"/>
       <use xlink:href="#LiberationSans-30" transform="translate(111.230469 0)"/>
      </g>
     </g>
    </g>
    <g id="xtick_4">
     <g id="line2d_7">
      <path d="M 242.423071 407.05577 
L 242.423071 21.89625 
" clip-path="url(#p967a88588e)" style="fill: none; stroke: #cccccc; stroke-opacity: 0.3; stroke-width: 0.8; stroke-linecap: round"/>
     </g>
     <g id="line2d_8"/>
     <g id="text_4">
      <!-- 150 -->
      <g style="fill: #262626" transform="translate(234.081665 417.802645) scale(0.1 -0.1)">
       <use xlink:href="#LiberationSans-31"/>
       <use xlink:href="#LiberationSans-35" transform="translate(55.615234 0)"/>
       <use xlink:href="#LiberationSans-30" transform="translate(111.230469 0)"/>
      </g>
     </g>
    </g>
    <g id="xtick_5">
     <g id="line2d_9">
      <path d="M 306.772095 407.05577 
L 306.772095 21.89625 
" clip-path="url(#p967a88588e)" style="fill: none; stroke: #cccccc; stroke-opacity: 0.3; stroke-width: 0.8; stroke-linecap: round"/>
     </g>
     <g id="line2d_10"/>
     <g id="text_5">
      <!-- 200 -->
      <g style="fill: #262626" transform="translate(298.430689 417.802645) scale(0.1 -0.1)">
       <defs>
        <path id="LiberationSans-32" d="M 322 0 
L 322 397 
Q 481 763 711 1042 
Q 941 1322 1194 1548 
Q 1447 1775 1695 1969 
Q 1944 2163 2144 2356 
Q 2344 2550 2467 2762 
Q 2591 2975 2591 3244 
Q 2591 3606 2378 3806 
Q 2166 4006 1788 4006 
Q 1428 4006 1195 3811 
Q 963 3616 922 3263 
L 347 3316 
Q 409 3844 795 4156 
Q 1181 4469 1788 4469 
Q 2453 4469 2811 4155 
Q 3169 3841 3169 3263 
Q 3169 3006 3051 2753 
Q 2934 2500 2703 2247 
Q 2472 1994 1819 1463 
Q 1459 1169 1246 933 
Q 1034 697 941 478 
L 3238 478 
L 3238 0 
L 322 0 
z
" transform="scale(0.015625)"/>
       </defs>
       <use xlink:href="#LiberationSans-32"/>
       <use xlink:href="#LiberationSans-30" transform="translate(55.615234 0)"/>
       <use xlink:href="#LiberationSans-30" transform="translate(111.230469 0)"/>
      </g>
     </g>
    </g>
    <g id="xtick_6">
     <g id="line2d_11">
      <path d="M 371.121118 407.05577 
L 371.121118 21.89625 
" clip-path="url(#p967a88588e)" style="fill: none; stroke: #cccccc; stroke-opacity: 0.3; stroke-width: 0.8; stroke-linecap: round"/>
     </g>
     <g id="line2d_12"/>
     <g id="text_6">
      <!-- 250 -->
      <g style="fill: #262626" transform="translate(362.779712 417.802645) scale(0.1 -0.1)">
       <use xlink:href="#LiberationSans-32"/>
       <use xlink:href="#LiberationSans-35" transform="translate(55.615234 0)"/>
       <use xlink:href="#LiberationSans-30" transform="translate(111.230469 0)"/>
      </g>
     </g>
    </g>
    <g id="xtick_7">
     <g id="line2d_13">
      <path d="M 435.470142 407.05577 
L 435.470142 21.89625 
" clip-path="url(#p967a88588e)" style="fill: none; stroke: #cccccc; stroke-opacity: 0.3; stroke-width: 0.8; stroke-linecap: round"/>
     </g>
     <g id="line2d_14"/>
     <g id="text_7">
      <!-- 300 -->
      <g style="fill: #262626" transform="translate(427.128735 417.802645) scale(0.1 -0.1)">
       <defs>
        <path id="LiberationSans-33" d="M 3278 1216 
Q 3278 606 2890 271 
Q 2503 -63 1784 -63 
Q 1116 -63 717 239 
Q 319 541 244 1131 
L 825 1184 
Q 938 403 1784 403 
Q 2209 403 2451 612 
Q 2694 822 2694 1234 
Q 2694 1594 2417 1795 
Q 2141 1997 1619 1997 
L 1300 1997 
L 1300 2484 
L 1606 2484 
Q 2069 2484 2323 2686 
Q 2578 2888 2578 3244 
Q 2578 3597 2370 3801 
Q 2163 4006 1753 4006 
Q 1381 4006 1151 3815 
Q 922 3625 884 3278 
L 319 3322 
Q 381 3863 767 4166 
Q 1153 4469 1759 4469 
Q 2422 4469 2789 4161 
Q 3156 3853 3156 3303 
Q 3156 2881 2920 2617 
Q 2684 2353 2234 2259 
L 2234 2247 
Q 2728 2194 3003 1916 
Q 3278 1638 3278 1216 
z
" transform="scale(0.015625)"/>
       </defs>
       <use xlink:href="#LiberationSans-33"/>
       <use xlink:href="#LiberationSans-30" transform="translate(55.615234 0)"/>
       <use xlink:href="#LiberationSans-30" transform="translate(111.230469 0)"/>
      </g>
     </g>
    </g>
    <g id="xtick_8">
     <g id="line2d_15">
      <path d="M 499.819165 407.05577 
L 499.819165 21.89625 
" clip-path="url(#p967a88588e)" style="fill: none; stroke: #cccccc; stroke-opacity: 0.3; stroke-width: 0.8; stroke-linecap: round"/>
     </g>
     <g id="line2d_16"/>
     <g id="text_8">
      <!-- 350 -->
      <g style="fill: #262626" transform="translate(491.477759 417.802645) scale(0.1 -0.1)">
       <use xlink:href="#LiberationSans-33"/>
       <use xlink:href="#LiberationSans-35" transform="translate(55.615234 0)"/>
       <use xlink:href="#LiberationSans-30" transform="translate(111.230469 0)"/>
      </g>
     </g>
    </g>
    <g id="xtick_9">
     <g id="line2d_17">
      <path d="M 564.168189 407.05577 
L 564.168189 21.89625 
" clip-path="url(#p967a88588e)" style="fill: none; stroke: #cccccc; stroke-opacity: 0.3; stroke-width: 0.8; stroke-linecap: round"/>
     </g>
     <g id="line2d_18"/>
     <g id="text_9">
      <!-- 400 -->
      <g style="fill: #262626" transform="translate(555.826782 417.802645) scale(0.1 -0.1)">
       <defs>
        <path id="LiberationSans-34" d="M 2753 997 
L 2753 0 
L 2222 0 
L 2222 997 
L 147 997 
L 147 1434 
L 2163 4403 
L 2753 4403 
L 2753 1441 
L 3372 1441 
L 3372 997 
L 2753 997 
z
M 2222 3769 
Q 2216 3750 2134 3603 
Q 2053 3456 2013 3397 
L 884 1734 
L 716 1503 
L 666 1441 
L 2222 1441 
L 2222 3769 
z
" transform="scale(0.015625)"/>
       </defs>
       <use xlink:href="#LiberationSans-34"/>
       <use xlink:href="#LiberationSans-30" transform="translate(55.615234 0)"/>
       <use xlink:href="#LiberationSans-30" transform="translate(111.230469 0)"/>
      </g>
     </g>
    </g>
    <g id="text_10">
     <!-- Training Step -->
     <g style="fill: #262626" transform="translate(275.935896 431.12452) scale(0.1 -0.1)">
      <defs>
       <path id="LiberationSans-54" d="M 2250 3916 
L 2250 0 
L 1656 0 
L 1656 3916 
L 144 3916 
L 144 4403 
L 3763 4403 
L 3763 3916 
L 2250 3916 
z
" transform="scale(0.015625)"/>
       <path id="LiberationSans-72" d="M 444 0 
L 444 2594 
Q 444 2950 425 3381 
L 956 3381 
Q 981 2806 981 2691 
L 994 2691 
Q 1128 3125 1303 3284 
Q 1478 3444 1797 3444 
Q 1909 3444 2025 3413 
L 2025 2897 
Q 1913 2928 1725 2928 
Q 1375 2928 1190 2626 
Q 1006 2325 1006 1763 
L 1006 0 
L 444 0 
z
" transform="scale(0.015625)"/>
       <path id="LiberationSans-61" d="M 1294 -63 
Q 784 -63 528 206 
Q 272 475 272 944 
Q 272 1469 617 1750 
Q 963 2031 1731 2050 
L 2491 2063 
L 2491 2247 
Q 2491 2659 2316 2837 
Q 2141 3016 1766 3016 
Q 1388 3016 1216 2887 
Q 1044 2759 1009 2478 
L 422 2531 
Q 566 3444 1778 3444 
Q 2416 3444 2737 3151 
Q 3059 2859 3059 2306 
L 3059 850 
Q 3059 600 3125 473 
Q 3191 347 3375 347 
Q 3456 347 3559 369 
L 3559 19 
Q 3347 -31 3125 -31 
Q 2813 -31 2670 133 
Q 2528 297 2509 647 
L 2491 647 
Q 2275 259 1989 98 
Q 1703 -63 1294 -63 
z
M 1422 359 
Q 1731 359 1972 500 
Q 2213 641 2352 886 
Q 2491 1131 2491 1391 
L 2491 1669 
L 1875 1656 
Q 1478 1650 1273 1575 
Q 1069 1500 959 1344 
Q 850 1188 850 934 
Q 850 659 998 509 
Q 1147 359 1422 359 
z
" transform="scale(0.015625)"/>
       <path id="LiberationSans-69" d="M 428 4100 
L 428 4638 
L 991 4638 
L 991 4100 
L 428 4100 
z
M 428 0 
L 428 3381 
L 991 3381 
L 991 0 
L 428 0 
z
" transform="scale(0.015625)"/>
       <path id="LiberationSans-6e" d="M 2578 0 
L 2578 2144 
Q 2578 2478 2512 2662 
Q 2447 2847 2303 2928 
Q 2159 3009 1881 3009 
Q 1475 3009 1240 2731 
Q 1006 2453 1006 1959 
L 1006 0 
L 444 0 
L 444 2659 
Q 444 3250 425 3381 
L 956 3381 
Q 959 3366 962 3297 
Q 966 3228 970 3139 
Q 975 3050 981 2803 
L 991 2803 
Q 1184 3153 1439 3298 
Q 1694 3444 2072 3444 
Q 2628 3444 2886 3167 
Q 3144 2891 3144 2253 
L 3144 0 
L 2578 0 
z
" transform="scale(0.015625)"/>
       <path id="LiberationSans-67" d="M 1713 -1328 
Q 1159 -1328 831 -1111 
Q 503 -894 409 -494 
L 975 -413 
Q 1031 -647 1223 -773 
Q 1416 -900 1728 -900 
Q 2569 -900 2569 84 
L 2569 628 
L 2563 628 
Q 2403 303 2125 139 
Q 1847 -25 1475 -25 
Q 853 -25 561 387 
Q 269 800 269 1684 
Q 269 2581 583 3007 
Q 897 3434 1538 3434 
Q 1897 3434 2161 3270 
Q 2425 3106 2569 2803 
L 2575 2803 
Q 2575 2897 2587 3128 
Q 2600 3359 2613 3381 
L 3147 3381 
Q 3128 3213 3128 2681 
L 3128 97 
Q 3128 -1328 1713 -1328 
z
M 2569 1691 
Q 2569 2103 2456 2401 
Q 2344 2700 2139 2858 
Q 1934 3016 1675 3016 
Q 1244 3016 1047 2703 
Q 850 2391 850 1691 
Q 850 997 1034 694 
Q 1219 391 1666 391 
Q 1931 391 2137 547 
Q 2344 703 2456 995 
Q 2569 1288 2569 1691 
z
" transform="scale(0.015625)"/>
       <path id="LiberationSans-20" transform="scale(0.015625)"/>
       <path id="LiberationSans-53" d="M 3975 1216 
Q 3975 606 3498 271 
Q 3022 -63 2156 -63 
Q 547 -63 291 1056 
L 869 1172 
Q 969 775 1294 589 
Q 1619 403 2178 403 
Q 2756 403 3070 601 
Q 3384 800 3384 1184 
Q 3384 1400 3286 1534 
Q 3188 1669 3009 1756 
Q 2831 1844 2584 1903 
Q 2338 1963 2038 2031 
Q 1516 2147 1245 2262 
Q 975 2378 819 2520 
Q 663 2663 580 2853 
Q 497 3044 497 3291 
Q 497 3856 930 4162 
Q 1363 4469 2169 4469 
Q 2919 4469 3316 4239 
Q 3713 4009 3872 3456 
L 3284 3353 
Q 3188 3703 2916 3861 
Q 2644 4019 2163 4019 
Q 1634 4019 1356 3844 
Q 1078 3669 1078 3322 
Q 1078 3119 1186 2986 
Q 1294 2853 1497 2761 
Q 1700 2669 2306 2534 
Q 2509 2488 2711 2439 
Q 2913 2391 3097 2323 
Q 3281 2256 3442 2165 
Q 3603 2075 3722 1944 
Q 3841 1813 3908 1634 
Q 3975 1456 3975 1216 
z
" transform="scale(0.015625)"/>
       <path id="LiberationSans-74" d="M 1731 25 
Q 1453 -50 1163 -50 
Q 488 -50 488 716 
L 488 2972 
L 97 2972 
L 97 3381 
L 509 3381 
L 675 4138 
L 1050 4138 
L 1050 3381 
L 1675 3381 
L 1675 2972 
L 1050 2972 
L 1050 838 
Q 1050 594 1129 495 
Q 1209 397 1406 397 
Q 1519 397 1731 441 
L 1731 25 
z
" transform="scale(0.015625)"/>
       <path id="LiberationSans-65" d="M 863 1572 
Q 863 991 1103 675 
Q 1344 359 1806 359 
Q 2172 359 2392 506 
Q 2613 653 2691 878 
L 3184 738 
Q 2881 -63 1806 -63 
Q 1056 -63 664 384 
Q 272 831 272 1713 
Q 272 2550 664 2997 
Q 1056 3444 1784 3444 
Q 3275 3444 3275 1647 
L 3275 1572 
L 863 1572 
z
M 2694 2003 
Q 2647 2538 2422 2783 
Q 2197 3028 1775 3028 
Q 1366 3028 1127 2754 
Q 888 2481 869 2003 
L 2694 2003 
z
" transform="scale(0.015625)"/>
       <path id="LiberationSans-70" d="M 3291 1706 
Q 3291 -63 2047 -63 
Q 1266 -63 997 525 
L 981 525 
Q 994 500 994 -6 
L 994 -1328 
L 431 -1328 
L 431 2691 
Q 431 3213 413 3381 
L 956 3381 
Q 959 3369 965 3292 
Q 972 3216 980 3056 
Q 988 2897 988 2838 
L 1000 2838 
Q 1150 3150 1397 3295 
Q 1644 3441 2047 3441 
Q 2672 3441 2981 3022 
Q 3291 2603 3291 1706 
z
M 2700 1694 
Q 2700 2400 2509 2703 
Q 2319 3006 1903 3006 
Q 1569 3006 1380 2865 
Q 1191 2725 1092 2426 
Q 994 2128 994 1650 
Q 994 984 1206 668 
Q 1419 353 1897 353 
Q 2316 353 2508 661 
Q 2700 969 2700 1694 
z
" transform="scale(0.015625)"/>
      </defs>
      <use xlink:href="#LiberationSans-54"/>
      <use xlink:href="#LiberationSans-72" transform="translate(57.333984 0)"/>
      <use xlink:href="#LiberationSans-61" transform="translate(90.634766 0)"/>
      <use xlink:href="#LiberationSans-69" transform="translate(146.25 0)"/>
      <use xlink:href="#LiberationSans-6e" transform="translate(168.466797 0)"/>
      <use xlink:href="#LiberationSans-69" transform="translate(224.082031 0)"/>
      <use xlink:href="#LiberationSans-6e" transform="translate(246.298828 0)"/>
      <use xlink:href="#LiberationSans-67" transform="translate(301.914062 0)"/>
      <use xlink:href="#LiberationSans-20" transform="translate(357.529297 0)"/>
      <use xlink:href="#LiberationSans-53" transform="translate(385.3125 0)"/>
      <use xlink:href="#LiberationSans-74" transform="translate(452.011719 0)"/>
      <use xlink:href="#LiberationSans-65" transform="translate(479.794922 0)"/>
      <use xlink:href="#LiberationSans-70" transform="translate(535.410156 0)"/>
     </g>
    </g>
   </g>
   <g id="matplotlib.axis_2">
    <g id="ytick_1">
     <g id="line2d_19">
      <path d="M 37.921875 372.433204 
L 573.048354 372.433204 
" clip-path="url(#p967a88588e)" style="fill: none; stroke: #cccccc; stroke-opacity: 0.3; stroke-width: 0.8; stroke-linecap: round"/>
     </g>
     <g id="line2d_20"/>
     <g id="text_11">
      <!-- 1.0 -->
      <g style="fill: #262626" transform="translate(20.521875 376.056642) scale(0.1 -0.1)">
       <defs>
        <path id="LiberationSans-2e" d="M 584 0 
L 584 684 
L 1194 684 
L 1194 0 
L 584 0 
z
" transform="scale(0.015625)"/>
       </defs>
       <use xlink:href="#LiberationSans-31"/>
       <use xlink:href="#LiberationSans-2e" transform="translate(55.615234 0)"/>
       <use xlink:href="#LiberationSans-30" transform="translate(83.398438 0)"/>
      </g>
     </g>
    </g>
    <g id="ytick_2">
     <g id="line2d_21">
      <path d="M 37.921875 314.454495 
L 573.048354 314.454495 
" clip-path="url(#p967a88588e)" style="fill: none; stroke: #cccccc; stroke-opacity: 0.3; stroke-width: 0.8; stroke-linecap: round"/>
     </g>
     <g id="line2d_22"/>
     <g id="text_12">
      <!-- 1.5 -->
      <g style="fill: #262626" transform="translate(20.521875 318.077933) scale(0.1 -0.1)">
       <use xlink:href="#LiberationSans-31"/>
       <use xlink:href="#LiberationSans-2e" transform="translate(55.615234 0)"/>
       <use xlink:href="#LiberationSans-35" transform="translate(83.398438 0)"/>
      </g>
     </g>
    </g>
    <g id="ytick_3">
     <g id="line2d_23">
      <path d="M 37.921875 256.475787 
L 573.048354 256.475787 
" clip-path="url(#p967a88588e)" style="fill: none; stroke: #cccccc; stroke-opacity: 0.3; stroke-width: 0.8; stroke-linecap: round"/>
     </g>
     <g id="line2d_24"/>
     <g id="text_13">
      <!-- 2.0 -->
      <g style="fill: #262626" transform="translate(20.521875 260.099224) scale(0.1 -0.1)">
       <use xlink:href="#LiberationSans-32"/>
       <use xlink:href="#LiberationSans-2e" transform="translate(55.615234 0)"/>
       <use xlink:href="#LiberationSans-30" transform="translate(83.398438 0)"/>
      </g>
     </g>
    </g>
    <g id="ytick_4">
     <g id="line2d_25">
      <path d="M 37.921875 198.497078 
L 573.048354 198.497078 
" clip-path="url(#p967a88588e)" style="fill: none; stroke: #cccccc; stroke-opacity: 0.3; stroke-width: 0.8; stroke-linecap: round"/>
     </g>
     <g id="line2d_26"/>
     <g id="text_14">
      <!-- 2.5 -->
      <g style="fill: #262626" transform="translate(20.521875 202.120515) scale(0.1 -0.1)">
       <use xlink:href="#LiberationSans-32"/>
       <use xlink:href="#LiberationSans-2e" transform="translate(55.615234 0)"/>
       <use xlink:href="#LiberationSans-35" transform="translate(83.398438 0)"/>
      </g>
     </g>
    </g>
    <g id="ytick_5">
     <g id="line2d_27">
      <path d="M 37.921875 140.518369 
L 573.048354 140.518369 
" clip-path="url(#p967a88588e)" style="fill: none; stroke: #cccccc; stroke-opacity: 0.3; stroke-width: 0.8; stroke-linecap: round"/>
     </g>
     <g id="line2d_28"/>
     <g id="text_15">
      <!-- 3.0 -->
      <g style="fill: #262626" transform="translate(20.521875 144.141807) scale(0.1 -0.1)">
       <use xlink:href="#LiberationSans-33"/>
       <use xlink:href="#LiberationSans-2e" transform="translate(55.615234 0)"/>
       <use xlink:href="#LiberationSans-30" transform="translate(83.398438 0)"/>
      </g>
     </g>
    </g>
    <g id="ytick_6">
     <g id="line2d_29">
      <path d="M 37.921875 82.53966 
L 573.048354 82.53966 
" clip-path="url(#p967a88588e)" style="fill: none; stroke: #cccccc; stroke-opacity: 0.3; stroke-width: 0.8; stroke-linecap: round"/>
     </g>
     <g id="line2d_30"/>
     <g id="text_16">
      <!-- 3.5 -->
      <g style="fill: #262626" transform="translate(20.521875 86.163098) scale(0.1 -0.1)">
       <use xlink:href="#LiberationSans-33"/>
       <use xlink:href="#LiberationSans-2e" transform="translate(55.615234 0)"/>
       <use xlink:href="#LiberationSans-35" transform="translate(83.398438 0)"/>
      </g>
     </g>
    </g>
    <g id="ytick_7">
     <g id="line2d_31">
      <path d="M 37.921875 24.560951 
L 573.048354 24.560951 
" clip-path="url(#p967a88588e)" style="fill: none; stroke: #cccccc; stroke-opacity: 0.3; stroke-width: 0.8; stroke-linecap: round"/>
     </g>
     <g id="line2d_32"/>
     <g id="text_17">
      <!-- 4.0 -->
      <g style="fill: #262626" transform="translate(20.521875 28.184389) scale(0.1 -0.1)">
       <use xlink:href="#LiberationSans-34"/>
       <use xlink:href="#LiberationSans-2e" transform="translate(55.615234 0)"/>
       <use xlink:href="#LiberationSans-30" transform="translate(83.398438 0)"/>
      </g>
     </g>
    </g>
    <g id="text_18">
     <!-- Loss -->
     <g style="fill: #262626" transform="translate(14.446875 225.036947) rotate(-90) scale(0.1 -0.1)">
      <defs>
       <path id="LiberationSans-4c" d="M 525 0 
L 525 4403 
L 1122 4403 
L 1122 488 
L 3347 488 
L 3347 0 
L 525 0 
z
" transform="scale(0.015625)"/>
       <path id="LiberationSans-6f" d="M 3291 1694 
Q 3291 806 2900 371 
Q 2509 -63 1766 -63 
Q 1025 -63 647 389 
Q 269 841 269 1694 
Q 269 3444 1784 3444 
Q 2559 3444 2925 3017 
Q 3291 2591 3291 1694 
z
M 2700 1694 
Q 2700 2394 2492 2711 
Q 2284 3028 1794 3028 
Q 1300 3028 1079 2704 
Q 859 2381 859 1694 
Q 859 1025 1076 689 
Q 1294 353 1759 353 
Q 2266 353 2483 678 
Q 2700 1003 2700 1694 
z
" transform="scale(0.015625)"/>
       <path id="LiberationSans-73" d="M 2969 934 
Q 2969 456 2608 196 
Q 2247 -63 1597 -63 
Q 966 -63 623 145 
Q 281 353 178 794 
L 675 891 
Q 747 619 972 492 
Q 1197 366 1597 366 
Q 2025 366 2223 497 
Q 2422 628 2422 891 
Q 2422 1091 2284 1216 
Q 2147 1341 1841 1422 
L 1438 1528 
Q 953 1653 748 1773 
Q 544 1894 428 2066 
Q 313 2238 313 2488 
Q 313 2950 642 3192 
Q 972 3434 1603 3434 
Q 2163 3434 2492 3237 
Q 2822 3041 2909 2606 
L 2403 2544 
Q 2356 2769 2151 2889 
Q 1947 3009 1603 3009 
Q 1222 3009 1040 2893 
Q 859 2778 859 2544 
Q 859 2400 934 2306 
Q 1009 2213 1156 2147 
Q 1303 2081 1775 1966 
Q 2222 1853 2419 1758 
Q 2616 1663 2730 1547 
Q 2844 1431 2906 1279 
Q 2969 1128 2969 934 
z
" transform="scale(0.015625)"/>
      </defs>
      <use xlink:href="#LiberationSans-4c"/>
      <use xlink:href="#LiberationSans-6f" transform="translate(55.615234 0)"/>
      <use xlink:href="#LiberationSans-73" transform="translate(111.230469 0)"/>
      <use xlink:href="#LiberationSans-73" transform="translate(161.230469 0)"/>
     </g>
    </g>
   </g>
   <g id="line2d_33">
    <path d="M 62.245806 39.403501 
L 75.115611 74.109556 
L 87.985415 101.278379 
L 100.85522 124.771352 
L 113.725025 142.999858 
L 126.594829 158.944003 
L 139.464634 174.180807 
L 152.334439 186.286762 
L 165.204243 198.126014 
L 178.074048 207.947607 
L 190.943853 216.702392 
L 203.813657 224.970156 
L 216.683462 232.866856 
L 229.553267 240.091004 
L 242.423071 247.164406 
L 255.292876 253.739192 
L 268.162681 259.165999 
L 281.032485 264.105785 
L 293.90229 268.477379 
L 299.050212 270.413868 
" clip-path="url(#p967a88588e)" style="fill: none; stroke: #1f77b4; stroke-width: 2.2; stroke-linecap: round"/>
   </g>
   <g id="line2d_34">
    <path d="M 62.245806 43.937436 
L 75.115611 62.873282 
L 87.985415 84.476149 
L 100.85522 105.035399 
L 113.725025 124.191565 
L 126.594829 140.390816 
L 139.464634 154.804323 
L 152.334439 168.464107 
L 165.204243 181.149848 
L 178.074048 191.910697 
L 190.943853 201.639524 
L 203.813657 210.974096 
L 216.683462 219.566541 
L 229.553267 226.570369 
L 242.423071 233.249516 
L 255.292876 239.395259 
L 268.162681 245.749726 
L 281.032485 251.13015 
L 293.90229 256.22068 
L 299.050212 258.122382 
L 311.920017 366.600546 
L 324.789821 366.878844 
L 337.659626 364.861185 
L 350.529431 365.649695 
L 363.399235 366.565759 
L 376.26904 366.983206 
L 389.138845 367.852886 
L 402.00865 368.14278 
L 414.878454 368.757354 
L 427.748259 369.406716 
L 440.618064 370.160439 
L 453.487868 370.856183 
L 466.357673 371.366396 
L 479.227478 371.98097 
L 492.097282 372.410013 
L 504.967087 372.804268 
L 517.836892 373.360864 
L 530.706696 373.546395 
L 543.576501 373.917459 
L 548.724423 374.091395 
" clip-path="url(#p967a88588e)" style="fill: none; stroke: #ff7f0e; stroke-width: 2.2; stroke-linecap: round"/>
   </g>
   <g id="line2d_35">
    <path d="M 62.245806 54.559135 
L 75.115611 90.505935 
L 87.985415 124.806139 
L 100.85522 152.925813 
L 113.725025 178.355274 
L 126.594829 198.92612 
L 139.464634 216.609626 
L 152.334439 231.800048 
L 165.204243 245.007598 
L 178.074048 256.835255 
L 190.943853 266.911954 
L 198.665735 272.39674 
L 211.53554 385.234903 
L 224.405345 386.324903 
L 237.27515 386.475648 
L 250.144954 386.788733 
L 263.014759 387.36852 
L 275.884564 387.310541 
L 288.754368 387.797562 
L 301.624173 388.307775 
L 314.493978 388.899158 
L 327.363782 389.386179 
L 340.233587 389.548519 
L 347.95547 389.548519 
" clip-path="url(#p967a88588e)" style="fill: none; stroke: #2ca02c; stroke-width: 2.2; stroke-linecap: round"/>
   </g>
   <g id="patch_3">
    <path d="M 37.921875 407.05577 
L 37.921875 21.89625 
" style="fill: none; stroke: #cccccc; stroke-linejoin: miter; stroke-linecap: square"/>
   </g>
   <g id="patch_4">
    <path d="M 573.048354 407.05577 
L 573.048354 21.89625 
" style="fill: none; stroke: #cccccc; stroke-linejoin: miter; stroke-linecap: square"/>
   </g>
   <g id="patch_5">
    <path d="M 37.921875 407.05577 
L 573.048354 407.05577 
" style="fill: none; stroke: #cccccc; stroke-linejoin: miter; stroke-linecap: square"/>
   </g>
   <g id="patch_6">
    <path d="M 37.921875 21.89625 
L 573.048354 21.89625 
" style="fill: none; stroke: #cccccc; stroke-linejoin: miter; stroke-linecap: square"/>
   </g>
   <g id="text_19">
    <!-- Training Convergence - Loss -->
    <g style="fill: #262626" transform="translate(228.676677 15.89625) scale(0.12 -0.12)">
     <defs>
      <path id="LiberationSans-43" d="M 2475 3981 
Q 1744 3981 1337 3511 
Q 931 3041 931 2222 
Q 931 1413 1354 920 
Q 1778 428 2500 428 
Q 3425 428 3891 1344 
L 4378 1100 
Q 4106 531 3614 234 
Q 3122 -63 2472 -63 
Q 1806 -63 1320 214 
Q 834 491 579 1005 
Q 325 1519 325 2222 
Q 325 3275 894 3872 
Q 1463 4469 2469 4469 
Q 3172 4469 3644 4194 
Q 4116 3919 4338 3378 
L 3772 3191 
Q 3619 3575 3280 3778 
Q 2941 3981 2475 3981 
z
" transform="scale(0.015625)"/>
      <path id="LiberationSans-76" d="M 1916 0 
L 1250 0 
L 22 3381 
L 622 3381 
L 1366 1181 
Q 1406 1056 1581 441 
L 1691 806 
L 1813 1175 
L 2581 3381 
L 3178 3381 
L 1916 0 
z
" transform="scale(0.015625)"/>
      <path id="LiberationSans-63" d="M 859 1706 
Q 859 1031 1071 706 
Q 1284 381 1713 381 
Q 2013 381 2214 543 
Q 2416 706 2463 1044 
L 3031 1006 
Q 2966 519 2616 228 
Q 2266 -63 1728 -63 
Q 1019 -63 645 385 
Q 272 834 272 1694 
Q 272 2547 647 2995 
Q 1022 3444 1722 3444 
Q 2241 3444 2583 3175 
Q 2925 2906 3013 2434 
L 2434 2391 
Q 2391 2672 2212 2837 
Q 2034 3003 1706 3003 
Q 1259 3003 1059 2706 
Q 859 2409 859 1706 
z
" transform="scale(0.015625)"/>
      <path id="LiberationSans-2d" d="M 284 1450 
L 284 1950 
L 1847 1950 
L 1847 1450 
L 284 1450 
z
" transform="scale(0.015625)"/>
     </defs>
     <use xlink:href="#LiberationSans-54"/>
     <use xlink:href="#LiberationSans-72" transform="translate(57.333984 0)"/>
     <use xlink:href="#LiberationSans-61" transform="translate(90.634766 0)"/>
     <use xlink:href="#LiberationSans-69" transform="translate(146.25 0)"/>
     <use xlink:href="#LiberationSans-6e" transform="translate(168.466797 0)"/>
     <use xlink:href="#LiberationSans-69" transform="translate(224.082031 0)"/>
     <use xlink:href="#LiberationSans-6e" transform="translate(246.298828 0)"/>
     <use xlink:href="#LiberationSans-67" transform="translate(301.914062 0)"/>
     <use xlink:href="#LiberationSans-20" transform="translate(357.529297 0)"/>
     <use xlink:href="#LiberationSans-43" transform="translate(385.3125 0)"/>
     <use xlink:href="#LiberationSans-6f" transform="translate(457.529297 0)"/>
     <use xlink:href="#LiberationSans-6e" transform="translate(513.144531 0)"/>
     <use xlink:href="#LiberationSans-76" transform="translate(568.759766 0)"/>
     <use xlink:href="#LiberationSans-65" transform="translate(618.759766 0)"/>
     <use xlink:href="#LiberationSans-72" transform="translate(674.375 0)"/>
     <use xlink:href="#LiberationSans-67" transform="translate(707.675781 0)"/>
     <use xlink:href="#LiberationSans-65" transform="translate(763.291016 0)"/>
     <use xlink:href="#LiberationSans-6e" transform="translate(818.90625 0)"/>
     <use xlink:href="#LiberationSans-63" transform="translate(874.521484 0)"/>
     <use xlink:href="#LiberationSans-65" transform="translate(924.521484 0)"/>
     <use xlink:href="#LiberationSans-20" transform="translate(980.136719 0)"/>
     <use xlink:href="#LiberationSans-2d" transform="translate(1007.919922 0)"/>
     <use xlink:href="#LiberationSans-20" transform="translate(1041.220703 0)"/>
     <use xlink:href="#LiberationSans-4c" transform="translate(1069.003906 0)"/>
     <use xlink:href="#LiberationSans-6f" transform="translate(1124.619141 0)"/>
     <use xlink:href="#LiberationSans-73" transform="translate(1180.234375 0)"/>
     <use xlink:href="#LiberationSans-73" transform="translate(1230.234375 0)"/>
    </g>
   </g>
  </g>
  <g id="axes_2">
   <g id="patch_7">
    <path d="M 618.073041 407.05577 
L 1153.19952 407.05577 
L 1153.19952 21.89625 
L 618.073041 21.89625 
z
" style="fill: #ffffff"/>
   </g>
   <g id="matplotlib.axis_3">
    <g id="xtick_10">
     <g id="line2d_36">
      <path d="M 629.527167 407.05577 
L 629.527167 21.89625 
" clip-path="url(#p135a6adaa2)" style="fill: none; stroke: #cccccc; stroke-opacity: 0.3; stroke-width: 0.8; stroke-linecap: round"/>
     </g>
     <g id="line2d_37"/>
     <g id="text_20">
      <!-- 0 -->
      <g style="fill: #262626" transform="translate(626.746699 417.802645) scale(0.1 -0.1)">
       <use xlink:href="#LiberationSans-30"/>
      </g>
     </g>
    </g>
    <g id="xtick_11">
     <g id="line2d_38">
      <path d="M 693.876191 407.05577 
L 693.876191 21.89625 
" clip-path="url(#p135a6adaa2)" style="fill: none; stroke: #cccccc; stroke-opacity: 0.3; stroke-width: 0.8; stroke-linecap: round"/>
     </g>
     <g id="line2d_39"/>
     <g id="text_21">
      <!-- 50 -->
      <g style="fill: #262626" transform="translate(688.315253 417.802645) scale(0.1 -0.1)">
       <use xlink:href="#LiberationSans-35"/>
       <use xlink:href="#LiberationSans-30" transform="translate(55.615234 0)"/>
      </g>
     </g>
    </g>
    <g id="xtick_12">
     <g id="line2d_40">
      <path d="M 758.225214 407.05577 
L 758.225214 21.89625 
" clip-path="url(#p135a6adaa2)" style="fill: none; stroke: #cccccc; stroke-opacity: 0.3; stroke-width: 0.8; stroke-linecap: round"/>
     </g>
     <g id="line2d_41"/>
     <g id="text_22">
      <!-- 100 -->
      <g style="fill: #262626" transform="translate(749.883808 417.802645) scale(0.1 -0.1)">
       <use xlink:href="#LiberationSans-31"/>
       <use xlink:href="#LiberationSans-30" transform="translate(55.615234 0)"/>
       <use xlink:href="#LiberationSans-30" transform="translate(111.230469 0)"/>
      </g>
     </g>
    </g>
    <g id="xtick_13">
     <g id="line2d_42">
      <path d="M 822.574238 407.05577 
L 822.574238 21.89625 
" clip-path="url(#p135a6adaa2)" style="fill: none; stroke: #cccccc; stroke-opacity: 0.3; stroke-width: 0.8; stroke-linecap: round"/>
     </g>
     <g id="line2d_43"/>
     <g id="text_23">
      <!-- 150 -->
      <g style="fill: #262626" transform="translate(814.232831 417.802645) scale(0.1 -0.1)">
       <use xlink:href="#LiberationSans-31"/>
       <use xlink:href="#LiberationSans-35" transform="translate(55.615234 0)"/>
       <use xlink:href="#LiberationSans-30" transform="translate(111.230469 0)"/>
      </g>
     </g>
    </g>
    <g id="xtick_14">
     <g id="line2d_44">
      <path d="M 886.923261 407.05577 
L 886.923261 21.89625 
" clip-path="url(#p135a6adaa2)" style="fill: none; stroke: #cccccc; stroke-opacity: 0.3; stroke-width: 0.8; stroke-linecap: round"/>
     </g>
     <g id="line2d_45"/>
     <g id="text_24">
      <!-- 200 -->
      <g style="fill: #262626" transform="translate(878.581855 417.802645) scale(0.1 -0.1)">
       <use xlink:href="#LiberationSans-32"/>
       <use xlink:href="#LiberationSans-30" transform="translate(55.615234 0)"/>
       <use xlink:href="#LiberationSans-30" transform="translate(111.230469 0)"/>
      </g>
     </g>
    </g>
    <g id="xtick_15">
     <g id="line2d_46">
      <path d="M 951.272285 407.05577 
L 951.272285 21.89625 
" clip-path="url(#p135a6adaa2)" style="fill: none; stroke: #cccccc; stroke-opacity: 0.3; stroke-width: 0.8; stroke-linecap: round"/>
     </g>
     <g id="line2d_47"/>
     <g id="text_25">
      <!-- 250 -->
      <g style="fill: #262626" transform="translate(942.930878 417.802645) scale(0.1 -0.1)">
       <use xlink:href="#LiberationSans-32"/>
       <use xlink:href="#LiberationSans-35" transform="translate(55.615234 0)"/>
       <use xlink:href="#LiberationSans-30" transform="translate(111.230469 0)"/>
      </g>
     </g>
    </g>
    <g id="xtick_16">
     <g id="line2d_48">
      <path d="M 1015.621308 407.05577 
L 1015.621308 21.89625 
" clip-path="url(#p135a6adaa2)" style="fill: none; stroke: #cccccc; stroke-opacity: 0.3; stroke-width: 0.8; stroke-linecap: round"/>
     </g>
     <g id="line2d_49"/>
     <g id="text_26">
      <!-- 300 -->
      <g style="fill: #262626" transform="translate(1007.279902 417.802645) scale(0.1 -0.1)">
       <use xlink:href="#LiberationSans-33"/>
       <use xlink:href="#LiberationSans-30" transform="translate(55.615234 0)"/>
       <use xlink:href="#LiberationSans-30" transform="translate(111.230469 0)"/>
      </g>
     </g>
    </g>
    <g id="xtick_17">
     <g id="line2d_50">
      <path d="M 1079.970331 407.05577 
L 1079.970331 21.89625 
" clip-path="url(#p135a6adaa2)" style="fill: none; stroke: #cccccc; stroke-opacity: 0.3; stroke-width: 0.8; stroke-linecap: round"/>
     </g>
     <g id="line2d_51"/>
     <g id="text_27">
      <!-- 350 -->
      <g style="fill: #262626" transform="translate(1071.628925 417.802645) scale(0.1 -0.1)">
       <use xlink:href="#LiberationSans-33"/>
       <use xlink:href="#LiberationSans-35" transform="translate(55.615234 0)"/>
       <use xlink:href="#LiberationSans-30" transform="translate(111.230469 0)"/>
      </g>
     </g>
    </g>
    <g id="xtick_18">
     <g id="line2d_52">
      <path d="M 1144.319355 407.05577 
L 1144.319355 21.89625 
" clip-path="url(#p135a6adaa2)" style="fill: none; stroke: #cccccc; stroke-opacity: 0.3; stroke-width: 0.8; stroke-linecap: round"/>
     </g>
     <g id="line2d_53"/>
     <g id="text_28">
      <!-- 400 -->
      <g style="fill: #262626" transform="translate(1135.977949 417.802645) scale(0.1 -0.1)">
       <use xlink:href="#LiberationSans-34"/>
       <use xlink:href="#LiberationSans-30" transform="translate(55.615234 0)"/>
       <use xlink:href="#LiberationSans-30" transform="translate(111.230469 0)"/>
      </g>
     </g>
    </g>
    <g id="text_29">
     <!-- Training Step -->
     <g style="fill: #262626" transform="translate(856.087062 431.12452) scale(0.1 -0.1)">
      <use xlink:href="#LiberationSans-54"/>
      <use xlink:href="#LiberationSans-72" transform="translate(57.333984 0)"/>
      <use xlink:href="#LiberationSans-61" transform="translate(90.634766 0)"/>
      <use xlink:href="#LiberationSans-69" transform="translate(146.25 0)"/>
      <use xlink:href="#LiberationSans-6e" transform="translate(168.466797 0)"/>
      <use xlink:href="#LiberationSans-69" transform="translate(224.082031 0)"/>
      <use xlink:href="#LiberationSans-6e" transform="translate(246.298828 0)"/>
      <use xlink:href="#LiberationSans-67" transform="translate(301.914062 0)"/>
      <use xlink:href="#LiberationSans-20" transform="translate(357.529297 0)"/>
      <use xlink:href="#LiberationSans-53" transform="translate(385.3125 0)"/>
      <use xlink:href="#LiberationSans-74" transform="translate(452.011719 0)"/>
      <use xlink:href="#LiberationSans-65" transform="translate(479.794922 0)"/>
      <use xlink:href="#LiberationSans-70" transform="translate(535.410156 0)"/>
     </g>
    </g>
   </g>
   <g id="matplotlib.axis_4">
    <g id="ytick_8">
     <g id="line2d_54">
      <path d="M 618.073041 345.901633 
L 1153.19952 345.901633 
" clip-path="url(#p135a6adaa2)" style="fill: none; stroke: #cccccc; stroke-opacity: 0.3; stroke-width: 0.8; stroke-linecap: round"/>
     </g>
     <g id="line2d_55"/>
     <g id="text_30">
      <!-- 20 -->
      <g style="fill: #262626" transform="translate(603.451166 349.525071) scale(0.1 -0.1)">
       <use xlink:href="#LiberationSans-32"/>
       <use xlink:href="#LiberationSans-30" transform="translate(55.615234 0)"/>
      </g>
     </g>
    </g>
    <g id="ytick_9">
     <g id="line2d_56">
      <path d="M 618.073041 268.307169 
L 1153.19952 268.307169 
" clip-path="url(#p135a6adaa2)" style="fill: none; stroke: #cccccc; stroke-opacity: 0.3; stroke-width: 0.8; stroke-linecap: round"/>
     </g>
     <g id="line2d_57"/>
     <g id="text_31">
      <!-- 40 -->
      <g style="fill: #262626" transform="translate(603.451166 271.930607) scale(0.1 -0.1)">
       <use xlink:href="#LiberationSans-34"/>
       <use xlink:href="#LiberationSans-30" transform="translate(55.615234 0)"/>
      </g>
     </g>
    </g>
    <g id="ytick_10">
     <g id="line2d_58">
      <path d="M 618.073041 190.712705 
L 1153.19952 190.712705 
" clip-path="url(#p135a6adaa2)" style="fill: none; stroke: #cccccc; stroke-opacity: 0.3; stroke-width: 0.8; stroke-linecap: round"/>
     </g>
     <g id="line2d_59"/>
     <g id="text_32">
      <!-- 60 -->
      <g style="fill: #262626" transform="translate(603.451166 194.336143) scale(0.1 -0.1)">
       <defs>
        <path id="LiberationSans-36" d="M 3278 1441 
Q 3278 744 2900 340 
Q 2522 -63 1856 -63 
Q 1113 -63 719 490 
Q 325 1044 325 2100 
Q 325 3244 734 3856 
Q 1144 4469 1900 4469 
Q 2897 4469 3156 3572 
L 2619 3475 
Q 2453 4013 1894 4013 
Q 1413 4013 1148 3564 
Q 884 3116 884 2266 
Q 1038 2550 1316 2698 
Q 1594 2847 1953 2847 
Q 2563 2847 2920 2465 
Q 3278 2084 3278 1441 
z
M 2706 1416 
Q 2706 1894 2472 2153 
Q 2238 2413 1819 2413 
Q 1425 2413 1183 2183 
Q 941 1953 941 1550 
Q 941 1041 1192 716 
Q 1444 391 1838 391 
Q 2244 391 2475 664 
Q 2706 938 2706 1416 
z
" transform="scale(0.015625)"/>
       </defs>
       <use xlink:href="#LiberationSans-36"/>
       <use xlink:href="#LiberationSans-30" transform="translate(55.615234 0)"/>
      </g>
     </g>
    </g>
    <g id="ytick_11">
     <g id="line2d_60">
      <path d="M 618.073041 113.118242 
L 1153.19952 113.118242 
" clip-path="url(#p135a6adaa2)" style="fill: none; stroke: #cccccc; stroke-opacity: 0.3; stroke-width: 0.8; stroke-linecap: round"/>
     </g>
     <g id="line2d_61"/>
     <g id="text_33">
      <!-- 80 -->
      <g style="fill: #262626" transform="translate(603.451166 116.741679) scale(0.1 -0.1)">
       <defs>
        <path id="LiberationSans-38" d="M 3281 1228 
Q 3281 619 2893 278 
Q 2506 -63 1781 -63 
Q 1075 -63 676 271 
Q 278 606 278 1222 
Q 278 1653 525 1947 
Q 772 2241 1156 2303 
L 1156 2316 
Q 797 2400 589 2681 
Q 381 2963 381 3341 
Q 381 3844 757 4156 
Q 1134 4469 1769 4469 
Q 2419 4469 2795 4162 
Q 3172 3856 3172 3334 
Q 3172 2956 2962 2675 
Q 2753 2394 2391 2322 
L 2391 2309 
Q 2813 2241 3047 1952 
Q 3281 1663 3281 1228 
z
M 2588 3303 
Q 2588 4050 1769 4050 
Q 1372 4050 1164 3862 
Q 956 3675 956 3303 
Q 956 2925 1170 2726 
Q 1384 2528 1775 2528 
Q 2172 2528 2380 2711 
Q 2588 2894 2588 3303 
z
M 2697 1281 
Q 2697 1691 2453 1898 
Q 2209 2106 1769 2106 
Q 1341 2106 1100 1882 
Q 859 1659 859 1269 
Q 859 359 1788 359 
Q 2247 359 2472 579 
Q 2697 800 2697 1281 
z
" transform="scale(0.015625)"/>
       </defs>
       <use xlink:href="#LiberationSans-38"/>
       <use xlink:href="#LiberationSans-30" transform="translate(55.615234 0)"/>
      </g>
     </g>
    </g>
    <g id="ytick_12">
     <g id="line2d_62">
      <path d="M 618.073041 35.523778 
L 1153.19952 35.523778 
" clip-path="url(#p135a6adaa2)" style="fill: none; stroke: #cccccc; stroke-opacity: 0.3; stroke-width: 0.8; stroke-linecap: round"/>
     </g>
     <g id="line2d_63"/>
     <g id="text_34">
      <!-- 100 -->
      <g style="fill: #262626" transform="translate(597.890229 39.147215) scale(0.1 -0.1)">
       <use xlink:href="#LiberationSans-31"/>
       <use xlink:href="#LiberationSans-30" transform="translate(55.615234 0)"/>
       <use xlink:href="#LiberationSans-30" transform="translate(111.230469 0)"/>
      </g>
     </g>
    </g>
    <g id="text_35">
     <!-- Accuracy (%) -->
     <g style="fill: #262626" transform="translate(591.815229 244.201791) rotate(-90) scale(0.1 -0.1)">
      <defs>
       <path id="LiberationSans-41" d="M 3647 0 
L 3144 1288 
L 1138 1288 
L 631 0 
L 13 0 
L 1809 4403 
L 2488 4403 
L 4256 0 
L 3647 0 
z
M 2141 3953 
L 2113 3866 
Q 2034 3606 1881 3200 
L 1319 1753 
L 2966 1753 
L 2400 3206 
Q 2313 3422 2225 3694 
L 2141 3953 
z
" transform="scale(0.015625)"/>
       <path id="LiberationSans-75" d="M 981 3381 
L 981 1238 
Q 981 903 1047 718 
Q 1113 534 1256 453 
Q 1400 372 1678 372 
Q 2084 372 2318 650 
Q 2553 928 2553 1422 
L 2553 3381 
L 3116 3381 
L 3116 722 
Q 3116 131 3134 0 
L 2603 0 
Q 2600 16 2597 84 
Q 2594 153 2589 242 
Q 2584 331 2578 578 
L 2569 578 
Q 2375 228 2120 82 
Q 1866 -63 1488 -63 
Q 931 -63 673 214 
Q 416 491 416 1128 
L 416 3381 
L 981 3381 
z
" transform="scale(0.015625)"/>
       <path id="LiberationSans-79" d="M 597 -1328 
Q 366 -1328 209 -1294 
L 209 -872 
Q 328 -891 472 -891 
Q 997 -891 1303 -119 
L 1356 16 
L 16 3381 
L 616 3381 
L 1328 1513 
Q 1344 1469 1366 1408 
Q 1388 1347 1506 1000 
Q 1625 653 1634 613 
L 1853 1228 
L 2594 3381 
L 3188 3381 
L 1888 0 
Q 1678 -541 1497 -805 
Q 1316 -1069 1095 -1198 
Q 875 -1328 597 -1328 
z
" transform="scale(0.015625)"/>
       <path id="LiberationSans-28" d="M 397 1663 
Q 397 2566 680 3284 
Q 963 4003 1550 4638 
L 2094 4638 
Q 1509 3988 1236 3256 
Q 963 2525 963 1656 
Q 963 791 1233 62 
Q 1503 -666 2094 -1325 
L 1550 -1325 
Q 959 -688 678 32 
Q 397 753 397 1650 
L 397 1663 
z
" transform="scale(0.015625)"/>
       <path id="LiberationSans-25" d="M 5463 1356 
Q 5463 684 5209 323 
Q 4956 -38 4463 -38 
Q 3975 -38 3726 314 
Q 3478 666 3478 1356 
Q 3478 2069 3717 2417 
Q 3956 2766 4475 2766 
Q 4988 2766 5225 2408 
Q 5463 2050 5463 1356 
z
M 1647 0 
L 1163 0 
L 4044 4403 
L 4534 4403 
L 1647 0 
z
M 1231 4441 
Q 1728 4441 1968 4091 
Q 2209 3741 2209 3047 
Q 2209 2369 1961 2003 
Q 1713 1638 1219 1638 
Q 725 1638 476 2000 
Q 228 2363 228 3047 
Q 228 3744 468 4092 
Q 709 4441 1231 4441 
z
M 5000 1356 
Q 5000 1916 4879 2167 
Q 4759 2419 4475 2419 
Q 4191 2419 4064 2172 
Q 3938 1925 3938 1356 
Q 3938 822 4061 564 
Q 4184 306 4469 306 
Q 4744 306 4872 567 
Q 5000 828 5000 1356 
z
M 1750 3047 
Q 1750 3597 1631 3850 
Q 1513 4103 1231 4103 
Q 938 4103 813 3854 
Q 688 3606 688 3047 
Q 688 2506 813 2248 
Q 938 1991 1225 1991 
Q 1497 1991 1623 2253 
Q 1750 2516 1750 3047 
z
" transform="scale(0.015625)"/>
       <path id="LiberationSans-29" d="M 1734 1650 
Q 1734 747 1451 28 
Q 1169 -691 581 -1325 
L 38 -1325 
Q 625 -669 897 57 
Q 1169 784 1169 1656 
Q 1169 2528 895 3256 
Q 622 3984 38 4638 
L 581 4638 
Q 1172 4000 1453 3279 
Q 1734 2559 1734 1663 
L 1734 1650 
z
" transform="scale(0.015625)"/>
      </defs>
      <use xlink:href="#LiberationSans-41"/>
      <use xlink:href="#LiberationSans-63" transform="translate(66.699219 0)"/>
      <use xlink:href="#LiberationSans-63" transform="translate(116.699219 0)"/>
      <use xlink:href="#LiberationSans-75" transform="translate(166.699219 0)"/>
      <use xlink:href="#LiberationSans-72" transform="translate(222.314453 0)"/>
      <use xlink:href="#LiberationSans-61" transform="translate(255.615234 0)"/>
      <use xlink:href="#LiberationSans-63" transform="translate(311.230469 0)"/>
      <use xlink:href="#LiberationSans-79" transform="translate(361.230469 0)"/>
      <use xlink:href="#LiberationSans-20" transform="translate(411.230469 0)"/>
      <use xlink:href="#LiberationSans-28" transform="translate(439.013672 0)"/>
      <use xlink:href="#LiberationSans-25" transform="translate(472.314453 0)"/>
      <use xlink:href="#LiberationSans-29" transform="translate(561.230469 0)"/>
     </g>
    </g>
   </g>
   <g id="line2d_64">
    <path d="M 642.396972 389.548519 
L 655.266777 343.496205 
L 668.136581 308.733885 
L 681.006386 281.653417 
L 693.876191 260.858101 
L 706.745996 245.416802 
L 719.6158 229.277154 
L 732.485605 215.969703 
L 745.35541 203.632184 
L 758.225214 194.282051 
L 771.095019 187.337346 
L 783.964824 179.810683 
L 796.834628 173.059965 
L 809.704433 166.930002 
L 822.574238 160.761242 
L 835.444042 154.63128 
L 848.313847 150.092004 
L 861.183652 145.901903 
L 874.053456 142.487746 
L 879.201378 140.935857 
" clip-path="url(#p135a6adaa2)" style="fill: none; stroke: #1f77b4; stroke-width: 2.2; stroke-linecap: round"/>
   </g>
   <g id="line2d_65">
    <path d="M 642.396972 381.478695 
L 655.266777 353.971457 
L 668.136581 321.653363 
L 681.006386 294.572895 
L 693.876191 271.876515 
L 706.745996 254.029788 
L 719.6158 239.209245 
L 732.485605 224.85427 
L 745.35541 210.111321 
L 758.225214 201.071566 
L 771.095019 192.458581 
L 783.964824 184.660337 
L 796.834628 177.405255 
L 809.704433 171.896048 
L 822.574238 165.610896 
L 835.444042 159.713717 
L 848.313847 154.20451 
L 861.183652 149.58764 
L 874.053456 145.009566 
L 879.201378 143.612866 
L 892.071183 53.29291 
L 904.940988 53.29291 
L 917.810792 54.379232 
L 930.680597 53.29291 
L 943.550402 52.982532 
L 956.420206 51.973804 
L 969.290011 50.07274 
L 982.159816 50.460712 
L 995.02962 50.421915 
L 1007.899425 49.917551 
L 1020.76923 49.335592 
L 1033.639034 48.870026 
L 1046.508839 48.443256 
L 1059.378644 47.977689 
L 1072.248449 47.473325 
L 1085.118253 47.434528 
L 1097.988058 47.512122 
L 1110.857863 47.55092 
L 1123.727667 47.279339 
L 1128.875589 47.279339 
" clip-path="url(#p135a6adaa2)" style="fill: none; stroke: #ff7f0e; stroke-width: 2.2; stroke-linecap: round"/>
   </g>
   <g id="line2d_66">
    <path d="M 642.396972 375.969488 
L 655.266777 326.503017 
L 668.136581 277.036546 
L 681.006386 247.201475 
L 693.876191 220.392588 
L 706.745996 199.286894 
L 719.6158 181.711748 
L 732.485605 168.520689 
L 745.35541 157.075505 
L 758.225214 147.06582 
L 771.095019 138.530428 
L 778.816902 134.02995 
L 791.686706 39.403501 
L 804.556511 41.808929 
L 817.426316 42.972846 
L 830.29612 43.050441 
L 843.165925 42.895252 
L 856.03573 43.128035 
L 868.905535 42.856455 
L 881.775339 42.546077 
L 894.645144 42.08051 
L 907.514949 42.041713 
L 920.384753 42.119307 
L 928.106636 42.196902 
" clip-path="url(#p135a6adaa2)" style="fill: none; stroke: #2ca02c; stroke-width: 2.2; stroke-linecap: round"/>
   </g>
   <g id="patch_8">
    <path d="M 618.073041 407.05577 
L 618.073041 21.89625 
" style="fill: none; stroke: #cccccc; stroke-linejoin: miter; stroke-linecap: square"/>
   </g>
   <g id="patch_9">
    <path d="M 1153.19952 407.05577 
L 1153.19952 21.89625 
" style="fill: none; stroke: #cccccc; stroke-linejoin: miter; stroke-linecap: square"/>
   </g>
   <g id="patch_10">
    <path d="M 618.073041 407.05577 
L 1153.19952 407.05577 
" style="fill: none; stroke: #cccccc; stroke-linejoin: miter; stroke-linecap: square"/>
   </g>
   <g id="patch_11">
    <path d="M 618.073041 21.89625 
L 1153.19952 21.89625 
" style="fill: none; stroke: #cccccc; stroke-linejoin: miter; stroke-linecap: square"/>
   </g>
   <g id="text_36">
    <!-- Training Convergence - Accuracy -->
    <g style="fill: #262626" transform="translate(797.157843 15.89625) scale(0.12 -0.12)">
     <use xlink:href="#LiberationSans-54"/>
     <use xlink:href="#LiberationSans-72" transform="translate(57.333984 0)"/>
     <use xlink:href="#LiberationSans-61" transform="translate(90.634766 0)"/>
     <use xlink:href="#LiberationSans-69" transform="translate(146.25 0)"/>
     <use xlink:href="#LiberationSans-6e" transform="translate(168.466797 0)"/>
     <use xlink:href="#LiberationSans-69" transform="translate(224.082031 0)"/>
     <use xlink:href="#LiberationSans-6e" transform="translate(246.298828 0)"/>
     <use xlink:href="#LiberationSans-67" transform="translate(301.914062 0)"/>
     <use xlink:href="#LiberationSans-20" transform="translate(357.529297 0)"/>
     <use xlink:href="#LiberationSans-43" transform="translate(385.3125 0)"/>
     <use xlink:href="#LiberationSans-6f" transform="translate(457.529297 0)"/>
     <use xlink:href="#LiberationSans-6e" transform="translate(513.144531 0)"/>
     <use xlink:href="#LiberationSans-76" transform="translate(568.759766 0)"/>
     <use xlink:href="#LiberationSans-65" transform="translate(618.759766 0)"/>
     <use xlink:href="#LiberationSans-72" transform="translate(674.375 0)"/>
     <use xlink:href="#LiberationSans-67" transform="translate(707.675781 0)"/>
     <use xlink:href="#LiberationSans-65" transform="translate(763.291016 0)"/>
     <use xlink:href="#LiberationSans-6e" transform="translate(818.90625 0)"/>
     <use xlink:href="#LiberationSans-63" transform="translate(874.521484 0)"/>
     <use xlink:href="#LiberationSans-65" transform="translate(924.521484 0)"/>
     <use xlink:href="#LiberationSans-20" transform="translate(980.136719 0)"/>
     <use xlink:href="#LiberationSans-2d" transform="translate(1007.919922 0)"/>
     <use xlink:href="#LiberationSans-20" transform="translate(1041.220703 0)"/>
     <use xlink:href="#LiberationSans-41" transform="translate(1063.503906 0)"/>
     <use xlink:href="#LiberationSans-63" transform="translate(1130.203125 0)"/>
     <use xlink:href="#LiberationSans-63" transform="translate(1180.203125 0)"/>
     <use xlink:href="#LiberationSans-75" transform="translate(1230.203125 0)"/>
     <use xlink:href="#LiberationSans-72" transform="translate(1285.818359 0)"/>
     <use xlink:href="#LiberationSans-61" transform="translate(1319.119141 0)"/>
     <use xlink:href="#LiberationSans-63" transform="translate(1374.734375 0)"/>
     <use xlink:href="#LiberationSans-79" transform="translate(1424.734375 0)"/>
    </g>
   </g>
   <g id="legend_1">
    <g id="line2d_67">
     <path d="M 976.00077 368.04077 
L 985.00077 368.04077 
L 994.00077 368.04077 
" style="fill: none; stroke: #1f77b4; stroke-width: 2.2; stroke-linecap: round"/>
    </g>
    <g id="text_37">
     <!-- 3DResNet18 (r3d_18) | F16-B24-E1 -->
     <g style="fill: #262626" transform="translate(1001.20077 371.19077) scale(0.09 -0.09)">
      <defs>
       <path id="LiberationSans-44" d="M 4316 2247 
Q 4316 1566 4050 1055 
Q 3784 544 3296 272 
Q 2809 0 2172 0 
L 525 0 
L 525 4403 
L 1981 4403 
Q 3100 4403 3708 3842 
Q 4316 3281 4316 2247 
z
M 3716 2247 
Q 3716 3066 3267 3495 
Q 2819 3925 1969 3925 
L 1122 3925 
L 1122 478 
L 2103 478 
Q 2588 478 2955 690 
Q 3322 903 3519 1303 
Q 3716 1703 3716 2247 
z
" transform="scale(0.015625)"/>
       <path id="LiberationSans-52" d="M 3638 0 
L 2494 1828 
L 1122 1828 
L 1122 0 
L 525 0 
L 525 4403 
L 2597 4403 
Q 3341 4403 3745 4070 
Q 4150 3738 4150 3144 
Q 4150 2653 3864 2318 
Q 3578 1984 3075 1897 
L 4325 0 
L 3638 0 
z
M 3550 3138 
Q 3550 3522 3289 3723 
Q 3028 3925 2538 3925 
L 1122 3925 
L 1122 2300 
L 2563 2300 
Q 3034 2300 3292 2520 
Q 3550 2741 3550 3138 
z
" transform="scale(0.015625)"/>
       <path id="LiberationSans-4e" d="M 3381 0 
L 1025 3750 
L 1041 3447 
L 1056 2925 
L 1056 0 
L 525 0 
L 525 4403 
L 1219 4403 
L 3600 628 
Q 3563 1241 3563 1516 
L 3563 4403 
L 4100 4403 
L 4100 0 
L 3381 0 
z
" transform="scale(0.015625)"/>
       <path id="LiberationSans-64" d="M 2566 544 
Q 2409 219 2151 78 
Q 1894 -63 1513 -63 
Q 872 -63 570 368 
Q 269 800 269 1675 
Q 269 3444 1513 3444 
Q 1897 3444 2153 3303 
Q 2409 3163 2566 2856 
L 2572 2856 
L 2566 3234 
L 2566 4638 
L 3128 4638 
L 3128 697 
Q 3128 169 3147 0 
L 2609 0 
Q 2600 50 2589 231 
Q 2578 413 2578 544 
L 2566 544 
z
M 859 1694 
Q 859 984 1046 678 
Q 1234 372 1656 372 
Q 2134 372 2350 703 
Q 2566 1034 2566 1731 
Q 2566 2403 2350 2715 
Q 2134 3028 1663 3028 
Q 1238 3028 1048 2714 
Q 859 2400 859 1694 
z
" transform="scale(0.015625)"/>
       <path id="LiberationSans-5f" d="M -97 -1272 
L -97 -866 
L 3631 -866 
L 3631 -1272 
L -97 -1272 
z
" transform="scale(0.015625)"/>
       <path id="LiberationSans-7c" d="M 572 -1356 
L 572 4638 
L 1091 4638 
L 1091 -1356 
L 572 -1356 
z
" transform="scale(0.015625)"/>
       <path id="LiberationSans-46" d="M 1122 3916 
L 1122 2278 
L 3578 2278 
L 3578 1784 
L 1122 1784 
L 1122 0 
L 525 0 
L 525 4403 
L 3653 4403 
L 3653 3916 
L 1122 3916 
z
" transform="scale(0.015625)"/>
       <path id="LiberationSans-42" d="M 3931 1241 
Q 3931 653 3503 326 
Q 3075 0 2313 0 
L 525 0 
L 525 4403 
L 2125 4403 
Q 3675 4403 3675 3334 
Q 3675 2944 3456 2678 
Q 3238 2413 2838 2322 
Q 3363 2259 3647 1970 
Q 3931 1681 3931 1241 
z
M 3075 3263 
Q 3075 3619 2831 3772 
Q 2588 3925 2125 3925 
L 1122 3925 
L 1122 2531 
L 2125 2531 
Q 2603 2531 2839 2711 
Q 3075 2891 3075 3263 
z
M 3328 1288 
Q 3328 2066 2234 2066 
L 1122 2066 
L 1122 478 
L 2281 478 
Q 2828 478 3078 681 
Q 3328 884 3328 1288 
z
" transform="scale(0.015625)"/>
       <path id="LiberationSans-45" d="M 525 0 
L 525 4403 
L 3866 4403 
L 3866 3916 
L 1122 3916 
L 1122 2503 
L 3678 2503 
L 3678 2022 
L 1122 2022 
L 1122 488 
L 3994 488 
L 3994 0 
L 525 0 
z
" transform="scale(0.015625)"/>
      </defs>
      <use xlink:href="#LiberationSans-33"/>
      <use xlink:href="#LiberationSans-44" transform="translate(55.615234 0)"/>
      <use xlink:href="#LiberationSans-52" transform="translate(127.832031 0)"/>
      <use xlink:href="#LiberationSans-65" transform="translate(200.048828 0)"/>
      <use xlink:href="#LiberationSans-73" transform="translate(255.664062 0)"/>
      <use xlink:href="#LiberationSans-4e" transform="translate(305.664062 0)"/>
      <use xlink:href="#LiberationSans-65" transform="translate(377.880859 0)"/>
      <use xlink:href="#LiberationSans-74" transform="translate(433.496094 0)"/>
      <use xlink:href="#LiberationSans-31" transform="translate(461.279297 0)"/>
      <use xlink:href="#LiberationSans-38" transform="translate(516.894531 0)"/>
      <use xlink:href="#LiberationSans-20" transform="translate(572.509766 0)"/>
      <use xlink:href="#LiberationSans-28" transform="translate(600.292969 0)"/>
      <use xlink:href="#LiberationSans-72" transform="translate(633.59375 0)"/>
      <use xlink:href="#LiberationSans-33" transform="translate(666.894531 0)"/>
      <use xlink:href="#LiberationSans-64" transform="translate(722.509766 0)"/>
      <use xlink:href="#LiberationSans-5f" transform="translate(778.125 0)"/>
      <use xlink:href="#LiberationSans-31" transform="translate(833.740234 0)"/>
      <use xlink:href="#LiberationSans-38" transform="translate(889.355469 0)"/>
      <use xlink:href="#LiberationSans-29" transform="translate(944.970703 0)"/>
      <use xlink:href="#LiberationSans-20" transform="translate(978.271484 0)"/>
      <use xlink:href="#LiberationSans-7c" transform="translate(1006.054688 0)"/>
      <use xlink:href="#LiberationSans-20" transform="translate(1032.03125 0)"/>
      <use xlink:href="#LiberationSans-46" transform="translate(1059.814453 0)"/>
      <use xlink:href="#LiberationSans-31" transform="translate(1120.898438 0)"/>
      <use xlink:href="#LiberationSans-36" transform="translate(1176.513672 0)"/>
      <use xlink:href="#LiberationSans-2d" transform="translate(1232.128906 0)"/>
      <use xlink:href="#LiberationSans-42" transform="translate(1265.429688 0)"/>
      <use xlink:href="#LiberationSans-32" transform="translate(1332.128906 0)"/>
      <use xlink:href="#LiberationSans-34" transform="translate(1387.744141 0)"/>
      <use xlink:href="#LiberationSans-2d" transform="translate(1443.359375 0)"/>
      <use xlink:href="#LiberationSans-45" transform="translate(1476.660156 0)"/>
      <use xlink:href="#LiberationSans-31" transform="translate(1543.359375 0)"/>
     </g>
    </g>
    <g id="line2d_68">
     <path d="M 976.00077 380.969832 
L 985.00077 380.969832 
L 994.00077 380.969832 
" style="fill: none; stroke: #ff7f0e; stroke-width: 2.2; stroke-linecap: round"/>
    </g>
    <g id="text_38">
     <!-- MC3-18 | F16-B24-E2 -->
     <g style="fill: #262626" transform="translate(1001.20077 384.119832) scale(0.09 -0.09)">
      <defs>
       <path id="LiberationSans-4d" d="M 4269 0 
L 4269 2938 
Q 4269 3425 4297 3875 
Q 4144 3316 4022 3000 
L 2884 0 
L 2466 0 
L 1313 3000 
L 1138 3531 
L 1034 3875 
L 1044 3528 
L 1056 2938 
L 1056 0 
L 525 0 
L 525 4403 
L 1309 4403 
L 2481 1350 
Q 2544 1166 2601 955 
Q 2659 744 2678 650 
Q 2703 775 2783 1029 
Q 2863 1284 2891 1350 
L 4041 4403 
L 4806 4403 
L 4806 0 
L 4269 0 
z
" transform="scale(0.015625)"/>
      </defs>
      <use xlink:href="#LiberationSans-4d"/>
      <use xlink:href="#LiberationSans-43" transform="translate(83.300781 0)"/>
      <use xlink:href="#LiberationSans-33" transform="translate(155.517578 0)"/>
      <use xlink:href="#LiberationSans-2d" transform="translate(211.132812 0)"/>
      <use xlink:href="#LiberationSans-31" transform="translate(244.433594 0)"/>
      <use xlink:href="#LiberationSans-38" transform="translate(300.048828 0)"/>
      <use xlink:href="#LiberationSans-20" transform="translate(355.664062 0)"/>
      <use xlink:href="#LiberationSans-7c" transform="translate(383.447266 0)"/>
      <use xlink:href="#LiberationSans-20" transform="translate(409.423828 0)"/>
      <use xlink:href="#LiberationSans-46" transform="translate(437.207031 0)"/>
      <use xlink:href="#LiberationSans-31" transform="translate(498.291016 0)"/>
      <use xlink:href="#LiberationSans-36" transform="translate(553.90625 0)"/>
      <use xlink:href="#LiberationSans-2d" transform="translate(609.521484 0)"/>
      <use xlink:href="#LiberationSans-42" transform="translate(642.822266 0)"/>
      <use xlink:href="#LiberationSans-32" transform="translate(709.521484 0)"/>
      <use xlink:href="#LiberationSans-34" transform="translate(765.136719 0)"/>
      <use xlink:href="#LiberationSans-2d" transform="translate(820.751953 0)"/>
      <use xlink:href="#LiberationSans-45" transform="translate(854.052734 0)"/>
      <use xlink:href="#LiberationSans-32" transform="translate(920.751953 0)"/>
     </g>
    </g>
    <g id="line2d_69">
     <path d="M 976.00077 393.898895 
L 985.00077 393.898895 
L 994.00077 393.898895 
" style="fill: none; stroke: #2ca02c; stroke-width: 2.2; stroke-linecap: round"/>
    </g>
    <g id="text_39">
     <!-- R(2+1)D-18 | F32-B40-E2 -->
     <g style="fill: #262626" transform="translate(1001.20077 397.048895) scale(0.09 -0.09)">
      <defs>
       <path id="LiberationSans-2b" d="M 2097 1900 
L 2097 563 
L 1638 563 
L 1638 1900 
L 313 1900 
L 313 2356 
L 1638 2356 
L 1638 3694 
L 2097 3694 
L 2097 2356 
L 3422 2356 
L 3422 1900 
L 2097 1900 
z
" transform="scale(0.015625)"/>
      </defs>
      <use xlink:href="#LiberationSans-52"/>
      <use xlink:href="#LiberationSans-28" transform="translate(72.216797 0)"/>
      <use xlink:href="#LiberationSans-32" transform="translate(105.517578 0)"/>
      <use xlink:href="#LiberationSans-2b" transform="translate(161.132812 0)"/>
      <use xlink:href="#LiberationSans-31" transform="translate(219.53125 0)"/>
      <use xlink:href="#LiberationSans-29" transform="translate(275.146484 0)"/>
      <use xlink:href="#LiberationSans-44" transform="translate(308.447266 0)"/>
      <use xlink:href="#LiberationSans-2d" transform="translate(380.664062 0)"/>
      <use xlink:href="#LiberationSans-31" transform="translate(413.964844 0)"/>
      <use xlink:href="#LiberationSans-38" transform="translate(469.580078 0)"/>
      <use xlink:href="#LiberationSans-20" transform="translate(525.195312 0)"/>
      <use xlink:href="#LiberationSans-7c" transform="translate(552.978516 0)"/>
      <use xlink:href="#LiberationSans-20" transform="translate(578.955078 0)"/>
      <use xlink:href="#LiberationSans-46" transform="translate(606.738281 0)"/>
      <use xlink:href="#LiberationSans-33" transform="translate(667.822266 0)"/>
      <use xlink:href="#LiberationSans-32" transform="translate(723.4375 0)"/>
      <use xlink:href="#LiberationSans-2d" transform="translate(779.052734 0)"/>
      <use xlink:href="#LiberationSans-42" transform="translate(812.353516 0)"/>
      <use xlink:href="#LiberationSans-34" transform="translate(879.052734 0)"/>
      <use xlink:href="#LiberationSans-30" transform="translate(934.667969 0)"/>
      <use xlink:href="#LiberationSans-2d" transform="translate(990.283203 0)"/>
      <use xlink:href="#LiberationSans-45" transform="translate(1023.583984 0)"/>
      <use xlink:href="#LiberationSans-32" transform="translate(1090.283203 0)"/>
     </g>
    </g>
   </g>
  </g>
 </g>
 <defs>
  <clipPath id="p967a88588e">
   <rect x="37.921875" y="21.89625" width="535.126479" height="385.15952"/>
  </clipPath>
  <clipPath id="p135a6adaa2">
   <rect x="618.073041" y="21.89625" width="535.126479" height="385.15952"/>
  </clipPath>
 </defs>
</svg>
