<?xml version="1.0" encoding="utf-8" standalone="no"?>
<!DOCTYPE svg PUBLIC "-//W3C//DTD SVG 1.1//EN"
  "http://www.w3.org/Graphics/SVG/1.1/DTD/svg11.dtd">
<svg xmlns:xlink="http://www.w3.org/1999/xlink" width="800.41701pt" height="584.39952pt" viewBox="0 0 800.41701 584.39952" xmlns="http://www.w3.org/2000/svg" version="1.1">
 <metadata>
  <rdf:RDF xmlns:dc="http://purl.org/dc/elements/1.1/" xmlns:cc="http://creativecommons.org/ns#" xmlns:rdf="http://www.w3.org/1999/02/22-rdf-syntax-ns#">
   <cc:Work>
    <dc:type rdf:resource="http://purl.org/dc/dcmitype/StillImage"/>
    <dc:date>2026-04-13T21:21:23.872609</dc:date>
    <dc:format>image/svg+xml</dc:format>
    <dc:creator>
     <cc:Agent>
      <dc:title>Matplotlib v3.10.8, https://matplotlib.org/</dc:title>
     </cc:Agent>
    </dc:creator>
   </cc:Work>
  </rdf:RDF>
 </metadata>
 <defs>
  <style type="text/css">*{stroke-linejoin: round; stroke-linecap: butt}</style>
 </defs>
 <g id="figure_1">
  <g id="patch_1">
   <path d="M 0 584.39952 
L 800.41701 584.39952 
L 800.41701 0 
L 0 0 
z
" style="fill: #ffffff"/>
  </g>
  <g id="axes_1">
   <g id="patch_2">
    <path d="M 62.116875 527.309989 
L 633.066762 527.309989 
L 633.066762 26.877187 
L 62.116875 26.877187 
z
" style="fill: #ffffff"/>
   </g>
   <g id="matplotlib.axis_1">
    <g id="xtick_1">
     <g id="line2d_1">
      <path d="M 113.824709 527.309989 
L 113.824709 26.877187 
" clip-path="url(#pd23941548c)" style="fill: none; stroke: #cccccc; stroke-opacity: 0.3; stroke-width: 1.5; stroke-linecap: round"/>
     </g>
     <g id="text_1">
      <!-- 2.8 -->
      <g style="fill: #262626" transform="translate(100.704631 552.347411) scale(0.165 -0.165)">
       <defs>
        <path id="DejaVuSans-32" d="M 1228 531 
L 3431 531 
L 3431 0 
L 469 0 
L 469 531 
Q 828 903 1448 1529 
Q 2069 2156 2228 2338 
Q 2531 2678 2651 2914 
Q 2772 3150 2772 3378 
Q 2772 3750 2511 3984 
Q 2250 4219 1831 4219 
Q 1534 4219 1204 4116 
Q 875 4013 500 3803 
L 500 4441 
Q 881 4594 1212 4672 
Q 1544 4750 1819 4750 
Q 2544 4750 2975 4387 
Q 3406 4025 3406 3419 
Q 3406 3131 3298 2873 
Q 3191 2616 2906 2266 
Q 2828 2175 2409 1742 
Q 1991 1309 1228 531 
z
" transform="scale(0.015625)"/>
        <path id="DejaVuSans-2e" d="M 684 794 
L 1344 794 
L 1344 0 
L 684 0 
L 684 794 
z
" transform="scale(0.015625)"/>
        <path id="DejaVuSans-38" d="M 2034 2216 
Q 1584 2216 1326 1975 
Q 1069 1734 1069 1313 
Q 1069 891 1326 650 
Q 1584 409 2034 409 
Q 2484 409 2743 651 
Q 3003 894 3003 1313 
Q 3003 1734 2745 1975 
Q 2488 2216 2034 2216 
z
M 1403 2484 
Q 997 2584 770 2862 
Q 544 3141 544 3541 
Q 544 4100 942 4425 
Q 1341 4750 2034 4750 
Q 2731 4750 3128 4425 
Q 3525 4100 3525 3541 
Q 3525 3141 3298 2862 
Q 3072 2584 2669 2484 
Q 3125 2378 3379 2068 
Q 3634 1759 3634 1313 
Q 3634 634 3220 271 
Q 2806 -91 2034 -91 
Q 1263 -91 848 271 
Q 434 634 434 1313 
Q 434 1759 690 2068 
Q 947 2378 1403 2484 
z
M 1172 3481 
Q 1172 3119 1398 2916 
Q 1625 2713 2034 2713 
Q 2441 2713 2670 2916 
Q 2900 3119 2900 3481 
Q 2900 3844 2670 4047 
Q 2441 4250 2034 4250 
Q 1625 4250 1398 4047 
Q 1172 3844 1172 3481 
z
" transform="scale(0.015625)"/>
       </defs>
       <use xlink:href="#DejaVuSans-32"/>
       <use xlink:href="#DejaVuSans-2e" transform="translate(63.623047 0)"/>
       <use xlink:href="#DejaVuSans-38" transform="translate(95.410156 0)"/>
      </g>
     </g>
    </g>
    <g id="xtick_2">
     <g id="line2d_2">
      <path d="M 236.762973 527.309989 
L 236.762973 26.877187 
" clip-path="url(#pd23941548c)" style="fill: none; stroke: #cccccc; stroke-opacity: 0.3; stroke-width: 1.5; stroke-linecap: round"/>
     </g>
     <g id="text_2">
      <!-- 3.0 -->
      <g style="fill: #262626" transform="translate(223.642895 552.347411) scale(0.165 -0.165)">
       <defs>
        <path id="DejaVuSans-33" d="M 2597 2516 
Q 3050 2419 3304 2112 
Q 3559 1806 3559 1356 
Q 3559 666 3084 287 
Q 2609 -91 1734 -91 
Q 1441 -91 1130 -33 
Q 819 25 488 141 
L 488 750 
Q 750 597 1062 519 
Q 1375 441 1716 441 
Q 2309 441 2620 675 
Q 2931 909 2931 1356 
Q 2931 1769 2642 2001 
Q 2353 2234 1838 2234 
L 1294 2234 
L 1294 2753 
L 1863 2753 
Q 2328 2753 2575 2939 
Q 2822 3125 2822 3475 
Q 2822 3834 2567 4026 
Q 2313 4219 1838 4219 
Q 1578 4219 1281 4162 
Q 984 4106 628 3988 
L 628 4550 
Q 988 4650 1302 4700 
Q 1616 4750 1894 4750 
Q 2613 4750 3031 4423 
Q 3450 4097 3450 3541 
Q 3450 3153 3228 2886 
Q 3006 2619 2597 2516 
z
" transform="scale(0.015625)"/>
        <path id="DejaVuSans-30" d="M 2034 4250 
Q 1547 4250 1301 3770 
Q 1056 3291 1056 2328 
Q 1056 1369 1301 889 
Q 1547 409 2034 409 
Q 2525 409 2770 889 
Q 3016 1369 3016 2328 
Q 3016 3291 2770 3770 
Q 2525 4250 2034 4250 
z
M 2034 4750 
Q 2819 4750 3233 4129 
Q 3647 3509 3647 2328 
Q 3647 1150 3233 529 
Q 2819 -91 2034 -91 
Q 1250 -91 836 529 
Q 422 1150 422 2328 
Q 422 3509 836 4129 
Q 1250 4750 2034 4750 
z
" transform="scale(0.015625)"/>
       </defs>
       <use xlink:href="#DejaVuSans-33"/>
       <use xlink:href="#DejaVuSans-2e" transform="translate(63.623047 0)"/>
       <use xlink:href="#DejaVuSans-30" transform="translate(95.410156 0)"/>
      </g>
     </g>
    </g>
    <g id="xtick_3">
     <g id="line2d_3">
      <path d="M 359.701238 527.309989 
L 359.701238 26.877187 
" clip-path="url(#pd23941548c)" style="fill: none; stroke: #cccccc; stroke-opacity: 0.3; stroke-width: 1.5; stroke-linecap: round"/>
     </g>
     <g id="text_3">
      <!-- 3.2 -->
      <g style="fill: #262626" transform="translate(346.581159 552.347411) scale(0.165 -0.165)">
       <use xlink:href="#DejaVuSans-33"/>
       <use xlink:href="#DejaVuSans-2e" transform="translate(63.623047 0)"/>
       <use xlink:href="#DejaVuSans-32" transform="translate(95.410156 0)"/>
      </g>
     </g>
    </g>
    <g id="xtick_4">
     <g id="line2d_4">
      <path d="M 482.639502 527.309989 
L 482.639502 26.877187 
" clip-path="url(#pd23941548c)" style="fill: none; stroke: #cccccc; stroke-opacity: 0.3; stroke-width: 1.5; stroke-linecap: round"/>
     </g>
     <g id="text_4">
      <!-- 3.4 -->
      <g style="fill: #262626" transform="translate(469.519424 552.347411) scale(0.165 -0.165)">
       <defs>
        <path id="DejaVuSans-34" d="M 2419 4116 
L 825 1625 
L 2419 1625 
L 2419 4116 
z
M 2253 4666 
L 3047 4666 
L 3047 1625 
L 3713 1625 
L 3713 1100 
L 3047 1100 
L 3047 0 
L 2419 0 
L 2419 1100 
L 313 1100 
L 313 1709 
L 2253 4666 
z
" transform="scale(0.015625)"/>
       </defs>
       <use xlink:href="#DejaVuSans-33"/>
       <use xlink:href="#DejaVuSans-2e" transform="translate(63.623047 0)"/>
       <use xlink:href="#DejaVuSans-34" transform="translate(95.410156 0)"/>
      </g>
     </g>
    </g>
    <g id="xtick_5">
     <g id="line2d_5">
      <path d="M 605.577766 527.309989 
L 605.577766 26.877187 
" clip-path="url(#pd23941548c)" style="fill: none; stroke: #cccccc; stroke-opacity: 0.3; stroke-width: 1.5; stroke-linecap: round"/>
     </g>
     <g id="text_5">
      <!-- 3.6 -->
      <g style="fill: #262626" transform="translate(592.457688 552.347411) scale(0.165 -0.165)">
       <defs>
        <path id="DejaVuSans-36" d="M 2113 2584 
Q 1688 2584 1439 2293 
Q 1191 2003 1191 1497 
Q 1191 994 1439 701 
Q 1688 409 2113 409 
Q 2538 409 2786 701 
Q 3034 994 3034 1497 
Q 3034 2003 2786 2293 
Q 2538 2584 2113 2584 
z
M 3366 4563 
L 3366 3988 
Q 3128 4100 2886 4159 
Q 2644 4219 2406 4219 
Q 1781 4219 1451 3797 
Q 1122 3375 1075 2522 
Q 1259 2794 1537 2939 
Q 1816 3084 2150 3084 
Q 2853 3084 3261 2657 
Q 3669 2231 3669 1497 
Q 3669 778 3244 343 
Q 2819 -91 2113 -91 
Q 1303 -91 875 529 
Q 447 1150 447 2328 
Q 447 3434 972 4092 
Q 1497 4750 2381 4750 
Q 2619 4750 2861 4703 
Q 3103 4656 3366 4563 
z
" transform="scale(0.015625)"/>
       </defs>
       <use xlink:href="#DejaVuSans-33"/>
       <use xlink:href="#DejaVuSans-2e" transform="translate(63.623047 0)"/>
       <use xlink:href="#DejaVuSans-36" transform="translate(95.410156 0)"/>
      </g>
     </g>
    </g>
    <g id="text_6">
     <!-- Mean Prediction Entropy -->
     <g style="fill: #262626" transform="translate(237.679319 573.456082) scale(0.18 -0.18)">
      <defs>
       <path id="DejaVuSans-4d" d="M 628 4666 
L 1569 4666 
L 2759 1491 
L 3956 4666 
L 4897 4666 
L 4897 0 
L 4281 0 
L 4281 4097 
L 3078 897 
L 2444 897 
L 1241 4097 
L 1241 0 
L 628 0 
L 628 4666 
z
" transform="scale(0.015625)"/>
       <path id="DejaVuSans-65" d="M 3597 1894 
L 3597 1613 
L 953 1613 
Q 991 1019 1311 708 
Q 1631 397 2203 397 
Q 2534 397 2845 478 
Q 3156 559 3463 722 
L 3463 178 
Q 3153 47 2828 -22 
Q 2503 -91 2169 -91 
Q 1331 -91 842 396 
Q 353 884 353 1716 
Q 353 2575 817 3079 
Q 1281 3584 2069 3584 
Q 2775 3584 3186 3129 
Q 3597 2675 3597 1894 
z
M 3022 2063 
Q 3016 2534 2758 2815 
Q 2500 3097 2075 3097 
Q 1594 3097 1305 2825 
Q 1016 2553 972 2059 
L 3022 2063 
z
" transform="scale(0.015625)"/>
       <path id="DejaVuSans-61" d="M 2194 1759 
Q 1497 1759 1228 1600 
Q 959 1441 959 1056 
Q 959 750 1161 570 
Q 1363 391 1709 391 
Q 2188 391 2477 730 
Q 2766 1069 2766 1631 
L 2766 1759 
L 2194 1759 
z
M 3341 1997 
L 3341 0 
L 2766 0 
L 2766 531 
Q 2569 213 2275 61 
Q 1981 -91 1556 -91 
Q 1019 -91 701 211 
Q 384 513 384 1019 
Q 384 1609 779 1909 
Q 1175 2209 1959 2209 
L 2766 2209 
L 2766 2266 
Q 2766 2663 2505 2880 
Q 2244 3097 1772 3097 
Q 1472 3097 1187 3025 
Q 903 2953 641 2809 
L 641 3341 
Q 956 3463 1253 3523 
Q 1550 3584 1831 3584 
Q 2591 3584 2966 3190 
Q 3341 2797 3341 1997 
z
" transform="scale(0.015625)"/>
       <path id="DejaVuSans-6e" d="M 3513 2113 
L 3513 0 
L 2938 0 
L 2938 2094 
Q 2938 2591 2744 2837 
Q 2550 3084 2163 3084 
Q 1697 3084 1428 2787 
Q 1159 2491 1159 1978 
L 1159 0 
L 581 0 
L 581 3500 
L 1159 3500 
L 1159 2956 
Q 1366 3272 1645 3428 
Q 1925 3584 2291 3584 
Q 2894 3584 3203 3211 
Q 3513 2838 3513 2113 
z
" transform="scale(0.015625)"/>
       <path id="DejaVuSans-20" transform="scale(0.015625)"/>
       <path id="DejaVuSans-50" d="M 1259 4147 
L 1259 2394 
L 2053 2394 
Q 2494 2394 2734 2622 
Q 2975 2850 2975 3272 
Q 2975 3691 2734 3919 
Q 2494 4147 2053 4147 
L 1259 4147 
z
M 628 4666 
L 2053 4666 
Q 2838 4666 3239 4311 
Q 3641 3956 3641 3272 
Q 3641 2581 3239 2228 
Q 2838 1875 2053 1875 
L 1259 1875 
L 1259 0 
L 628 0 
L 628 4666 
z
" transform="scale(0.015625)"/>
       <path id="DejaVuSans-72" d="M 2631 2963 
Q 2534 3019 2420 3045 
Q 2306 3072 2169 3072 
Q 1681 3072 1420 2755 
Q 1159 2438 1159 1844 
L 1159 0 
L 581 0 
L 581 3500 
L 1159 3500 
L 1159 2956 
Q 1341 3275 1631 3429 
Q 1922 3584 2338 3584 
Q 2397 3584 2469 3576 
Q 2541 3569 2628 3553 
L 2631 2963 
z
" transform="scale(0.015625)"/>
       <path id="DejaVuSans-64" d="M 2906 2969 
L 2906 4863 
L 3481 4863 
L 3481 0 
L 2906 0 
L 2906 525 
Q 2725 213 2448 61 
Q 2172 -91 1784 -91 
Q 1150 -91 751 415 
Q 353 922 353 1747 
Q 353 2572 751 3078 
Q 1150 3584 1784 3584 
Q 2172 3584 2448 3432 
Q 2725 3281 2906 2969 
z
M 947 1747 
Q 947 1113 1208 752 
Q 1469 391 1925 391 
Q 2381 391 2643 752 
Q 2906 1113 2906 1747 
Q 2906 2381 2643 2742 
Q 2381 3103 1925 3103 
Q 1469 3103 1208 2742 
Q 947 2381 947 1747 
z
" transform="scale(0.015625)"/>
       <path id="DejaVuSans-69" d="M 603 3500 
L 1178 3500 
L 1178 0 
L 603 0 
L 603 3500 
z
M 603 4863 
L 1178 4863 
L 1178 4134 
L 603 4134 
L 603 4863 
z
" transform="scale(0.015625)"/>
       <path id="DejaVuSans-63" d="M 3122 3366 
L 3122 2828 
Q 2878 2963 2633 3030 
Q 2388 3097 2138 3097 
Q 1578 3097 1268 2742 
Q 959 2388 959 1747 
Q 959 1106 1268 751 
Q 1578 397 2138 397 
Q 2388 397 2633 464 
Q 2878 531 3122 666 
L 3122 134 
Q 2881 22 2623 -34 
Q 2366 -91 2075 -91 
Q 1284 -91 818 406 
Q 353 903 353 1747 
Q 353 2603 823 3093 
Q 1294 3584 2113 3584 
Q 2378 3584 2631 3529 
Q 2884 3475 3122 3366 
z
" transform="scale(0.015625)"/>
       <path id="DejaVuSans-74" d="M 1172 4494 
L 1172 3500 
L 2356 3500 
L 2356 3053 
L 1172 3053 
L 1172 1153 
Q 1172 725 1289 603 
Q 1406 481 1766 481 
L 2356 481 
L 2356 0 
L 1766 0 
Q 1100 0 847 248 
Q 594 497 594 1153 
L 594 3053 
L 172 3053 
L 172 3500 
L 594 3500 
L 594 4494 
L 1172 4494 
z
" transform="scale(0.015625)"/>
       <path id="DejaVuSans-6f" d="M 1959 3097 
Q 1497 3097 1228 2736 
Q 959 2375 959 1747 
Q 959 1119 1226 758 
Q 1494 397 1959 397 
Q 2419 397 2687 759 
Q 2956 1122 2956 1747 
Q 2956 2369 2687 2733 
Q 2419 3097 1959 3097 
z
M 1959 3584 
Q 2709 3584 3137 3096 
Q 3566 2609 3566 1747 
Q 3566 888 3137 398 
Q 2709 -91 1959 -91 
Q 1206 -91 779 398 
Q 353 888 353 1747 
Q 353 2609 779 3096 
Q 1206 3584 1959 3584 
z
" transform="scale(0.015625)"/>
       <path id="DejaVuSans-45" d="M 628 4666 
L 3578 4666 
L 3578 4134 
L 1259 4134 
L 1259 2753 
L 3481 2753 
L 3481 2222 
L 1259 2222 
L 1259 531 
L 3634 531 
L 3634 0 
L 628 0 
L 628 4666 
z
" transform="scale(0.015625)"/>
       <path id="DejaVuSans-70" d="M 1159 525 
L 1159 -1331 
L 581 -1331 
L 581 3500 
L 1159 3500 
L 1159 2969 
Q 1341 3281 1617 3432 
Q 1894 3584 2278 3584 
Q 2916 3584 3314 3078 
Q 3713 2572 3713 1747 
Q 3713 922 3314 415 
Q 2916 -91 2278 -91 
Q 1894 -91 1617 61 
Q 1341 213 1159 525 
z
M 3116 1747 
Q 3116 2381 2855 2742 
Q 2594 3103 2138 3103 
Q 1681 3103 1420 2742 
Q 1159 2381 1159 1747 
Q 1159 1113 1420 752 
Q 1681 391 2138 391 
Q 2594 391 2855 752 
Q 3116 1113 3116 1747 
z
" transform="scale(0.015625)"/>
       <path id="DejaVuSans-79" d="M 2059 -325 
Q 1816 -950 1584 -1140 
Q 1353 -1331 966 -1331 
L 506 -1331 
L 506 -850 
L 844 -850 
Q 1081 -850 1212 -737 
Q 1344 -625 1503 -206 
L 1606 56 
L 191 3500 
L 800 3500 
L 1894 763 
L 2988 3500 
L 3597 3500 
L 2059 -325 
z
" transform="scale(0.015625)"/>
      </defs>
      <use xlink:href="#DejaVuSans-4d"/>
      <use xlink:href="#DejaVuSans-65" transform="translate(86.279297 0)"/>
      <use xlink:href="#DejaVuSans-61" transform="translate(147.802734 0)"/>
      <use xlink:href="#DejaVuSans-6e" transform="translate(209.082031 0)"/>
      <use xlink:href="#DejaVuSans-20" transform="translate(272.460938 0)"/>
      <use xlink:href="#DejaVuSans-50" transform="translate(304.248047 0)"/>
      <use xlink:href="#DejaVuSans-72" transform="translate(362.800781 0)"/>
      <use xlink:href="#DejaVuSans-65" transform="translate(401.664062 0)"/>
      <use xlink:href="#DejaVuSans-64" transform="translate(463.1875 0)"/>
      <use xlink:href="#DejaVuSans-69" transform="translate(526.664062 0)"/>
      <use xlink:href="#DejaVuSans-63" transform="translate(554.447266 0)"/>
      <use xlink:href="#DejaVuSans-74" transform="translate(609.427734 0)"/>
      <use xlink:href="#DejaVuSans-69" transform="translate(648.636719 0)"/>
      <use xlink:href="#DejaVuSans-6f" transform="translate(676.419922 0)"/>
      <use xlink:href="#DejaVuSans-6e" transform="translate(737.601562 0)"/>
      <use xlink:href="#DejaVuSans-20" transform="translate(800.980469 0)"/>
      <use xlink:href="#DejaVuSans-45" transform="translate(832.767578 0)"/>
      <use xlink:href="#DejaVuSans-6e" transform="translate(895.951172 0)"/>
      <use xlink:href="#DejaVuSans-74" transform="translate(959.330078 0)"/>
      <use xlink:href="#DejaVuSans-72" transform="translate(998.539062 0)"/>
      <use xlink:href="#DejaVuSans-6f" transform="translate(1037.402344 0)"/>
      <use xlink:href="#DejaVuSans-70" transform="translate(1098.583984 0)"/>
      <use xlink:href="#DejaVuSans-79" transform="translate(1162.060547 0)"/>
     </g>
    </g>
   </g>
   <g id="matplotlib.axis_2">
    <g id="ytick_1">
     <g id="line2d_6">
      <path d="M 62.116875 509.291849 
L 633.066762 509.291849 
" clip-path="url(#pd23941548c)" style="fill: none; stroke: #cccccc; stroke-opacity: 0.3; stroke-width: 1.5; stroke-linecap: round"/>
     </g>
     <g id="text_7">
      <!-- 45 -->
      <g style="fill: #262626" transform="translate(28.620625 515.56056) scale(0.165 -0.165)">
       <defs>
        <path id="DejaVuSans-35" d="M 691 4666 
L 3169 4666 
L 3169 4134 
L 1269 4134 
L 1269 2991 
Q 1406 3038 1543 3061 
Q 1681 3084 1819 3084 
Q 2600 3084 3056 2656 
Q 3513 2228 3513 1497 
Q 3513 744 3044 326 
Q 2575 -91 1722 -91 
Q 1428 -91 1123 -41 
Q 819 9 494 109 
L 494 744 
Q 775 591 1075 516 
Q 1375 441 1709 441 
Q 2250 441 2565 725 
Q 2881 1009 2881 1497 
Q 2881 1984 2565 2268 
Q 2250 2553 1709 2553 
Q 1456 2553 1204 2497 
Q 953 2441 691 2322 
L 691 4666 
z
" transform="scale(0.015625)"/>
       </defs>
       <use xlink:href="#DejaVuSans-34"/>
       <use xlink:href="#DejaVuSans-35" transform="translate(63.623047 0)"/>
      </g>
     </g>
    </g>
    <g id="ytick_2">
     <g id="line2d_7">
      <path d="M 62.116875 439.750591 
L 633.066762 439.750591 
" clip-path="url(#pd23941548c)" style="fill: none; stroke: #cccccc; stroke-opacity: 0.3; stroke-width: 1.5; stroke-linecap: round"/>
     </g>
     <g id="text_8">
      <!-- 50 -->
      <g style="fill: #262626" transform="translate(28.620625 446.019302) scale(0.165 -0.165)">
       <use xlink:href="#DejaVuSans-35"/>
       <use xlink:href="#DejaVuSans-30" transform="translate(63.623047 0)"/>
      </g>
     </g>
    </g>
    <g id="ytick_3">
     <g id="line2d_8">
      <path d="M 62.116875 370.209333 
L 633.066762 370.209333 
" clip-path="url(#pd23941548c)" style="fill: none; stroke: #cccccc; stroke-opacity: 0.3; stroke-width: 1.5; stroke-linecap: round"/>
     </g>
     <g id="text_9">
      <!-- 55 -->
      <g style="fill: #262626" transform="translate(28.620625 376.478044) scale(0.165 -0.165)">
       <use xlink:href="#DejaVuSans-35"/>
       <use xlink:href="#DejaVuSans-35" transform="translate(63.623047 0)"/>
      </g>
     </g>
    </g>
    <g id="ytick_4">
     <g id="line2d_9">
      <path d="M 62.116875 300.668075 
L 633.066762 300.668075 
" clip-path="url(#pd23941548c)" style="fill: none; stroke: #cccccc; stroke-opacity: 0.3; stroke-width: 1.5; stroke-linecap: round"/>
     </g>
     <g id="text_10">
      <!-- 60 -->
      <g style="fill: #262626" transform="translate(28.620625 306.936786) scale(0.165 -0.165)">
       <use xlink:href="#DejaVuSans-36"/>
       <use xlink:href="#DejaVuSans-30" transform="translate(63.623047 0)"/>
      </g>
     </g>
    </g>
    <g id="ytick_5">
     <g id="line2d_10">
      <path d="M 62.116875 231.126817 
L 633.066762 231.126817 
" clip-path="url(#pd23941548c)" style="fill: none; stroke: #cccccc; stroke-opacity: 0.3; stroke-width: 1.5; stroke-linecap: round"/>
     </g>
     <g id="text_11">
      <!-- 65 -->
      <g style="fill: #262626" transform="translate(28.620625 237.395527) scale(0.165 -0.165)">
       <use xlink:href="#DejaVuSans-36"/>
       <use xlink:href="#DejaVuSans-35" transform="translate(63.623047 0)"/>
      </g>
     </g>
    </g>
    <g id="ytick_6">
     <g id="line2d_11">
      <path d="M 62.116875 161.585558 
L 633.066762 161.585558 
" clip-path="url(#pd23941548c)" style="fill: none; stroke: #cccccc; stroke-opacity: 0.3; stroke-width: 1.5; stroke-linecap: round"/>
     </g>
     <g id="text_12">
      <!-- 70 -->
      <g style="fill: #262626" transform="translate(28.620625 167.854269) scale(0.165 -0.165)">
       <defs>
        <path id="DejaVuSans-37" d="M 525 4666 
L 3525 4666 
L 3525 4397 
L 1831 0 
L 1172 0 
L 2766 4134 
L 525 4134 
L 525 4666 
z
" transform="scale(0.015625)"/>
       </defs>
       <use xlink:href="#DejaVuSans-37"/>
       <use xlink:href="#DejaVuSans-30" transform="translate(63.623047 0)"/>
      </g>
     </g>
    </g>
    <g id="ytick_7">
     <g id="line2d_12">
      <path d="M 62.116875 92.0443 
L 633.066762 92.0443 
" clip-path="url(#pd23941548c)" style="fill: none; stroke: #cccccc; stroke-opacity: 0.3; stroke-width: 1.5; stroke-linecap: round"/>
     </g>
     <g id="text_13">
      <!-- 75 -->
      <g style="fill: #262626" transform="translate(28.620625 98.313011) scale(0.165 -0.165)">
       <use xlink:href="#DejaVuSans-37"/>
       <use xlink:href="#DejaVuSans-35" transform="translate(63.623047 0)"/>
      </g>
     </g>
    </g>
    <g id="text_14">
     <!-- Accuracy (%) -->
     <g style="fill: #262626" transform="translate(20.877187 336.618744) rotate(-90) scale(0.18 -0.18)">
      <defs>
       <path id="DejaVuSans-41" d="M 2188 4044 
L 1331 1722 
L 3047 1722 
L 2188 4044 
z
M 1831 4666 
L 2547 4666 
L 4325 0 
L 3669 0 
L 3244 1197 
L 1141 1197 
L 716 0 
L 50 0 
L 1831 4666 
z
" transform="scale(0.015625)"/>
       <path id="DejaVuSans-75" d="M 544 1381 
L 544 3500 
L 1119 3500 
L 1119 1403 
Q 1119 906 1312 657 
Q 1506 409 1894 409 
Q 2359 409 2629 706 
Q 2900 1003 2900 1516 
L 2900 3500 
L 3475 3500 
L 3475 0 
L 2900 0 
L 2900 538 
Q 2691 219 2414 64 
Q 2138 -91 1772 -91 
Q 1169 -91 856 284 
Q 544 659 544 1381 
z
M 1991 3584 
L 1991 3584 
z
" transform="scale(0.015625)"/>
       <path id="DejaVuSans-28" d="M 1984 4856 
Q 1566 4138 1362 3434 
Q 1159 2731 1159 2009 
Q 1159 1288 1364 580 
Q 1569 -128 1984 -844 
L 1484 -844 
Q 1016 -109 783 600 
Q 550 1309 550 2009 
Q 550 2706 781 3412 
Q 1013 4119 1484 4856 
L 1984 4856 
z
" transform="scale(0.015625)"/>
       <path id="DejaVuSans-25" d="M 4653 2053 
Q 4381 2053 4226 1822 
Q 4072 1591 4072 1178 
Q 4072 772 4226 539 
Q 4381 306 4653 306 
Q 4919 306 5073 539 
Q 5228 772 5228 1178 
Q 5228 1588 5073 1820 
Q 4919 2053 4653 2053 
z
M 4653 2450 
Q 5147 2450 5437 2106 
Q 5728 1763 5728 1178 
Q 5728 594 5436 251 
Q 5144 -91 4653 -91 
Q 4153 -91 3862 251 
Q 3572 594 3572 1178 
Q 3572 1766 3864 2108 
Q 4156 2450 4653 2450 
z
M 1428 4353 
Q 1159 4353 1004 4120 
Q 850 3888 850 3481 
Q 850 3069 1003 2837 
Q 1156 2606 1428 2606 
Q 1700 2606 1854 2837 
Q 2009 3069 2009 3481 
Q 2009 3884 1853 4118 
Q 1697 4353 1428 4353 
z
M 4250 4750 
L 4750 4750 
L 1831 -91 
L 1331 -91 
L 4250 4750 
z
M 1428 4750 
Q 1922 4750 2215 4408 
Q 2509 4066 2509 3481 
Q 2509 2891 2217 2550 
Q 1925 2209 1428 2209 
Q 931 2209 642 2551 
Q 353 2894 353 3481 
Q 353 4063 643 4406 
Q 934 4750 1428 4750 
z
" transform="scale(0.015625)"/>
       <path id="DejaVuSans-29" d="M 513 4856 
L 1013 4856 
Q 1481 4119 1714 3412 
Q 1947 2706 1947 2009 
Q 1947 1309 1714 600 
Q 1481 -109 1013 -844 
L 513 -844 
Q 928 -128 1133 580 
Q 1338 1288 1338 2009 
Q 1338 2731 1133 3434 
Q 928 4138 513 4856 
z
" transform="scale(0.015625)"/>
      </defs>
      <use xlink:href="#DejaVuSans-41"/>
      <use xlink:href="#DejaVuSans-63" transform="translate(66.658203 0)"/>
      <use xlink:href="#DejaVuSans-63" transform="translate(121.638672 0)"/>
      <use xlink:href="#DejaVuSans-75" transform="translate(176.619141 0)"/>
      <use xlink:href="#DejaVuSans-72" transform="translate(239.998047 0)"/>
      <use xlink:href="#DejaVuSans-61" transform="translate(281.111328 0)"/>
      <use xlink:href="#DejaVuSans-63" transform="translate(342.390625 0)"/>
      <use xlink:href="#DejaVuSans-79" transform="translate(397.371094 0)"/>
      <use xlink:href="#DejaVuSans-20" transform="translate(456.550781 0)"/>
      <use xlink:href="#DejaVuSans-28" transform="translate(488.337891 0)"/>
      <use xlink:href="#DejaVuSans-25" transform="translate(527.351562 0)"/>
      <use xlink:href="#DejaVuSans-29" transform="translate(622.371094 0)"/>
     </g>
    </g>
   </g>
   <g id="PathCollection_1">
    <path d="M 529.110166 503.047747 
C 530.368135 503.047747 531.57475 502.54795 532.464268 501.658432 
C 533.353786 500.768914 533.853582 499.562299 533.853582 498.30433 
C 533.853582 497.046361 533.353786 495.839746 532.464268 494.950228 
C 531.57475 494.06071 530.368135 493.560914 529.110166 493.560914 
C 527.852197 493.560914 526.645582 494.06071 525.756064 494.950228 
C 524.866546 495.839746 524.366749 497.046361 524.366749 498.30433 
C 524.366749 499.562299 524.866546 500.768914 525.756064 501.658432 
C 526.645582 502.54795 527.852197 503.047747 529.110166 503.047747 
z
" clip-path="url(#pd23941548c)" style="fill: #0173b2; fill-opacity: 0.9; stroke: #ffffff; stroke-opacity: 0.9; stroke-width: 0.758947"/>
    <path d="M 438.750542 432.941094 
C 440.338072 432.941094 441.860796 432.310362 442.98335 431.187808 
C 444.105904 430.065254 444.736637 428.54253 444.736637 426.954999 
C 444.736637 425.367468 444.105904 423.844745 442.98335 422.722191 
C 441.860796 421.599637 440.338072 420.968904 438.750542 420.968904 
C 437.163011 420.968904 435.640287 421.599637 434.517733 422.722191 
C 433.395179 423.844745 432.764447 425.367468 432.764447 426.954999 
C 432.764447 428.54253 433.395179 430.065254 434.517733 431.187808 
C 435.640287 432.310362 437.163011 432.941094 438.750542 432.941094 
z
" clip-path="url(#pd23941548c)" style="fill: #0173b2; fill-opacity: 0.9; stroke: #ffffff; stroke-opacity: 0.9; stroke-width: 0.758947"/>
    <path d="M 551.48493 442.510232 
C 553.581545 442.510232 555.592569 441.677238 557.0751 440.194708 
C 558.55763 438.712177 559.390624 436.701152 559.390624 434.604538 
C 559.390624 432.507923 558.55763 430.496898 557.0751 429.014368 
C 555.592569 427.531837 553.581545 426.698843 551.48493 426.698843 
C 549.388315 426.698843 547.37729 427.531837 545.89476 429.014368 
C 544.41223 430.496898 543.579236 432.507923 543.579236 434.604538 
C 543.579236 436.701152 544.41223 438.712177 545.89476 440.194708 
C 547.37729 441.677238 549.388315 442.510232 551.48493 442.510232 
z
" clip-path="url(#pd23941548c)" style="fill: #0173b2; fill-opacity: 0.9; stroke: #ffffff; stroke-opacity: 0.9; stroke-width: 0.758947"/>
    <path d="M 597.305021 109.861473 
L 599.67673 107.489765 
L 602.048438 109.861473 
L 604.420146 107.489765 
L 602.048438 105.118057 
L 604.420146 102.746349 
L 602.048438 100.37464 
L 599.67673 102.746349 
L 597.305021 100.37464 
L 594.933313 102.746349 
L 597.305021 105.118057 
L 594.933313 107.489765 
z
" clip-path="url(#pd23941548c)" style="fill: #0173b2; fill-opacity: 0.9; stroke: #ffffff; stroke-opacity: 0.9; stroke-width: 0.758947"/>
    <path d="M 586.971559 79.115173 
L 589.964607 76.122126 
L 592.957654 79.115173 
L 595.950702 76.122126 
L 592.957654 73.129078 
L 595.950702 70.136031 
L 592.957654 67.142983 
L 589.964607 70.136031 
L 586.971559 67.142983 
L 583.978512 70.136031 
L 586.971559 73.129078 
L 583.978512 76.122126 
z
" clip-path="url(#pd23941548c)" style="fill: #0173b2; fill-opacity: 0.9; stroke: #ffffff; stroke-opacity: 0.9; stroke-width: 0.758947"/>
    <path d="M 603.161647 57.529827 
L 607.114495 53.57698 
L 611.067342 57.529827 
L 615.020189 53.57698 
L 611.067342 49.624133 
L 615.020189 45.671286 
L 611.067342 41.718439 
L 607.114495 45.671286 
L 603.161647 41.718439 
L 599.2088 45.671286 
L 603.161647 49.624133 
L 599.2088 53.57698 
z
" clip-path="url(#pd23941548c)" style="fill: #0173b2; fill-opacity: 0.9; stroke: #ffffff; stroke-opacity: 0.9; stroke-width: 0.758947"/>
    <path d="M 498.525238 228.60721 
L 498.525238 235.315414 
L 505.233442 235.315414 
L 505.233442 228.60721 
z
" clip-path="url(#pd23941548c)" style="fill: #0173b2; fill-opacity: 0.9; stroke: #ffffff; stroke-opacity: 0.9; stroke-width: 0.758947"/>
    <path d="M 358.787762 107.700292 
L 358.787762 116.165909 
L 367.253379 116.165909 
L 367.253379 107.700292 
z
" clip-path="url(#pd23941548c)" style="fill: #0173b2; fill-opacity: 0.9; stroke: #ffffff; stroke-opacity: 0.9; stroke-width: 0.758947"/>
    <path d="M 388.287905 116.774119 
L 388.287905 127.954459 
L 399.468245 127.954459 
L 399.468245 116.774119 
z
" clip-path="url(#pd23941548c)" style="fill: #0173b2; fill-opacity: 0.9; stroke: #ffffff; stroke-opacity: 0.9; stroke-width: 0.758947"/>
    <path d="M 390.558742 509.30646 
C 391.816711 509.30646 393.023326 508.806663 393.912844 507.917145 
C 394.802362 507.027627 395.302158 505.821012 395.302158 504.563043 
C 395.302158 503.305074 394.802362 502.09846 393.912844 501.208941 
C 393.023326 500.319423 391.816711 499.819627 390.558742 499.819627 
C 389.300773 499.819627 388.094158 500.319423 387.20464 501.208941 
C 386.315122 502.09846 385.815325 503.305074 385.815325 504.563043 
C 385.815325 505.821012 386.315122 507.027627 387.20464 507.917145 
C 388.094158 508.806663 389.300773 509.30646 390.558742 509.30646 
z
" clip-path="url(#pd23941548c)" style="fill: #de8f05; fill-opacity: 0.9; stroke: #ffffff; stroke-opacity: 0.9; stroke-width: 0.758947"/>
    <path d="M 219.920431 464.79099 
C 221.507962 464.79099 223.030686 464.160258 224.153239 463.037704 
C 225.275793 461.91515 225.906526 460.392426 225.906526 458.804895 
C 225.906526 457.217364 225.275793 455.694641 224.153239 454.572087 
C 223.030686 453.449533 221.507962 452.8188 219.920431 452.8188 
C 218.3329 452.8188 216.810177 453.449533 215.687623 454.572087 
C 214.565069 455.694641 213.934336 457.217364 213.934336 458.804895 
C 213.934336 460.392426 214.565069 461.91515 215.687623 463.037704 
C 216.810177 464.160258 218.3329 464.79099 219.920431 464.79099 
z
" clip-path="url(#pd23941548c)" style="fill: #de8f05; fill-opacity: 0.9; stroke: #ffffff; stroke-opacity: 0.9; stroke-width: 0.758947"/>
    <path d="M 383.920076 470.883065 
C 386.01669 470.883065 388.027715 470.050071 389.510246 468.567541 
C 390.992776 467.08501 391.82577 465.073986 391.82577 462.977371 
C 391.82577 460.880756 390.992776 458.869731 389.510246 457.387201 
C 388.027715 455.904671 386.01669 455.071677 383.920076 455.071677 
C 381.823461 455.071677 379.812436 455.904671 378.329906 457.387201 
C 376.847375 458.869731 376.014382 460.880756 376.014382 462.977371 
C 376.014382 465.073986 376.847375 467.08501 378.329906 468.567541 
C 379.812436 470.050071 381.823461 470.883065 383.920076 470.883065 
z
" clip-path="url(#pd23941548c)" style="fill: #de8f05; fill-opacity: 0.9; stroke: #ffffff; stroke-opacity: 0.9; stroke-width: 0.758947"/>
    <path d="M 410.192983 198.596119 
L 412.564691 196.22441 
L 414.936399 198.596119 
L 417.308108 196.22441 
L 414.936399 193.852702 
L 417.308108 191.480994 
L 414.936399 189.109286 
L 412.564691 191.480994 
L 410.192983 189.109286 
L 407.821275 191.480994 
L 410.192983 193.852702 
L 407.821275 196.22441 
z
" clip-path="url(#pd23941548c)" style="fill: #de8f05; fill-opacity: 0.9; stroke: #ffffff; stroke-opacity: 0.9; stroke-width: 0.758947"/>
    <path d="M 393.774077 122.787083 
L 396.767124 119.794036 
L 399.760172 122.787083 
L 402.753219 119.794036 
L 399.760172 116.800988 
L 402.753219 113.807941 
L 399.760172 110.814893 
L 396.767124 113.807941 
L 393.774077 110.814893 
L 390.781029 113.807941 
L 393.774077 116.800988 
L 390.781029 119.794036 
z
" clip-path="url(#pd23941548c)" style="fill: #de8f05; fill-opacity: 0.9; stroke: #ffffff; stroke-opacity: 0.9; stroke-width: 0.758947"/>
    <path d="M 415.004634 150.436948 
L 418.957481 146.484101 
L 422.910328 150.436948 
L 426.863175 146.484101 
L 422.910328 142.531254 
L 426.863175 138.578407 
L 422.910328 134.62556 
L 418.957481 138.578407 
L 415.004634 134.62556 
L 411.051787 138.578407 
L 415.004634 142.531254 
L 411.051787 146.484101 
z
" clip-path="url(#pd23941548c)" style="fill: #de8f05; fill-opacity: 0.9; stroke: #ffffff; stroke-opacity: 0.9; stroke-width: 0.758947"/>
    <path d="M 309.569126 252.251237 
L 309.569126 258.959441 
L 316.27733 258.959441 
L 316.27733 252.251237 
z
" clip-path="url(#pd23941548c)" style="fill: #de8f05; fill-opacity: 0.9; stroke: #ffffff; stroke-opacity: 0.9; stroke-width: 0.758947"/>
    <path d="M 83.836334 154.988347 
L 83.836334 163.453964 
L 92.301951 163.453964 
L 92.301951 154.988347 
z
" clip-path="url(#pd23941548c)" style="fill: #de8f05; fill-opacity: 0.9; stroke: #ffffff; stroke-opacity: 0.9; stroke-width: 0.758947"/>
    <path d="M 140.813179 151.544748 
L 140.813179 162.725088 
L 151.993519 162.725088 
L 151.993519 151.544748 
z
" clip-path="url(#pd23941548c)" style="fill: #de8f05; fill-opacity: 0.9; stroke: #ffffff; stroke-opacity: 0.9; stroke-width: 0.758947"/>
   </g>
   <g id="line2d_13"/>
   <g id="line2d_14"/>
   <g id="line2d_15"/>
   <g id="line2d_16"/>
   <g id="line2d_17"/>
   <g id="line2d_18"/>
   <g id="line2d_19"/>
   <g id="line2d_20"/>
   <g id="line2d_21"/>
   <g id="line2d_22"/>
   <g id="line2d_23"/>
   <g id="patch_3">
    <path d="M 62.116875 527.309989 
L 62.116875 26.877187 
" style="fill: none; stroke: #cccccc; stroke-width: 1.875; stroke-linejoin: miter; stroke-linecap: square"/>
   </g>
   <g id="patch_4">
    <path d="M 633.066762 527.309989 
L 633.066762 26.877187 
" style="fill: none; stroke: #cccccc; stroke-width: 1.875; stroke-linejoin: miter; stroke-linecap: square"/>
   </g>
   <g id="patch_5">
    <path d="M 62.116875 527.309989 
L 633.066762 527.309989 
" style="fill: none; stroke: #cccccc; stroke-width: 1.875; stroke-linejoin: miter; stroke-linecap: square"/>
   </g>
   <g id="patch_6">
    <path d="M 62.116875 26.877187 
L 633.066762 26.877187 
" style="fill: none; stroke: #cccccc; stroke-width: 1.875; stroke-linejoin: miter; stroke-linecap: square"/>
   </g>
   <g id="patch_7">
    <path d="M 527.110202 498.394673 
Q 459.832521 501.433774 393.895114 504.412331 
" style="fill: none; opacity: 0.35; stroke: #808080; stroke-width: 1.2; stroke-linecap: round"/>
    <path d="M 401.250235 507.683753 
L 393.895114 504.412331 
L 400.925324 500.491088 
" style="fill: none; opacity: 0.35; stroke: #808080; stroke-width: 1.2; stroke-linecap: round"/>
   </g>
   <g id="patch_8">
    <path d="M 436.770466 427.243192 
Q 329.336455 442.879806 223.230096 458.323186 
" style="fill: none; opacity: 0.35; stroke: #808080; stroke-width: 1.2; stroke-linecap: round"/>
    <path d="M 230.873528 460.848644 
L 223.230096 458.323186 
L 229.836522 453.723715 
" style="fill: none; opacity: 0.35; stroke: #808080; stroke-width: 1.2; stroke-linecap: round"/>
   </g>
   <g id="patch_9">
    <path d="M 549.513609 434.938331 
Q 467.703541 448.790779 387.216284 462.419242 
" style="fill: none; opacity: 0.35; stroke: #808080; stroke-width: 1.2; stroke-linecap: round"/>
    <path d="M 394.916251 464.766692 
L 387.216284 462.419242 
L 393.714224 457.667739 
" style="fill: none; opacity: 0.35; stroke: #808080; stroke-width: 1.2; stroke-linecap: round"/>
   </g>
   <g id="patch_10">
    <path d="M 597.869449 105.975128 
Q 506.120465 149.485496 415.583715 192.420983 
" style="fill: none; opacity: 0.35; stroke: #808080; stroke-width: 1.2; stroke-linecap: round"/>
    <path d="M 423.631814 192.588613 
L 415.583715 192.420983 
L 420.546678 186.083081 
" style="fill: none; opacity: 0.35; stroke: #808080; stroke-width: 1.2; stroke-linecap: round"/>
   </g>
   <g id="patch_11">
    <path d="M 588.016005 73.569556 
Q 493.367712 94.964616 400.028041 116.063864 
" style="fill: none; opacity: 0.35; stroke: #808080; stroke-width: 1.2; stroke-linecap: round"/>
    <path d="M 407.844598 117.987777 
L 400.028041 116.063864 
L 406.257105 110.964967 
" style="fill: none; opacity: 0.35; stroke: #808080; stroke-width: 1.2; stroke-linecap: round"/>
   </g>
   <g id="patch_12">
    <path d="M 605.320089 50.510164 
Q 513.035962 96.077706 421.954816 141.051246 
" style="fill: none; opacity: 0.35; stroke: #808080; stroke-width: 1.2; stroke-linecap: round"/>
    <path d="M 430.00456 141.091438 
L 421.954816 141.051246 
L 426.816816 134.635566 
" style="fill: none; opacity: 0.35; stroke: #808080; stroke-width: 1.2; stroke-linecap: round"/>
   </g>
   <g id="patch_13">
    <path d="M 499.892787 232.209889 
Q 407.3994 243.783561 316.237273 255.190654 
" style="fill: none; opacity: 0.35; stroke: #808080; stroke-width: 1.2; stroke-linecap: round"/>
    <path d="M 323.828541 257.868834 
L 316.237273 255.190654 
L 322.934578 250.724548 
" style="fill: none; opacity: 0.35; stroke: #808080; stroke-width: 1.2; stroke-linecap: round"/>
   </g>
   <g id="patch_14">
    <path d="M 361.052916 112.271511 
Q 225.546147 135.576906 91.361606 158.654895 
" style="fill: none; opacity: 0.35; stroke: #808080; stroke-width: 1.2; stroke-linecap: round"/>
    <path d="M 99.067619 160.982416 
L 91.361606 158.654895 
L 97.847231 153.886597 
" style="fill: none; opacity: 0.35; stroke: #808080; stroke-width: 1.2; stroke-linecap: round"/>
   </g>
   <g id="patch_15">
    <path d="M 391.895589 122.642832 
Q 270.140263 139.749667 149.713529 156.669832 
" style="fill: none; opacity: 0.35; stroke: #808080; stroke-width: 1.2; stroke-linecap: round"/>
    <path d="M 157.344384 159.233043 
L 149.713529 156.669832 
L 156.342611 152.103075 
" style="fill: none; opacity: 0.35; stroke: #808080; stroke-width: 1.2; stroke-linecap: round"/>
   </g>
   <g id="text_15">
    <!-- Accuracy-Entropy Tradeoff Under Test-Time Adaptation -->
    <g style="fill: #262626" transform="translate(101.893225 20.877187) scale(0.18 -0.18)">
     <defs>
      <path id="DejaVuSans-2d" d="M 313 2009 
L 1997 2009 
L 1997 1497 
L 313 1497 
L 313 2009 
z
" transform="scale(0.015625)"/>
      <path id="DejaVuSans-54" d="M -19 4666 
L 3928 4666 
L 3928 4134 
L 2272 4134 
L 2272 0 
L 1638 0 
L 1638 4134 
L -19 4134 
L -19 4666 
z
" transform="scale(0.015625)"/>
      <path id="DejaVuSans-66" d="M 2375 4863 
L 2375 4384 
L 1825 4384 
Q 1516 4384 1395 4259 
Q 1275 4134 1275 3809 
L 1275 3500 
L 2222 3500 
L 2222 3053 
L 1275 3053 
L 1275 0 
L 697 0 
L 697 3053 
L 147 3053 
L 147 3500 
L 697 3500 
L 697 3744 
Q 697 4328 969 4595 
Q 1241 4863 1831 4863 
L 2375 4863 
z
" transform="scale(0.015625)"/>
      <path id="DejaVuSans-55" d="M 556 4666 
L 1191 4666 
L 1191 1831 
Q 1191 1081 1462 751 
Q 1734 422 2344 422 
Q 2950 422 3222 751 
Q 3494 1081 3494 1831 
L 3494 4666 
L 4128 4666 
L 4128 1753 
Q 4128 841 3676 375 
Q 3225 -91 2344 -91 
Q 1459 -91 1007 375 
Q 556 841 556 1753 
L 556 4666 
z
" transform="scale(0.015625)"/>
      <path id="DejaVuSans-73" d="M 2834 3397 
L 2834 2853 
Q 2591 2978 2328 3040 
Q 2066 3103 1784 3103 
Q 1356 3103 1142 2972 
Q 928 2841 928 2578 
Q 928 2378 1081 2264 
Q 1234 2150 1697 2047 
L 1894 2003 
Q 2506 1872 2764 1633 
Q 3022 1394 3022 966 
Q 3022 478 2636 193 
Q 2250 -91 1575 -91 
Q 1294 -91 989 -36 
Q 684 19 347 128 
L 347 722 
Q 666 556 975 473 
Q 1284 391 1588 391 
Q 1994 391 2212 530 
Q 2431 669 2431 922 
Q 2431 1156 2273 1281 
Q 2116 1406 1581 1522 
L 1381 1569 
Q 847 1681 609 1914 
Q 372 2147 372 2553 
Q 372 3047 722 3315 
Q 1072 3584 1716 3584 
Q 2034 3584 2315 3537 
Q 2597 3491 2834 3397 
z
" transform="scale(0.015625)"/>
      <path id="DejaVuSans-6d" d="M 3328 2828 
Q 3544 3216 3844 3400 
Q 4144 3584 4550 3584 
Q 5097 3584 5394 3201 
Q 5691 2819 5691 2113 
L 5691 0 
L 5113 0 
L 5113 2094 
Q 5113 2597 4934 2840 
Q 4756 3084 4391 3084 
Q 3944 3084 3684 2787 
Q 3425 2491 3425 1978 
L 3425 0 
L 2847 0 
L 2847 2094 
Q 2847 2600 2669 2842 
Q 2491 3084 2119 3084 
Q 1678 3084 1418 2786 
Q 1159 2488 1159 1978 
L 1159 0 
L 581 0 
L 581 3500 
L 1159 3500 
L 1159 2956 
Q 1356 3278 1631 3431 
Q 1906 3584 2284 3584 
Q 2666 3584 2933 3390 
Q 3200 3197 3328 2828 
z
" transform="scale(0.015625)"/>
     </defs>
     <use xlink:href="#DejaVuSans-41"/>
     <use xlink:href="#DejaVuSans-63" transform="translate(66.658203 0)"/>
     <use xlink:href="#DejaVuSans-63" transform="translate(121.638672 0)"/>
     <use xlink:href="#DejaVuSans-75" transform="translate(176.619141 0)"/>
     <use xlink:href="#DejaVuSans-72" transform="translate(239.998047 0)"/>
     <use xlink:href="#DejaVuSans-61" transform="translate(281.111328 0)"/>
     <use xlink:href="#DejaVuSans-63" transform="translate(342.390625 0)"/>
     <use xlink:href="#DejaVuSans-79" transform="translate(397.371094 0)"/>
     <use xlink:href="#DejaVuSans-2d" transform="translate(454.800781 0)"/>
     <use xlink:href="#DejaVuSans-45" transform="translate(490.884766 0)"/>
     <use xlink:href="#DejaVuSans-6e" transform="translate(554.068359 0)"/>
     <use xlink:href="#DejaVuSans-74" transform="translate(617.447266 0)"/>
     <use xlink:href="#DejaVuSans-72" transform="translate(656.65625 0)"/>
     <use xlink:href="#DejaVuSans-6f" transform="translate(695.519531 0)"/>
     <use xlink:href="#DejaVuSans-70" transform="translate(756.701172 0)"/>
     <use xlink:href="#DejaVuSans-79" transform="translate(820.177734 0)"/>
     <use xlink:href="#DejaVuSans-20" transform="translate(879.357422 0)"/>
     <use xlink:href="#DejaVuSans-54" transform="translate(911.144531 0)"/>
     <use xlink:href="#DejaVuSans-72" transform="translate(957.478516 0)"/>
     <use xlink:href="#DejaVuSans-61" transform="translate(998.591797 0)"/>
     <use xlink:href="#DejaVuSans-64" transform="translate(1059.871094 0)"/>
     <use xlink:href="#DejaVuSans-65" transform="translate(1123.347656 0)"/>
     <use xlink:href="#DejaVuSans-6f" transform="translate(1184.871094 0)"/>
     <use xlink:href="#DejaVuSans-66" transform="translate(1246.052734 0)"/>
     <use xlink:href="#DejaVuSans-66" transform="translate(1281.257812 0)"/>
     <use xlink:href="#DejaVuSans-20" transform="translate(1316.462891 0)"/>
     <use xlink:href="#DejaVuSans-55" transform="translate(1348.25 0)"/>
     <use xlink:href="#DejaVuSans-6e" transform="translate(1421.443359 0)"/>
     <use xlink:href="#DejaVuSans-64" transform="translate(1484.822266 0)"/>
     <use xlink:href="#DejaVuSans-65" transform="translate(1548.298828 0)"/>
     <use xlink:href="#DejaVuSans-72" transform="translate(1609.822266 0)"/>
     <use xlink:href="#DejaVuSans-20" transform="translate(1650.935547 0)"/>
     <use xlink:href="#DejaVuSans-54" transform="translate(1682.722656 0)"/>
     <use xlink:href="#DejaVuSans-65" transform="translate(1726.806641 0)"/>
     <use xlink:href="#DejaVuSans-73" transform="translate(1788.330078 0)"/>
     <use xlink:href="#DejaVuSans-74" transform="translate(1840.429688 0)"/>
     <use xlink:href="#DejaVuSans-2d" transform="translate(1879.638672 0)"/>
     <use xlink:href="#DejaVuSans-54" transform="translate(1906.597656 0)"/>
     <use xlink:href="#DejaVuSans-69" transform="translate(1964.556641 0)"/>
     <use xlink:href="#DejaVuSans-6d" transform="translate(1992.339844 0)"/>
     <use xlink:href="#DejaVuSans-65" transform="translate(2089.751953 0)"/>
     <use xlink:href="#DejaVuSans-20" transform="translate(2151.275391 0)"/>
     <use xlink:href="#DejaVuSans-41" transform="translate(2183.0625 0)"/>
     <use xlink:href="#DejaVuSans-64" transform="translate(2249.720703 0)"/>
     <use xlink:href="#DejaVuSans-61" transform="translate(2313.197266 0)"/>
     <use xlink:href="#DejaVuSans-70" transform="translate(2374.476562 0)"/>
     <use xlink:href="#DejaVuSans-74" transform="translate(2437.953125 0)"/>
     <use xlink:href="#DejaVuSans-61" transform="translate(2477.162109 0)"/>
     <use xlink:href="#DejaVuSans-74" transform="translate(2538.441406 0)"/>
     <use xlink:href="#DejaVuSans-69" transform="translate(2577.650391 0)"/>
     <use xlink:href="#DejaVuSans-6f" transform="translate(2605.433594 0)"/>
     <use xlink:href="#DejaVuSans-6e" transform="translate(2666.615234 0)"/>
    </g>
   </g>
   <g id="legend_1">
    <g id="line2d_24"/>
    <g id="text_16">
     <!-- method -->
     <g style="fill: #262626" transform="translate(681.48576 206.184213) scale(0.1 -0.1)">
      <defs>
       <path id="DejaVuSans-68" d="M 3513 2113 
L 3513 0 
L 2938 0 
L 2938 2094 
Q 2938 2591 2744 2837 
Q 2550 3084 2163 3084 
Q 1697 3084 1428 2787 
Q 1159 2491 1159 1978 
L 1159 0 
L 581 0 
L 581 4863 
L 1159 4863 
L 1159 2956 
Q 1366 3272 1645 3428 
Q 1925 3584 2291 3584 
Q 2894 3584 3203 3211 
Q 3513 2838 3513 2113 
z
" transform="scale(0.015625)"/>
      </defs>
      <use xlink:href="#DejaVuSans-6d"/>
      <use xlink:href="#DejaVuSans-65" transform="translate(97.412109 0)"/>
      <use xlink:href="#DejaVuSans-74" transform="translate(158.935547 0)"/>
      <use xlink:href="#DejaVuSans-68" transform="translate(198.144531 0)"/>
      <use xlink:href="#DejaVuSans-6f" transform="translate(261.523438 0)"/>
      <use xlink:href="#DejaVuSans-64" transform="translate(322.705078 0)"/>
     </g>
    </g>
    <g id="line2d_25">
     <defs>
      <path id="mdcb9973d43" d="M 0 4.5 
C 1.193414 4.5 2.338109 4.025852 3.181981 3.181981 
C 4.025852 2.338109 4.5 1.193414 4.5 0 
C 4.5 -1.193414 4.025852 -2.338109 3.181981 -3.181981 
C 2.338109 -4.025852 1.193414 -4.5 0 -4.5 
C -1.193414 -4.5 -2.338109 -4.025852 -3.181981 -3.181981 
C -4.025852 -2.338109 -4.5 -1.193414 -4.5 0 
C -4.5 1.193414 -4.025852 2.338109 -3.181981 3.181981 
C -2.338109 4.025852 -1.193414 4.5 0 4.5 
z
" style="stroke: #ffffff; stroke-opacity: 0.9; stroke-width: 0.758947"/>
     </defs>
     <g>
      <use xlink:href="#mdcb9973d43" x="663.48576" y="217.362338" style="fill: #0173b2; fill-opacity: 0.9; stroke: #ffffff; stroke-opacity: 0.9; stroke-width: 0.758947"/>
     </g>
    </g>
    <g id="text_17">
     <!-- ViTTA -->
     <g style="fill: #262626" transform="translate(681.48576 220.862338) scale(0.1 -0.1)">
      <defs>
       <path id="DejaVuSans-56" d="M 1831 0 
L 50 4666 
L 709 4666 
L 2188 738 
L 3669 4666 
L 4325 4666 
L 2547 0 
L 1831 0 
z
" transform="scale(0.015625)"/>
      </defs>
      <use xlink:href="#DejaVuSans-56"/>
      <use xlink:href="#DejaVuSans-69" transform="translate(66.158203 0)"/>
      <use xlink:href="#DejaVuSans-54" transform="translate(93.941406 0)"/>
      <use xlink:href="#DejaVuSans-54" transform="translate(153.275391 0)"/>
      <use xlink:href="#DejaVuSans-41" transform="translate(206.609375 0)"/>
     </g>
    </g>
    <g id="line2d_26">
     <defs>
      <path id="mb2ac670b50" d="M 0 4.5 
C 1.193414 4.5 2.338109 4.025852 3.181981 3.181981 
C 4.025852 2.338109 4.5 1.193414 4.5 0 
C 4.5 -1.193414 4.025852 -2.338109 3.181981 -3.181981 
C 2.338109 -4.025852 1.193414 -4.5 0 -4.5 
C -1.193414 -4.5 -2.338109 -4.025852 -3.181981 -3.181981 
C -4.025852 -2.338109 -4.5 -1.193414 -4.5 0 
C -4.5 1.193414 -4.025852 2.338109 -3.181981 3.181981 
C -2.338109 4.025852 -1.193414 4.5 0 4.5 
z
" style="stroke: #ffffff; stroke-opacity: 0.9; stroke-width: 0.758947"/>
     </defs>
     <g>
      <use xlink:href="#mb2ac670b50" x="663.48576" y="232.040463" style="fill: #de8f05; fill-opacity: 0.9; stroke: #ffffff; stroke-opacity: 0.9; stroke-width: 0.758947"/>
     </g>
    </g>
    <g id="text_18">
     <!-- RMGA -->
     <g style="fill: #262626" transform="translate(681.48576 235.540463) scale(0.1 -0.1)">
      <defs>
       <path id="DejaVuSans-52" d="M 2841 2188 
Q 3044 2119 3236 1894 
Q 3428 1669 3622 1275 
L 4263 0 
L 3584 0 
L 2988 1197 
Q 2756 1666 2539 1819 
Q 2322 1972 1947 1972 
L 1259 1972 
L 1259 0 
L 628 0 
L 628 4666 
L 2053 4666 
Q 2853 4666 3247 4331 
Q 3641 3997 3641 3322 
Q 3641 2881 3436 2590 
Q 3231 2300 2841 2188 
z
M 1259 4147 
L 1259 2491 
L 2053 2491 
Q 2509 2491 2742 2702 
Q 2975 2913 2975 3322 
Q 2975 3731 2742 3939 
Q 2509 4147 2053 4147 
L 1259 4147 
z
" transform="scale(0.015625)"/>
       <path id="DejaVuSans-47" d="M 3809 666 
L 3809 1919 
L 2778 1919 
L 2778 2438 
L 4434 2438 
L 4434 434 
Q 4069 175 3628 42 
Q 3188 -91 2688 -91 
Q 1594 -91 976 548 
Q 359 1188 359 2328 
Q 359 3472 976 4111 
Q 1594 4750 2688 4750 
Q 3144 4750 3555 4637 
Q 3966 4525 4313 4306 
L 4313 3634 
Q 3963 3931 3569 4081 
Q 3175 4231 2741 4231 
Q 1884 4231 1454 3753 
Q 1025 3275 1025 2328 
Q 1025 1384 1454 906 
Q 1884 428 2741 428 
Q 3075 428 3337 486 
Q 3600 544 3809 666 
z
" transform="scale(0.015625)"/>
      </defs>
      <use xlink:href="#DejaVuSans-52"/>
      <use xlink:href="#DejaVuSans-4d" transform="translate(69.482422 0)"/>
      <use xlink:href="#DejaVuSans-47" transform="translate(155.761719 0)"/>
      <use xlink:href="#DejaVuSans-41" transform="translate(233.251953 0)"/>
     </g>
    </g>
    <g id="line2d_27"/>
    <g id="text_19">
     <!-- frames -->
     <g style="fill: #262626" transform="translate(681.48576 250.218588) scale(0.1 -0.1)">
      <use xlink:href="#DejaVuSans-66"/>
      <use xlink:href="#DejaVuSans-72" transform="translate(35.205078 0)"/>
      <use xlink:href="#DejaVuSans-61" transform="translate(76.318359 0)"/>
      <use xlink:href="#DejaVuSans-6d" transform="translate(137.597656 0)"/>
      <use xlink:href="#DejaVuSans-65" transform="translate(235.009766 0)"/>
      <use xlink:href="#DejaVuSans-73" transform="translate(296.533203 0)"/>
     </g>
    </g>
    <g id="line2d_28">
     <defs>
      <path id="m4f2ee03c60" d="M 0 4.743416 
C 1.257969 4.743416 2.464584 4.24362 3.354102 3.354102 
C 4.24362 2.464584 4.743416 1.257969 4.743416 0 
C 4.743416 -1.257969 4.24362 -2.464584 3.354102 -3.354102 
C 2.464584 -4.24362 1.257969 -4.743416 0 -4.743416 
C -1.257969 -4.743416 -2.464584 -4.24362 -3.354102 -3.354102 
C -4.24362 -2.464584 -4.743416 -1.257969 -4.743416 0 
C -4.743416 1.257969 -4.24362 2.464584 -3.354102 3.354102 
C -2.464584 4.24362 -1.257969 4.743416 0 4.743416 
z
" style="stroke: #ffffff; stroke-opacity: 0.9; stroke-width: 0.758947"/>
     </defs>
     <g>
      <use xlink:href="#m4f2ee03c60" x="663.48576" y="261.396713" style="fill: #333333; fill-opacity: 0.9; stroke: #ffffff; stroke-opacity: 0.9; stroke-width: 0.758947"/>
     </g>
    </g>
    <g id="text_20">
     <!-- 8 -->
     <g style="fill: #262626" transform="translate(681.48576 264.896713) scale(0.1 -0.1)">
      <use xlink:href="#DejaVuSans-38"/>
     </g>
    </g>
    <g id="line2d_29">
     <defs>
      <path id="mf8b3c09192" d="M 0 5.986095 
C 1.587531 5.986095 3.110254 5.355362 4.232808 4.232808 
C 5.355362 3.110254 5.986095 1.587531 5.986095 0 
C 5.986095 -1.587531 5.355362 -3.110254 4.232808 -4.232808 
C 3.110254 -5.355362 1.587531 -5.986095 0 -5.986095 
C -1.587531 -5.986095 -3.110254 -5.355362 -4.232808 -4.232808 
C -5.355362 -3.110254 -5.986095 -1.587531 -5.986095 0 
C -5.986095 1.587531 -5.355362 3.110254 -4.232808 4.232808 
C -3.110254 5.355362 -1.587531 5.986095 0 5.986095 
z
" style="stroke: #ffffff; stroke-opacity: 0.9; stroke-width: 0.758947"/>
     </defs>
     <g>
      <use xlink:href="#mf8b3c09192" x="663.48576" y="276.074838" style="fill: #333333; fill-opacity: 0.9; stroke: #ffffff; stroke-opacity: 0.9; stroke-width: 0.758947"/>
     </g>
    </g>
    <g id="text_21">
     <!-- 16 -->
     <g style="fill: #262626" transform="translate(681.48576 279.574838) scale(0.1 -0.1)">
      <defs>
       <path id="DejaVuSans-31" d="M 794 531 
L 1825 531 
L 1825 4091 
L 703 3866 
L 703 4441 
L 1819 4666 
L 2450 4666 
L 2450 531 
L 3481 531 
L 3481 0 
L 794 0 
L 794 531 
z
" transform="scale(0.015625)"/>
      </defs>
      <use xlink:href="#DejaVuSans-31"/>
      <use xlink:href="#DejaVuSans-36" transform="translate(63.623047 0)"/>
     </g>
    </g>
    <g id="line2d_30">
     <defs>
      <path id="m49ffbf51eb" d="M 0 7.905694 
C 2.096615 7.905694 4.10764 7.0727 5.59017 5.59017 
C 7.0727 4.10764 7.905694 2.096615 7.905694 0 
C 7.905694 -2.096615 7.0727 -4.10764 5.59017 -5.59017 
C 4.10764 -7.0727 2.096615 -7.905694 0 -7.905694 
C -2.096615 -7.905694 -4.10764 -7.0727 -5.59017 -5.59017 
C -7.0727 -4.10764 -7.905694 -2.096615 -7.905694 0 
C -7.905694 2.096615 -7.0727 4.10764 -5.59017 5.59017 
C -4.10764 7.0727 -2.096615 7.905694 0 7.905694 
z
" style="stroke: #ffffff; stroke-opacity: 0.9; stroke-width: 0.758947"/>
     </defs>
     <g>
      <use xlink:href="#m49ffbf51eb" x="663.48576" y="290.752963" style="fill: #333333; fill-opacity: 0.9; stroke: #ffffff; stroke-opacity: 0.9; stroke-width: 0.758947"/>
     </g>
    </g>
    <g id="text_22">
     <!-- 32 -->
     <g style="fill: #262626" transform="translate(681.48576 294.252963) scale(0.1 -0.1)">
      <use xlink:href="#DejaVuSans-33"/>
      <use xlink:href="#DejaVuSans-32" transform="translate(63.623047 0)"/>
     </g>
    </g>
    <g id="line2d_31"/>
    <g id="text_23">
     <!-- model_label -->
     <g style="fill: #262626" transform="translate(681.48576 308.931088) scale(0.1 -0.1)">
      <defs>
       <path id="DejaVuSans-6c" d="M 603 4863 
L 1178 4863 
L 1178 0 
L 603 0 
L 603 4863 
z
" transform="scale(0.015625)"/>
       <path id="DejaVuSans-5f" d="M 3263 -1063 
L 3263 -1509 
L -63 -1509 
L -63 -1063 
L 3263 -1063 
z
" transform="scale(0.015625)"/>
       <path id="DejaVuSans-62" d="M 3116 1747 
Q 3116 2381 2855 2742 
Q 2594 3103 2138 3103 
Q 1681 3103 1420 2742 
Q 1159 2381 1159 1747 
Q 1159 1113 1420 752 
Q 1681 391 2138 391 
Q 2594 391 2855 752 
Q 3116 1113 3116 1747 
z
M 1159 2969 
Q 1341 3281 1617 3432 
Q 1894 3584 2278 3584 
Q 2916 3584 3314 3078 
Q 3713 2572 3713 1747 
Q 3713 922 3314 415 
Q 2916 -91 2278 -91 
Q 1894 -91 1617 61 
Q 1341 213 1159 525 
L 1159 0 
L 581 0 
L 581 4863 
L 1159 4863 
L 1159 2969 
z
" transform="scale(0.015625)"/>
      </defs>
      <use xlink:href="#DejaVuSans-6d"/>
      <use xlink:href="#DejaVuSans-6f" transform="translate(97.412109 0)"/>
      <use xlink:href="#DejaVuSans-64" transform="translate(158.59375 0)"/>
      <use xlink:href="#DejaVuSans-65" transform="translate(222.070312 0)"/>
      <use xlink:href="#DejaVuSans-6c" transform="translate(283.59375 0)"/>
      <use xlink:href="#DejaVuSans-5f" transform="translate(311.376953 0)"/>
      <use xlink:href="#DejaVuSans-6c" transform="translate(361.376953 0)"/>
      <use xlink:href="#DejaVuSans-61" transform="translate(389.160156 0)"/>
      <use xlink:href="#DejaVuSans-62" transform="translate(450.439453 0)"/>
      <use xlink:href="#DejaVuSans-65" transform="translate(513.916016 0)"/>
      <use xlink:href="#DejaVuSans-6c" transform="translate(575.439453 0)"/>
     </g>
    </g>
    <g id="line2d_32">
     <defs>
      <path id="m1189e02c18" d="M 0 4.5 
C 1.193414 4.5 2.338109 4.025852 3.181981 3.181981 
C 4.025852 2.338109 4.5 1.193414 4.5 0 
C 4.5 -1.193414 4.025852 -2.338109 3.181981 -3.181981 
C 2.338109 -4.025852 1.193414 -4.5 0 -4.5 
C -1.193414 -4.5 -2.338109 -4.025852 -3.181981 -3.181981 
C -4.025852 -2.338109 -4.5 -1.193414 -4.5 0 
C -4.5 1.193414 -4.025852 2.338109 -3.181981 3.181981 
C -2.338109 4.025852 -1.193414 4.5 0 4.5 
z
" style="stroke: #ffffff; stroke-opacity: 0.9; stroke-width: 0.758947"/>
     </defs>
     <g>
      <use xlink:href="#m1189e02c18" x="663.48576" y="320.387338" style="fill: #333333; fill-opacity: 0.9; stroke: #ffffff; stroke-opacity: 0.9; stroke-width: 0.758947"/>
     </g>
    </g>
    <g id="text_24">
     <!-- 3DResNet18 (r3d_18) -->
     <g style="fill: #262626" transform="translate(681.48576 323.887338) scale(0.1 -0.1)">
      <defs>
       <path id="DejaVuSans-44" d="M 1259 4147 
L 1259 519 
L 2022 519 
Q 2988 519 3436 956 
Q 3884 1394 3884 2338 
Q 3884 3275 3436 3711 
Q 2988 4147 2022 4147 
L 1259 4147 
z
M 628 4666 
L 1925 4666 
Q 3281 4666 3915 4102 
Q 4550 3538 4550 2338 
Q 4550 1131 3912 565 
Q 3275 0 1925 0 
L 628 0 
L 628 4666 
z
" transform="scale(0.015625)"/>
       <path id="DejaVuSans-4e" d="M 628 4666 
L 1478 4666 
L 3547 763 
L 3547 4666 
L 4159 4666 
L 4159 0 
L 3309 0 
L 1241 3903 
L 1241 0 
L 628 0 
L 628 4666 
z
" transform="scale(0.015625)"/>
      </defs>
      <use xlink:href="#DejaVuSans-33"/>
      <use xlink:href="#DejaVuSans-44" transform="translate(63.623047 0)"/>
      <use xlink:href="#DejaVuSans-52" transform="translate(140.625 0)"/>
      <use xlink:href="#DejaVuSans-65" transform="translate(205.607422 0)"/>
      <use xlink:href="#DejaVuSans-73" transform="translate(267.130859 0)"/>
      <use xlink:href="#DejaVuSans-4e" transform="translate(319.230469 0)"/>
      <use xlink:href="#DejaVuSans-65" transform="translate(394.035156 0)"/>
      <use xlink:href="#DejaVuSans-74" transform="translate(455.558594 0)"/>
      <use xlink:href="#DejaVuSans-31" transform="translate(494.767578 0)"/>
      <use xlink:href="#DejaVuSans-38" transform="translate(558.390625 0)"/>
      <use xlink:href="#DejaVuSans-20" transform="translate(622.013672 0)"/>
      <use xlink:href="#DejaVuSans-28" transform="translate(653.800781 0)"/>
      <use xlink:href="#DejaVuSans-72" transform="translate(692.814453 0)"/>
      <use xlink:href="#DejaVuSans-33" transform="translate(733.927734 0)"/>
      <use xlink:href="#DejaVuSans-64" transform="translate(797.550781 0)"/>
      <use xlink:href="#DejaVuSans-5f" transform="translate(861.027344 0)"/>
      <use xlink:href="#DejaVuSans-31" transform="translate(911.027344 0)"/>
      <use xlink:href="#DejaVuSans-38" transform="translate(974.650391 0)"/>
      <use xlink:href="#DejaVuSans-29" transform="translate(1038.273438 0)"/>
     </g>
    </g>
    <g id="line2d_33">
     <defs>
      <path id="md788b52c92" d="M -2.25 4.5 
L 0 2.25 
L 2.25 4.5 
L 4.5 2.25 
L 2.25 0 
L 4.5 -2.25 
L 2.25 -4.5 
L 0 -2.25 
L -2.25 -4.5 
L -4.5 -2.25 
L -2.25 0 
L -4.5 2.25 
z
" style="stroke: #ffffff; stroke-opacity: 0.9; stroke-width: 0.758947; stroke-linejoin: miter"/>
     </defs>
     <g>
      <use xlink:href="#md788b52c92" x="663.48576" y="335.343588" style="fill: #333333; fill-opacity: 0.9; stroke: #ffffff; stroke-opacity: 0.9; stroke-width: 0.758947; stroke-linejoin: miter"/>
     </g>
    </g>
    <g id="text_25">
     <!-- MC3-18 -->
     <g style="fill: #262626" transform="translate(681.48576 338.843588) scale(0.1 -0.1)">
      <defs>
       <path id="DejaVuSans-43" d="M 4122 4306 
L 4122 3641 
Q 3803 3938 3442 4084 
Q 3081 4231 2675 4231 
Q 1875 4231 1450 3742 
Q 1025 3253 1025 2328 
Q 1025 1406 1450 917 
Q 1875 428 2675 428 
Q 3081 428 3442 575 
Q 3803 722 4122 1019 
L 4122 359 
Q 3791 134 3420 21 
Q 3050 -91 2638 -91 
Q 1578 -91 968 557 
Q 359 1206 359 2328 
Q 359 3453 968 4101 
Q 1578 4750 2638 4750 
Q 3056 4750 3426 4639 
Q 3797 4528 4122 4306 
z
" transform="scale(0.015625)"/>
      </defs>
      <use xlink:href="#DejaVuSans-4d"/>
      <use xlink:href="#DejaVuSans-43" transform="translate(86.279297 0)"/>
      <use xlink:href="#DejaVuSans-33" transform="translate(156.103516 0)"/>
      <use xlink:href="#DejaVuSans-2d" transform="translate(219.726562 0)"/>
      <use xlink:href="#DejaVuSans-31" transform="translate(255.810547 0)"/>
      <use xlink:href="#DejaVuSans-38" transform="translate(319.433594 0)"/>
     </g>
    </g>
    <g id="line2d_34">
     <defs>
      <path id="ma58b8caf60" d="M -3.181981 -3.181981 
L -3.181981 3.181981 
L 3.181981 3.181981 
L 3.181981 -3.181981 
z
" style="stroke: #ffffff; stroke-opacity: 0.9; stroke-width: 0.758947; stroke-linejoin: miter"/>
     </defs>
     <g>
      <use xlink:href="#ma58b8caf60" x="663.48576" y="350.021713" style="fill: #333333; fill-opacity: 0.9; stroke: #ffffff; stroke-opacity: 0.9; stroke-width: 0.758947; stroke-linejoin: miter"/>
     </g>
    </g>
    <g id="text_26">
     <!-- R(2+1)D-18 -->
     <g style="fill: #262626" transform="translate(681.48576 353.521713) scale(0.1 -0.1)">
      <defs>
       <path id="DejaVuSans-2b" d="M 2944 4013 
L 2944 2272 
L 4684 2272 
L 4684 1741 
L 2944 1741 
L 2944 0 
L 2419 0 
L 2419 1741 
L 678 1741 
L 678 2272 
L 2419 2272 
L 2419 4013 
L 2944 4013 
z
" transform="scale(0.015625)"/>
      </defs>
      <use xlink:href="#DejaVuSans-52"/>
      <use xlink:href="#DejaVuSans-28" transform="translate(69.482422 0)"/>
      <use xlink:href="#DejaVuSans-32" transform="translate(108.496094 0)"/>
      <use xlink:href="#DejaVuSans-2b" transform="translate(172.119141 0)"/>
      <use xlink:href="#DejaVuSans-31" transform="translate(255.908203 0)"/>
      <use xlink:href="#DejaVuSans-29" transform="translate(319.53125 0)"/>
      <use xlink:href="#DejaVuSans-44" transform="translate(358.544922 0)"/>
      <use xlink:href="#DejaVuSans-2d" transform="translate(435.546875 0)"/>
      <use xlink:href="#DejaVuSans-31" transform="translate(471.630859 0)"/>
      <use xlink:href="#DejaVuSans-38" transform="translate(535.253906 0)"/>
     </g>
    </g>
   </g>
  </g>
 </g>
 <defs>
  <clipPath id="pd23941548c">
   <rect x="62.116875" y="26.877187" width="570.949887" height="500.432801"/>
  </clipPath>
 </defs>
</svg>
